<svg width="27" height="26" viewBox="0 0 27 26" fill="none" xmlns="http://www.w3.org/2000/svg">
<g clip-path="url(#clip0)">
<path fill-rule="evenodd" clip-rule="evenodd" d="M12.8 4.05058C12.7625 4.05019 12.725 4.05 12.6875 4.05C6.79441 4.05 2 8.84441 2 14.7375C2 20.6306 6.79441 25.425 12.6875 25.425C12.725 25.425 12.7625 25.4248 12.8 25.4244V23.2868C12.7626 23.2873 12.7251 23.2875 12.6875 23.2875C7.97324 23.2875 4.1375 19.4518 4.1375 14.7375C4.1375 10.0232 7.97324 6.1875 12.6875 6.1875C12.7251 6.1875 12.7626 6.18774 12.8 6.18823V4.05058Z" fill="#EE2E3D"/>
<path fill-rule="evenodd" clip-rule="evenodd" d="M12.8005 4.05058C12.8378 4.05019 12.8752 4.05 12.9126 4.05C18.8057 4.05 23.6001 8.84441 23.6001 14.7375C23.6001 20.6306 18.8057 25.425 12.9126 25.425C12.8752 25.425 12.8378 25.4248 12.8005 25.4244V23.2868C12.8378 23.2873 12.8752 23.2875 12.9126 23.2875C17.6269 23.2875 21.4626 19.4518 21.4626 14.7375C21.4626 10.0232 17.6269 6.1875 12.9126 6.1875C12.8752 6.1875 12.8378 6.18774 12.8005 6.18822V4.05058Z" fill="#C4C4C4"/>
<path fill-rule="evenodd" clip-rule="evenodd" d="M12.7995 16.2H7.3999C7.3999 16.2 8.46865 20.475 12.7437 20.475C12.7623 20.475 12.781 20.4749 12.7995 20.4748V16.2Z" fill="#EE2E3D"/>
<path fill-rule="evenodd" clip-rule="evenodd" d="M12.801 16.2H18.2002C18.2002 16.2 17.1314 20.475 12.8564 20.475C12.8379 20.475 12.8194 20.4749 12.801 20.4748V16.2Z" fill="#C4C4C4"/>
<path d="M10.9712 9.96541C10.822 9.80224 10.6444 9.67271 10.4489 9.58425C10.2533 9.4958 10.0436 9.45018 9.83173 9.45C9.43099 9.45007 9.04489 9.61346 8.74987 9.90781C8.45488 9.61341 8.06876 9.45001 7.66802 9.45C7.45591 9.45024 7.24594 9.49601 7.05019 9.58466C6.85443 9.67332 6.67677 9.80311 6.52741 9.96658C5.89038 10.6609 5.89065 11.747 6.52796 12.4384L8.74987 14.85L10.9718 12.4384C11.6091 11.747 11.6094 10.6609 10.9712 9.96541Z" fill="#EE2E3D"/>
<path d="M19.0713 9.96541C18.9221 9.80224 18.7445 9.67271 18.549 9.58425C18.3534 9.4958 18.1437 9.45018 17.9318 9.45C17.5311 9.45007 17.145 9.61346 16.85 9.90781C16.555 9.61341 16.1689 9.45001 15.7681 9.45C15.556 9.45024 15.346 9.49601 15.1503 9.58466C14.9545 9.67332 14.7769 9.80311 14.6275 9.96658C13.9905 10.6609 13.9907 11.747 14.6281 12.4384L16.85 14.85L19.0719 12.4384C19.7092 11.747 19.7095 10.6609 19.0713 9.96541Z" fill="#C4C4C4"/>
</g>
<defs>
<clipPath id="clip0">
<rect width="25.65" height="25.65" fill="white" transform="translate(0.650391)"/>
</clipPath>
</defs>
</svg>
