<svg width="48" height="45" viewBox="0 0 48 45" fill="none" xmlns="http://www.w3.org/2000/svg">
<path d="M27.12 0C20.7763 0 13.7107 1.09956 8.4576 7.03174C3.21216 12.9639 0 23.2435 0 41.087V43.0435H16.6195C18.5203 44.2663 20.6573 45 23.04 45C25.4208 45 27.5616 44.2507 29.4605 43.0435H48V41.087C48 25.1902 44.9856 15.9574 41.04 10.577C37.5648 5.84217 33.5674 4.52348 30.599 4.21826L28.8 0.978261L28.2624 0H27.12ZM26.039 4.0363L27.6 6.84783L28.1376 7.82609H29.28C31.2192 7.82609 34.7482 8.4913 37.9776 12.9013C41.0611 17.1 43.776 25.1022 44.041 39.1304H33.721C33.9322 38.8565 34.1242 38.5591 34.3219 38.2735C36.9274 34.4837 38.4 29.7528 38.4 25.4348H34.56C34.56 28.8039 33.3235 32.9224 31.2 36.0117C29.0765 39.103 26.2368 41.087 23.04 41.087C19.847 41.087 17.0054 39.1109 14.88 36.0117C12.7546 32.9165 11.52 28.7804 11.52 25.4348C11.52 24.5661 11.6832 24.1298 11.9424 23.7835C12.1958 23.4372 12.6413 23.1378 13.319 22.8678C14.6765 22.32 16.967 22.095 19.3805 21.8896C21.7958 21.6822 24.3149 21.4865 26.5805 20.4222C28.8461 19.3559 30.72 16.9435 30.72 13.6957H26.88C26.88 15.7383 26.3539 16.247 25.0176 16.875C23.6851 17.5011 21.4042 17.7711 19.0195 17.9765C16.6349 18.18 14.1235 18.2954 11.8771 19.1974C10.7578 19.6474 9.67296 20.3283 8.88192 21.4004C8.0832 22.4707 7.68 23.9048 7.68 25.4348C7.68 29.7352 9.15456 34.4152 11.76 38.2109C11.9712 38.5239 12.192 38.833 12.4205 39.1304H3.9552C4.2144 23.1593 7.2384 14.2904 11.3357 9.65935C15.3446 5.13196 20.519 4.15174 26.0352 4.0363H26.039ZM17.28 25.4348C16.7708 25.4348 16.2824 25.6409 15.9224 26.0078C15.5623 26.3748 15.36 26.8724 15.36 27.3913C15.36 27.9102 15.5623 28.4079 15.9224 28.7748C16.2824 29.1417 16.7708 29.3478 17.28 29.3478C17.7892 29.3478 18.2776 29.1417 18.6376 28.7748C18.9977 28.4079 19.2 27.9102 19.2 27.3913C19.2 26.8724 18.9977 26.3748 18.6376 26.0078C18.2776 25.6409 17.7892 25.4348 17.28 25.4348ZM28.8 25.4348C28.2908 25.4348 27.8024 25.6409 27.4424 26.0078C27.0823 26.3748 26.88 26.8724 26.88 27.3913C26.88 27.9102 27.0823 28.4079 27.4424 28.7748C27.8024 29.1417 28.2908 29.3478 28.8 29.3478C29.3092 29.3478 29.7976 29.1417 30.1576 28.7748C30.5177 28.4079 30.72 27.9102 30.72 27.3913C30.72 26.8724 30.5177 26.3748 30.1576 26.0078C29.7976 25.6409 29.3092 25.4348 28.8 25.4348Z" fill="#EE2E3D"/>
</svg>
