<svg width="26" height="26" viewBox="0 0 26 26" fill="none" xmlns="http://www.w3.org/2000/svg">
<path d="M12.8242 19.5874C17.0992 19.5874 18.168 15.3124 18.168 15.3124H7.48047C7.48047 15.3124 8.54922 19.5874 12.8242 19.5874Z" fill="#EE2E3D"/>
<path d="M12.8257 23.8624C18.7188 23.8624 23.5132 19.068 23.5132 13.1749C23.5132 7.2818 18.7188 2.48739 12.8257 2.48739C6.9326 2.48739 2.13818 7.2818 2.13818 13.1749C2.13818 19.068 6.9326 23.8624 12.8257 23.8624ZM12.8257 4.62489C17.5399 4.62489 21.3757 8.46064 21.3757 13.1749C21.3757 17.8891 17.5399 21.7249 12.8257 21.7249C8.11143 21.7249 4.27568 17.8891 4.27568 13.1749C4.27568 8.46064 8.11143 4.62489 12.8257 4.62489Z" fill="#EE2E3D"/>
<path d="M9.1214 13.8525L11.3123 11.6263C11.4614 11.4773 11.5792 11.3001 11.659 11.1051C11.7388 10.9101 11.779 10.7012 11.7772 10.4905C11.7754 10.2797 11.7317 10.0715 11.6486 9.87787C11.5655 9.68424 11.4446 9.50911 11.2931 9.36268C11.0012 9.07265 10.6084 8.90688 10.1969 8.90011C9.78551 8.89333 9.38742 9.04608 9.08613 9.32634C8.78034 9.04967 8.37904 8.90261 7.96689 8.91616C7.55474 8.92972 7.16397 9.10285 6.87703 9.39901C6.25074 10.0403 6.25822 11.0342 6.89733 11.6616L9.1214 13.8525ZM16.6027 13.8525L18.7936 11.6263C18.9426 11.4773 19.0605 11.3001 19.1403 11.1051C19.2201 10.9101 19.2603 10.7012 19.2585 10.4905C19.2567 10.2797 19.213 10.0715 19.1298 9.87787C19.0467 9.68424 18.9259 9.50911 18.7744 9.36268C18.4824 9.07265 18.0896 8.90688 17.6782 8.90011C17.2668 8.89333 16.8687 9.04608 16.5674 9.32634C16.2617 9.04922 15.8602 8.90176 15.4478 8.91512C15.0354 8.92848 14.6443 9.10161 14.3572 9.39795C13.7309 10.0392 13.7384 11.0331 14.3775 11.6605L16.6027 13.8525V13.8525Z" fill="#EE2E3D"/>
</svg>
