<svg width="1174" height="585" viewBox="0 0 1174 585" fill="none" xmlns="http://www.w3.org/2000/svg">
<g clip-path="url(#clip0)">
<path fill-rule="evenodd" clip-rule="evenodd" d="M281.985 275.59C331.519 236.666 425.686 332.556 261.038 411.967C127.811 286.812 246.417 223.595 281.985 275.59Z" fill="black"/>
<g clip-path="url(#clip1)">
<path fill-rule="evenodd" clip-rule="evenodd" d="M280.547 284.956C322.237 253.476 402.308 332.067 263.493 395.988C150.259 293.361 250.228 242.416 280.547 284.956Z" fill="#D90404"/>
<g clip-path="url(#clip2)">
<path fill-rule="evenodd" clip-rule="evenodd" d="M307.384 303.185C312.294 294.428 332.017 302.782 312.641 324.537C285.38 314.264 298.97 297.708 307.384 303.185Z" fill="black"/>
<g clip-path="url(#clip3)">
<path fill-rule="evenodd" clip-rule="evenodd" d="M307.746 304.651C311.956 297.469 328.546 304.14 312.025 322.035C289.085 313.855 300.682 300.245 307.746 304.651Z" fill="white"/>
</g>
</g>
</g>
</g>
<g clip-path="url(#clip4)">
<path fill-rule="evenodd" clip-rule="evenodd" d="M185.966 313.292C216.774 258.343 340.526 310.764 218.946 447.269C47.8966 382.809 133.171 278.923 185.966 313.292Z" fill="black"/>
<g clip-path="url(#clip5)">
<path fill-rule="evenodd" clip-rule="evenodd" d="M188.232 322.494C214.652 277.428 318.749 319.283 215.083 431.571C71.1398 380.244 143.911 294.842 188.232 322.494Z" fill="white"/>
<g clip-path="url(#clip6)">
<path fill-rule="evenodd" clip-rule="evenodd" d="M230.829 329.973C238.669 323.812 253.572 338.988 227.514 351.557C206.428 331.749 225.2 321.743 230.829 329.973Z" fill="black"/>
<g clip-path="url(#clip7)">
<path fill-rule="evenodd" clip-rule="evenodd" d="M230.602 331.455C237.2 326.473 249.872 338.911 227.903 349.028C209.981 332.785 225.803 324.722 230.602 331.455Z" fill="#D90404"/>
</g>
</g>
</g>
</g>
<path d="M244.697 538.82C210.696 551.427 178.986 557.731 149.569 557.731C116.331 557.731 89.3976 548.944 68.7673 531.37C48.1371 513.796 37.822 485.716 37.822 447.13V263.177C37.822 234.142 41.8335 212.175 49.8563 197.275C58.2612 182.375 70.8686 169.768 87.6784 159.453C104.488 149.902 125.118 145.127 149.569 145.127C179.368 145.127 206.302 151.43 230.371 164.038L215.471 208.736C197.133 201.86 177.458 198.421 156.446 198.421C138.108 198.421 122.444 203.388 109.455 213.321C96.4653 222.872 89.9706 237.771 89.9706 258.02V445.984C89.9706 485.334 112.32 505.009 157.019 505.009C179.941 505.009 206.302 500.233 236.101 490.682L244.697 538.82Z" fill="black"/>
<path d="M537.213 328.149C537.213 307.9 529.668 297.776 514.577 297.776C508.464 297.776 501.683 299.209 494.233 302.074L487.357 304.94C488.121 306.468 488.694 308.569 489.076 311.243C489.649 313.727 489.935 316.114 489.935 318.407V419.265H463.861V328.722C463.861 318.407 461.282 310.67 456.125 305.513C450.967 300.355 444.282 297.776 436.068 297.776C427.472 297.776 418.971 300.26 410.566 305.226V419.265H384.492V275.713H408.274L409.993 280.298C418.78 275.713 428.045 273.421 437.787 273.421C444.473 273.421 450.776 274.567 456.698 276.86C462.811 279.152 468.064 282.59 472.457 287.175C475.131 285.647 479.143 283.545 484.491 280.871C495.762 275.713 506.65 273.135 517.156 273.135C530.718 273.135 541.798 277.337 550.393 285.742C558.989 293.956 563.287 305.417 563.287 320.126V419.265H537.213V328.149ZM596.312 275.713H621.24L621.813 282.017C624.679 279.534 628.786 277.528 634.134 276C639.483 274.281 644.736 273.421 649.893 273.421C667.658 273.421 681.125 278.579 690.294 288.894C699.654 299.209 704.334 312.58 704.334 329.008V368.836C704.334 386.219 699.463 399.59 689.721 408.95C679.979 418.119 667.085 422.704 651.04 422.704C643.972 422.704 638.432 422.035 634.421 420.698C630.409 419.552 626.398 417.546 622.386 414.681V473.133L596.312 479.437V275.713ZM678.26 327.862C678.26 318.12 675.872 310.861 671.097 306.086C666.321 301.119 659.635 298.636 651.04 298.636C642.444 298.636 635.567 301.024 630.409 305.799C625.252 310.575 622.578 317.451 622.386 326.429V367.69C622.386 376.859 624.679 384.118 629.263 389.466C634.039 394.624 641.298 397.202 651.04 397.202C660.4 397.202 667.276 394.624 671.67 389.466C676.063 384.118 678.26 375.999 678.26 365.111V327.862ZM835.906 419.265C815.275 421.367 800.376 422.417 791.207 422.417C771.15 422.417 755.199 418.692 743.356 411.242C731.513 403.793 725.591 390.326 725.591 370.842V347.06C725.591 328.149 732.181 315.446 745.362 308.951C751.666 305.895 759.115 304.367 767.711 304.367C775.352 304.367 783.088 305.513 790.92 307.805C798.752 310.097 805.056 312.771 809.831 315.828C809.831 307.805 806.775 301.788 800.662 297.776C794.55 293.765 785.763 291.759 774.301 291.759L776.307 273.421C794.645 273.421 808.112 276.382 816.708 282.304C825.495 288.034 830.843 294.911 832.754 302.934C834.855 310.957 835.906 321.272 835.906 333.879V419.265ZM809.831 341.902C804.865 339.037 798.848 336.458 791.78 334.166C784.712 331.873 778.122 330.727 772.009 330.727C758.447 330.727 751.666 337.127 751.666 349.925V368.836C751.666 388.511 764.273 398.349 789.488 398.349C795.6 398.349 802.381 397.776 809.831 396.629V341.902ZM898.918 422.99C884.782 421.844 874.754 417.642 868.832 410.383C862.91 403.124 859.949 393.478 859.949 381.443V218.694H886.31V275.713H916.109L909.233 300.355H886.31V381.443C886.31 388.129 888.029 393.096 891.468 396.343C894.906 399.399 899.968 401.405 906.654 402.36L898.918 422.99ZM1028.63 409.237C1021.75 413.63 1013.92 416.973 1005.13 419.265C996.346 421.558 987.559 422.704 978.772 422.704C964.637 422.704 953.367 419.265 944.962 412.389C936.748 405.321 932.641 394.815 932.641 380.87V322.131C932.641 306.659 937.416 294.624 946.967 286.029C956.71 277.433 969.508 273.135 985.363 273.135C1001.22 273.135 1013.54 277.433 1022.33 286.029C1031.3 294.433 1035.79 306.181 1035.79 321.272V362.532L959.002 366.83V378.005C959.002 384.691 960.912 389.848 964.732 393.478C968.744 396.916 974.283 398.635 981.351 398.635C991.857 398.635 1004.37 394.815 1018.89 387.174L1028.63 409.237ZM1009.43 320.985C1009.43 313.153 1006.95 307.423 1001.98 303.793C997.015 299.973 991.38 298.063 985.076 298.063C976.862 298.063 970.463 300.355 965.878 304.94C961.294 309.333 959.002 315.159 959.002 322.418V342.475L1009.43 339.61V320.985ZM1152.87 409.237C1145.99 413.63 1138.16 416.973 1129.37 419.265C1120.58 421.558 1111.8 422.704 1103.01 422.704C1088.87 422.704 1077.6 419.265 1069.2 412.389C1060.99 405.321 1056.88 394.815 1056.88 380.87V322.131C1056.88 306.659 1061.65 294.624 1071.21 286.029C1080.95 277.433 1093.75 273.135 1109.6 273.135C1125.46 273.135 1137.78 277.433 1146.56 286.029C1155.54 294.433 1160.03 306.181 1160.03 321.272V362.532L1083.24 366.83V378.005C1083.24 384.691 1085.15 389.848 1088.97 393.478C1092.98 396.916 1098.52 398.635 1105.59 398.635C1116.1 398.635 1128.61 394.815 1143.12 387.174L1152.87 409.237ZM1133.67 320.985C1133.67 313.153 1131.19 307.423 1126.22 303.793C1121.25 299.973 1115.62 298.063 1109.31 298.063C1101.1 298.063 1094.7 300.355 1090.12 304.94C1085.53 309.333 1083.24 315.159 1083.24 322.418V342.475L1133.67 339.61V320.985Z" fill="black"/>
<path d="M986.429 462.898H1007.06C1012.28 462.898 1016.45 464.267 1019.57 467.005C1022.76 469.743 1024.35 473.85 1024.35 479.326C1024.35 481.809 1023.93 484.197 1023.11 486.489C1022.28 488.718 1020.59 490.691 1018.04 492.411L1017.95 492.602V492.697C1020.75 493.971 1023.07 496.04 1024.92 498.905C1026.83 501.707 1027.79 505.368 1027.79 509.889C1027.79 515.301 1026.26 519.981 1023.2 523.929C1020.14 527.813 1015.11 529.755 1008.11 529.755H986.429V462.898ZM1005.63 490.309C1009.19 490.309 1011.93 489.45 1013.84 487.731C1015.81 486.011 1016.8 483.369 1016.8 479.803C1016.8 475.983 1015.78 473.34 1013.75 471.876C1011.71 470.348 1008.94 469.584 1005.44 469.584H993.306V490.309H1005.63ZM1006.58 523.356C1010.85 523.356 1014.16 522.369 1016.52 520.395C1018.93 518.421 1020.14 514.824 1020.14 509.602C1020.14 505.4 1018.93 502.248 1016.52 500.147C1014.16 498.046 1011.29 496.995 1007.92 496.995H993.306V523.356H1006.58ZM1038.57 462.898H1070.47V469.488H1045.44V490.309H1062.16L1059.96 496.995H1045.44V523.547H1070.28V529.755H1038.57V462.898ZM1090.99 469.393H1075.52V462.898H1113.91V469.393H1097.87V529.755H1090.99V469.393ZM1140.41 508.17H1120.55L1114.25 529.755H1106.8L1126.47 462.898H1134.4L1154.74 529.755H1147.01L1140.41 508.17ZM1122.36 501.102H1138.7L1130.39 473.977L1122.36 501.102Z" fill="black"/>
<defs>
<clipPath id="clip0">
<rect width="155.204" height="155.204" fill="white" transform="translate(207.296 250.714) rotate(8.73233)"/>
</clipPath>
<clipPath id="clip1">
<rect width="131.327" height="131.327" fill="white" transform="translate(217.284 264.327) rotate(8.73233)"/>
</clipPath>
<clipPath id="clip2">
<rect width="24.735" height="24.735" fill="white" transform="translate(294.871 304.091) rotate(-13.8292)"/>
</clipPath>
<clipPath id="clip3">
<rect width="20.9296" height="20.9296" fill="white" transform="translate(297.173 305.484) rotate(-13.8292)"/>
</clipPath>
<clipPath id="clip4">
<rect width="155.204" height="155.204" fill="white" transform="translate(107.449 318.977) rotate(-13.8292)"/>
</clipPath>
<clipPath id="clip5">
<rect width="131.327" height="131.327" fill="white" transform="translate(121.895 327.716) rotate(-13.8292)"/>
</clipPath>
<clipPath id="clip6">
<rect width="24.5637" height="24.5637" fill="white" transform="translate(219.008 326.036) rotate(8.73233)"/>
</clipPath>
<clipPath id="clip7">
<rect width="20.7847" height="20.7847" fill="white" transform="translate(220.589 328.19) rotate(8.73233)"/>
</clipPath>
</defs>
</svg>
