<svg width="36" height="40" viewBox="0 0 36 40" fill="none" xmlns="http://www.w3.org/2000/svg">
<path fill-rule="evenodd" clip-rule="evenodd" d="M12.3948 32.4165C10.4549 32.4165 7.84966 31.2277 6.52785 29.2765C0.19173 29.2765 0 39.6045 0 39.6045H24.67C24.6723 39.6045 25.1663 29.2341 18.0452 29.2341C16.7279 31.2065 14.3392 32.4165 12.3948 32.4165Z" fill="white"/>
<path fill-rule="evenodd" clip-rule="evenodd" d="M17.84 16.476C17.84 19.7881 15.3476 26.1211 12.2709 26.1211C9.19415 26.1211 6.70166 19.7881 6.70166 16.476C6.70166 13.1692 9.1919 10.4819 12.2709 10.4819C15.3476 10.4819 17.84 13.1692 17.84 16.476V16.476Z" fill="white"/>
<path fill-rule="evenodd" clip-rule="evenodd" d="M28.1911 0C23.8828 0 20.3843 3.06585 20.3843 6.85713C20.3843 10.3148 23.3031 13.1636 27.0858 13.6375L24.8617 18.4348L31.0783 13.2218C33.9588 12.2131 36.0001 9.74559 36.0001 6.85713C35.9979 3.06585 32.5039 0 28.1911 0V0Z" fill="white"/>
</svg>
