<svg width="115" height="148" viewBox="0 0 115 148" fill="none" xmlns="http://www.w3.org/2000/svg">
<path fill-rule="evenodd" clip-rule="evenodd" d="M106.6 0H8.2C6.02522 0 3.93952 0.863926 2.40172 2.40172C0.863926 3.93952 0 6.02523 0 8.2V139.4C0 141.575 0.863926 143.66 2.40172 145.198C3.93952 146.736 6.02522 147.6 8.2 147.6H106.6C108.775 147.6 110.86 146.736 112.398 145.198C113.936 143.66 114.8 141.575 114.8 139.4V8.2C114.8 6.02523 113.936 3.93952 112.398 2.40172C110.86 0.863926 108.775 0 106.6 0ZM82 114.8H32.8V98.4H82V114.8ZM82 82H32.8V65.6H82V82ZM82 49.2H32.8V32.8H82V49.2Z" fill="#F8F9FC"/>
</svg>
