<svg width="1440" height="752" viewBox="0 0 1440 752" fill="none" xmlns="http://www.w3.org/2000/svg">
<rect width="1440" height="752" fill="white"/>
<g clip-path="url(#clip0)">
<rect width="1440" height="752" fill="white"/>
<rect width="1440" height="1024" fill="black"/>
<g clip-path="url(#clip1)">
<path fill-rule="evenodd" clip-rule="evenodd" d="M412.48 313.074C462.098 274.084 556.427 370.138 391.497 449.685C258.042 324.316 376.851 260.99 412.48 313.074Z" fill="white"/>
<g clip-path="url(#clip2)">
<path fill-rule="evenodd" clip-rule="evenodd" d="M411.04 322.457C452.8 290.923 533.009 369.648 393.957 433.678C280.529 330.876 380.668 279.844 411.04 322.457Z" fill="#D90404"/>
<g clip-path="url(#clip3)">
<path fill-rule="evenodd" clip-rule="evenodd" d="M437.922 340.717C442.841 331.945 462.597 340.313 443.188 362.105C415.881 351.815 429.494 335.23 437.922 340.717Z" fill="white"/>
<g clip-path="url(#clip4)">
<path fill-rule="evenodd" clip-rule="evenodd" d="M438.284 342.186C442.502 334.991 459.121 341.673 442.571 359.599C419.592 351.405 431.209 337.771 438.284 342.186Z" fill="black"/>
</g>
</g>
</g>
</g>
<g clip-path="url(#clip5)">
<path fill-rule="evenodd" clip-rule="evenodd" d="M316.297 350.841C347.158 295.798 471.121 348.309 349.334 485.047C177.992 420.477 263.412 316.414 316.297 350.841Z" fill="white"/>
<g clip-path="url(#clip6)">
<path fill-rule="evenodd" clip-rule="evenodd" d="M318.566 360.059C345.031 314.916 449.306 356.842 345.463 469.322C201.274 417.907 274.169 332.359 318.566 360.059Z" fill="black"/>
<g clip-path="url(#clip7)">
<path fill-rule="evenodd" clip-rule="evenodd" d="M361.236 367.55C369.089 361.379 384.018 376.582 357.915 389.171C336.794 369.329 355.597 359.307 361.236 367.55Z" fill="white"/>
<g clip-path="url(#clip8)">
<path fill-rule="evenodd" clip-rule="evenodd" d="M361.007 369.035C367.616 364.045 380.311 376.504 358.303 386.638C340.352 370.368 356.2 362.291 361.007 369.035Z" fill="#D90404"/>
</g>
</g>
</g>
</g>
<path d="M379.115 581.797C345.056 594.426 313.292 600.74 283.825 600.74C250.53 600.74 223.55 591.938 202.885 574.335C182.219 556.731 171.887 528.603 171.887 489.951V305.683C171.887 276.599 175.905 254.594 183.942 239.669C192.361 224.744 204.99 212.115 221.828 201.782C238.667 192.215 259.332 187.431 283.825 187.431C313.675 187.431 340.655 193.745 364.764 206.374L349.839 251.15C331.47 244.261 311.761 240.817 290.713 240.817C272.344 240.817 256.653 245.792 243.642 255.742C230.63 265.309 224.124 280.234 224.124 300.517V488.802C224.124 528.22 246.512 547.929 291.287 547.929C314.249 547.929 340.655 543.145 370.505 533.578L379.115 581.797Z" fill="white"/>
<path d="M668.145 366.251C668.145 345.969 660.587 335.827 645.471 335.827C639.348 335.827 632.555 337.262 625.092 340.132L618.204 343.003C618.969 344.533 619.543 346.638 619.926 349.317C620.5 351.805 620.787 354.196 620.787 356.493V457.524H594.668V366.825C594.668 356.493 592.085 348.743 586.919 343.577C581.752 338.41 575.055 335.827 566.827 335.827C558.217 335.827 549.702 338.315 541.282 343.29V457.524H515.163V313.727H538.986L540.708 318.319C549.51 313.727 558.791 311.43 568.549 311.43C575.246 311.43 581.561 312.578 587.493 314.875C593.616 317.171 598.878 320.615 603.279 325.207C605.958 323.677 609.976 321.572 615.334 318.893C626.623 313.727 637.53 311.143 648.054 311.143C661.64 311.143 672.738 315.353 681.348 323.772C689.959 332 694.264 343.481 694.264 358.215V457.524H668.145V366.251ZM727.346 313.727H752.316L752.89 320.041C755.761 317.554 759.875 315.544 765.232 314.014C770.59 312.291 775.852 311.43 781.018 311.43C798.814 311.43 812.304 316.597 821.488 326.93C830.864 337.262 835.552 350.657 835.552 367.112V407.008C835.552 424.421 830.673 437.815 820.914 447.191C811.156 456.376 798.24 460.968 782.166 460.968C775.087 460.968 769.538 460.298 765.519 458.959C761.501 457.811 757.483 455.802 753.464 452.931V511.484L727.346 517.798V313.727ZM809.433 365.964C809.433 356.206 807.042 348.934 802.258 344.151C797.474 339.176 790.777 336.688 782.166 336.688C773.556 336.688 766.667 339.08 761.501 343.864C756.335 348.647 753.656 355.536 753.464 364.529V405.86C753.464 415.045 755.761 422.316 760.353 427.674C765.137 432.84 772.408 435.423 782.166 435.423C791.542 435.423 798.431 432.84 802.832 427.674C807.233 422.316 809.433 414.184 809.433 403.277V365.964ZM967.348 457.524C946.683 459.629 931.758 460.681 922.573 460.681C902.482 460.681 886.504 456.95 874.641 449.487C862.777 442.025 856.846 428.535 856.846 409.017V385.195C856.846 366.251 863.447 353.527 876.65 347.021C882.964 343.959 890.427 342.429 899.038 342.429C906.691 342.429 914.441 343.577 922.286 345.873C930.131 348.169 936.446 350.848 941.23 353.909C941.23 345.873 938.168 339.845 932.045 335.827C925.922 331.809 917.12 329.8 905.639 329.8L907.648 311.43C926.018 311.43 939.507 314.396 948.118 320.328C956.92 326.068 962.278 332.957 964.191 340.994C966.296 349.03 967.348 359.363 967.348 371.992V457.524ZM941.23 380.028C936.255 377.158 930.227 374.575 923.147 372.279C916.067 369.983 909.466 368.834 903.343 368.834C889.757 368.834 882.964 375.245 882.964 388.065V407.008C882.964 426.717 895.593 436.571 920.851 436.571C926.974 436.571 933.767 435.997 941.23 434.849V380.028ZM1030.47 461.255C1016.31 460.107 1006.26 455.897 1000.33 448.626C994.399 441.355 991.433 431.692 991.433 419.637V256.609H1017.84V313.727H1047.69L1040.8 338.41H1017.84V419.637C1017.84 426.334 1019.56 431.309 1023.01 434.562C1026.45 437.624 1031.52 439.633 1038.22 440.59L1030.47 461.255ZM1160.4 447.478C1153.51 451.879 1145.67 455.228 1136.87 457.524C1128.06 459.82 1119.26 460.968 1110.46 460.968C1096.3 460.968 1085.01 457.524 1076.59 450.635C1068.36 443.555 1064.25 433.031 1064.25 419.063V360.224C1064.25 344.725 1069.03 332.67 1078.6 324.059C1088.36 315.449 1101.18 311.143 1117.06 311.143C1132.94 311.143 1145.28 315.449 1154.09 324.059C1163.08 332.479 1167.58 344.246 1167.58 359.363V400.694L1090.66 404.999V416.193C1090.66 422.89 1092.57 428.056 1096.4 431.692C1100.41 435.136 1105.96 436.858 1113.04 436.858C1123.57 436.858 1136.1 433.031 1150.64 425.378L1160.4 447.478ZM1141.17 359.076C1141.17 351.231 1138.68 345.49 1133.71 341.855C1128.73 338.028 1123.09 336.114 1116.77 336.114C1108.55 336.114 1102.14 338.41 1097.54 343.003C1092.95 347.404 1090.66 353.24 1090.66 360.511V380.602L1141.17 377.732V359.076ZM1284.85 447.478C1277.96 451.879 1270.12 455.228 1261.32 457.524C1252.51 459.82 1243.71 460.968 1234.91 460.968C1220.75 460.968 1209.46 457.524 1201.04 450.635C1192.81 443.555 1188.7 433.031 1188.7 419.063V360.224C1188.7 344.725 1193.48 332.67 1203.05 324.059C1212.81 315.449 1225.63 311.143 1241.51 311.143C1257.39 311.143 1269.73 315.449 1278.54 324.059C1287.53 332.479 1292.03 344.246 1292.03 359.363V400.694L1215.11 404.999V416.193C1215.11 422.89 1217.02 428.056 1220.85 431.692C1224.86 435.136 1230.41 436.858 1237.49 436.858C1248.02 436.858 1260.55 433.031 1275.09 425.378L1284.85 447.478ZM1265.62 359.076C1265.62 351.231 1263.13 345.49 1258.16 341.855C1253.18 338.028 1247.54 336.114 1241.22 336.114C1233 336.114 1226.59 338.41 1221.99 343.003C1217.4 347.404 1215.11 353.24 1215.11 360.511V380.602L1265.62 377.732V359.076Z" fill="white"/>
<path d="M1122.12 496.559H1142.78C1148.01 496.559 1152.19 497.931 1155.31 500.673C1158.5 503.416 1160.1 507.53 1160.1 513.015C1160.1 515.503 1159.68 517.894 1158.85 520.191C1158.02 522.423 1156.33 524.4 1153.78 526.122L1153.69 526.314V526.409C1156.49 527.685 1158.82 529.758 1160.67 532.628C1162.59 535.435 1163.54 539.102 1163.54 543.631C1163.54 549.052 1162.01 553.74 1158.95 557.695C1155.89 561.585 1150.85 563.531 1143.83 563.531H1122.12V496.559ZM1141.35 524.017C1144.92 524.017 1147.66 523.156 1149.57 521.434C1151.55 519.712 1152.54 517.065 1152.54 513.493C1152.54 509.666 1151.52 507.02 1149.48 505.553C1147.44 504.022 1144.66 503.256 1141.15 503.256H1129V524.017H1141.35ZM1142.3 557.121C1146.58 557.121 1149.89 556.132 1152.25 554.155C1154.68 552.177 1155.89 548.574 1155.89 543.344C1155.89 539.134 1154.68 535.977 1152.25 533.872C1149.89 531.767 1147.02 530.715 1143.64 530.715H1129V557.121H1142.3ZM1174.34 496.559H1206.3V503.161H1181.23V524.017H1197.97L1195.77 530.715H1181.23V557.312H1206.11V563.531H1174.34V496.559ZM1226.85 503.065H1211.35V496.559H1249.81V503.065H1233.74V563.531H1226.85V503.065ZM1276.36 541.908H1256.46L1250.15 563.531H1242.69L1262.4 496.559H1270.34L1290.72 563.531H1282.97L1276.36 541.908ZM1258.28 534.829H1274.64L1266.32 507.657L1258.28 534.829Z" fill="white"/>
</g>
<defs>
<clipPath id="clip0">
<rect width="1440" height="752" fill="white"/>
</clipPath>
<clipPath id="clip1">
<rect width="155.469" height="155.469" fill="white" transform="translate(337.664 288.156) rotate(8.73233)"/>
</clipPath>
<clipPath id="clip2">
<rect width="131.551" height="131.551" fill="white" transform="translate(347.669 301.793) rotate(8.73233)"/>
</clipPath>
<clipPath id="clip3">
<rect width="24.7773" height="24.7773" fill="white" transform="translate(425.388 341.624) rotate(-13.8292)"/>
</clipPath>
<clipPath id="clip4">
<rect width="20.9654" height="20.9654" fill="white" transform="translate(427.694 343.02) rotate(-13.8292)"/>
</clipPath>
<clipPath id="clip5">
<rect width="155.469" height="155.469" fill="white" transform="translate(237.646 356.536) rotate(-13.8292)"/>
</clipPath>
<clipPath id="clip6">
<rect width="131.551" height="131.551" fill="white" transform="translate(252.116 365.29) rotate(-13.8292)"/>
</clipPath>
<clipPath id="clip7">
<rect width="24.6057" height="24.6057" fill="white" transform="translate(349.395 363.607) rotate(8.73233)"/>
</clipPath>
<clipPath id="clip8">
<rect width="20.8202" height="20.8202" fill="white" transform="translate(350.978 365.765) rotate(8.73233)"/>
</clipPath>
</defs>
</svg>
