<svg width="24" height="22" viewBox="0 0 24 22" fill="none" xmlns="http://www.w3.org/2000/svg">
<path d="M23.04 19.91H0.96C0.429 19.91 0 20.3032 0 20.79V21.78C0 21.901 0.108 22 0.24 22H23.76C23.892 22 24 21.901 24 21.78V20.79C24 20.3032 23.571 19.91 23.04 19.91ZM4.371 17.6C4.431 17.6 4.491 17.5945 4.551 17.5863L9.597 16.775C9.657 16.764 9.714 16.7392 9.756 16.698L22.473 5.04075C22.5008 5.01531 22.5229 4.98509 22.5379 4.95182C22.553 4.91855 22.5607 4.88289 22.5607 4.84688C22.5607 4.81086 22.553 4.7752 22.5379 4.74193C22.5229 4.70866 22.5008 4.67844 22.473 4.653L17.487 0.07975C17.43 0.0275 17.355 0 17.274 0C17.193 0 17.118 0.0275 17.061 0.07975L4.344 11.737C4.299 11.7782 4.272 11.8277 4.26 11.8827L3.375 16.5082C3.34582 16.6556 3.35624 16.8072 3.40538 16.95C3.45452 17.0928 3.54088 17.2224 3.657 17.3277C3.855 17.5037 4.104 17.6 4.371 17.6Z" fill="#6A6A6A"/>
</svg>
