<svg width="48" height="48" viewBox="0 0 48 48" fill="none" xmlns="http://www.w3.org/2000/svg">
<path d="M22 44C10.954 44 2 35.046 2 24C2 12.954 10.954 4 22 4C33.046 4 42 12.954 42 24C42 35.046 33.046 44 22 44ZM22 40C26.2435 40 30.3131 38.3143 33.3137 35.3137C36.3143 32.3131 38 28.2435 38 24C38 19.7565 36.3143 15.6869 33.3137 12.6863C30.3131 9.68571 26.2435 8 22 8C17.7565 8 13.6869 9.68571 10.6863 12.6863C7.68571 15.6869 6 19.7565 6 24C6 28.2435 7.68571 32.3131 10.6863 35.3137C13.6869 38.3143 17.7565 40 22 40V40ZM14 26H30C30 28.1217 29.1571 30.1566 27.6569 31.6569C26.1566 33.1571 24.1217 34 22 34C19.8783 34 17.8434 33.1571 16.3431 31.6569C14.8429 30.1566 14 28.1217 14 26V26ZM14 22C13.2044 22 12.4413 21.6839 11.8787 21.1213C11.3161 20.5587 11 19.7956 11 19C11 18.2044 11.3161 17.4413 11.8787 16.8787C12.4413 16.3161 13.2044 16 14 16C14.7956 16 15.5587 16.3161 16.1213 16.8787C16.6839 17.4413 17 18.2044 17 19C17 19.7956 16.6839 20.5587 16.1213 21.1213C15.5587 21.6839 14.7956 22 14 22ZM30 22C29.2044 22 28.4413 21.6839 27.8787 21.1213C27.3161 20.5587 27 19.7956 27 19C27 18.2044 27.3161 17.4413 27.8787 16.8787C28.4413 16.3161 29.2044 16 30 16C30.7956 16 31.5587 16.3161 32.1213 16.8787C32.6839 17.4413 33 18.2044 33 19C33 19.7956 32.6839 20.5587 32.1213 21.1213C31.5587 21.6839 30.7956 22 30 22Z" fill="#EE2E3D"/>
</svg>
