<svg width="190" height="235" viewBox="0 0 190 235" fill="none" xmlns="http://www.w3.org/2000/svg">
<path d="M33.5078 11.3906C33.3672 12.5938 32.9219 13.5234 32.1719 14.1797C31.4271 14.8307 30.4349 15.1562 29.1953 15.1562C27.8516 15.1562 26.7734 14.6745 25.9609 13.7109C25.1536 12.7474 24.75 11.4583 24.75 9.84375V8.75C24.75 7.69271 24.9375 6.76302 25.3125 5.96094C25.6927 5.15885 26.2292 4.54427 26.9219 4.11719C27.6146 3.6849 28.4167 3.46875 29.3281 3.46875C30.5365 3.46875 31.5052 3.80729 32.2344 4.48438C32.9635 5.15625 33.388 6.08854 33.5078 7.28125H32C31.8698 6.375 31.5859 5.71875 31.1484 5.3125C30.7161 4.90625 30.1094 4.70312 29.3281 4.70312C28.3698 4.70312 27.6172 5.05729 27.0703 5.76562C26.5286 6.47396 26.2578 7.48177 26.2578 8.78906V9.89062C26.2578 11.125 26.5156 12.1068 27.0312 12.8359C27.5469 13.5651 28.2682 13.9297 29.1953 13.9297C30.0286 13.9297 30.6667 13.7422 31.1094 13.3672C31.5573 12.987 31.8542 12.3281 32 11.3906H33.5078ZM34.9531 10.6953C34.9531 9.86719 35.1146 9.1224 35.4375 8.46094C35.7656 7.79948 36.2188 7.28906 36.7969 6.92969C37.3802 6.57031 38.0443 6.39062 38.7891 6.39062C39.9401 6.39062 40.8698 6.78906 41.5781 7.58594C42.2917 8.38281 42.6484 9.44271 42.6484 10.7656V10.8672C42.6484 11.6901 42.4896 12.4297 42.1719 13.0859C41.8594 13.737 41.4089 14.2448 40.8203 14.6094C40.237 14.974 39.5651 15.1562 38.8047 15.1562C37.6589 15.1562 36.7292 14.7578 36.0156 13.9609C35.3073 13.1641 34.9531 12.1094 34.9531 10.7969V10.6953ZM36.4062 10.8672C36.4062 11.8047 36.6224 12.5573 37.0547 13.125C37.4922 13.6927 38.0755 13.9766 38.8047 13.9766C39.5391 13.9766 40.1224 13.6901 40.5547 13.1172C40.987 12.5391 41.2031 11.7318 41.2031 10.6953C41.2031 9.76823 40.9818 9.01823 40.5391 8.44531C40.1016 7.86719 39.5182 7.57812 38.7891 7.57812C38.0755 7.57812 37.5 7.86198 37.0625 8.42969C36.625 8.9974 36.4062 9.8099 36.4062 10.8672ZM45.8203 6.54688L45.8594 7.48438C46.4792 6.75521 47.3151 6.39062 48.3672 6.39062C49.5495 6.39062 50.3542 6.84375 50.7812 7.75C51.0625 7.34375 51.4271 7.01562 51.875 6.76562C52.3281 6.51562 52.862 6.39062 53.4766 6.39062C55.3307 6.39062 56.2734 7.3724 56.3047 9.33594V15H54.8594V9.42188C54.8594 8.81771 54.7214 8.36719 54.4453 8.07031C54.1693 7.76823 53.7057 7.61719 53.0547 7.61719C52.5182 7.61719 52.0729 7.77865 51.7188 8.10156C51.3646 8.41927 51.1589 8.84896 51.1016 9.39062V15H49.6484V9.46094C49.6484 8.23177 49.0469 7.61719 47.8438 7.61719C46.8958 7.61719 46.2474 8.02083 45.8984 8.82812V15H44.4531V6.54688H45.8203ZM59.8516 6.54688L59.8906 7.48438C60.5104 6.75521 61.3464 6.39062 62.3984 6.39062C63.5807 6.39062 64.3854 6.84375 64.8125 7.75C65.0938 7.34375 65.4583 7.01562 65.9062 6.76562C66.3594 6.51562 66.8932 6.39062 67.5078 6.39062C69.362 6.39062 70.3047 7.3724 70.3359 9.33594V15H68.8906V9.42188C68.8906 8.81771 68.7526 8.36719 68.4766 8.07031C68.2005 7.76823 67.737 7.61719 67.0859 7.61719C66.5495 7.61719 66.1042 7.77865 65.75 8.10156C65.3958 8.41927 65.1901 8.84896 65.1328 9.39062V15H63.6797V9.46094C63.6797 8.23177 63.0781 7.61719 61.875 7.61719C60.9271 7.61719 60.2786 8.02083 59.9297 8.82812V15H58.4844V6.54688H59.8516ZM77.7422 14.1641C77.1797 14.8255 76.3542 15.1562 75.2656 15.1562C74.3646 15.1562 73.6771 14.8958 73.2031 14.375C72.7344 13.849 72.4974 13.0729 72.4922 12.0469V6.54688H73.9375V12.0078C73.9375 13.2891 74.4583 13.9297 75.5 13.9297C76.6042 13.9297 77.3385 13.5182 77.7031 12.6953V6.54688H79.1484V15H77.7734L77.7422 14.1641ZM82.7188 6.54688L82.7656 7.60938C83.4115 6.79688 84.2552 6.39062 85.2969 6.39062C87.0833 6.39062 87.9844 7.39844 88 9.41406V15H86.5547V9.40625C86.5495 8.79688 86.4089 8.34635 86.1328 8.05469C85.862 7.76302 85.4375 7.61719 84.8594 7.61719C84.3906 7.61719 83.9792 7.74219 83.625 7.99219C83.2708 8.24219 82.9948 8.57031 82.7969 8.97656V15H81.3516V6.54688H82.7188ZM91.75 15H90.3047V6.54688H91.75V15ZM90.1875 4.30469C90.1875 4.07031 90.2578 3.8724 90.3984 3.71094C90.5443 3.54948 90.7578 3.46875 91.0391 3.46875C91.3203 3.46875 91.5339 3.54948 91.6797 3.71094C91.8255 3.8724 91.8984 4.07031 91.8984 4.30469C91.8984 4.53906 91.8255 4.73438 91.6797 4.89062C91.5339 5.04688 91.3203 5.125 91.0391 5.125C90.7578 5.125 90.5443 5.04688 90.3984 4.89062C90.2578 4.73438 90.1875 4.53906 90.1875 4.30469ZM97.4609 13.9766C97.9766 13.9766 98.4271 13.8203 98.8125 13.5078C99.1979 13.1953 99.4115 12.8047 99.4531 12.3359H100.82C100.794 12.8203 100.628 13.2812 100.32 13.7188C100.013 14.1562 99.6016 14.5052 99.0859 14.7656C98.5755 15.026 98.0339 15.1562 97.4609 15.1562C96.3099 15.1562 95.3932 14.7734 94.7109 14.0078C94.0339 13.237 93.6953 12.1849 93.6953 10.8516V10.6094C93.6953 9.78646 93.8464 9.05469 94.1484 8.41406C94.4505 7.77344 94.8828 7.27604 95.4453 6.92188C96.013 6.56771 96.6823 6.39062 97.4531 6.39062C98.401 6.39062 99.1875 6.67448 99.8125 7.24219C100.443 7.8099 100.779 8.54688 100.82 9.45312H99.4531C99.4115 8.90625 99.2031 8.45833 98.8281 8.10938C98.4583 7.75521 98 7.57812 97.4531 7.57812C96.7188 7.57812 96.1484 7.84375 95.7422 8.375C95.3411 8.90104 95.1406 9.66406 95.1406 10.6641V10.9375C95.1406 11.9115 95.3411 12.6615 95.7422 13.1875C96.1432 13.7135 96.7161 13.9766 97.4609 13.9766ZM107.664 15C107.581 14.8333 107.513 14.5365 107.461 14.1094C106.789 14.8073 105.987 15.1562 105.055 15.1562C104.221 15.1562 103.536 14.9219 103 14.4531C102.469 13.9792 102.203 13.3802 102.203 12.6562C102.203 11.776 102.536 11.0938 103.203 10.6094C103.875 10.1198 104.818 9.875 106.031 9.875H107.438V9.21094C107.438 8.70573 107.286 8.30469 106.984 8.00781C106.682 7.70573 106.237 7.55469 105.648 7.55469C105.133 7.55469 104.701 7.6849 104.352 7.94531C104.003 8.20573 103.828 8.52083 103.828 8.89062H102.375C102.375 8.46875 102.523 8.0625 102.82 7.67188C103.122 7.27604 103.529 6.96354 104.039 6.73438C104.555 6.50521 105.12 6.39062 105.734 6.39062C106.708 6.39062 107.471 6.63542 108.023 7.125C108.576 7.60938 108.862 8.27865 108.883 9.13281V13.0234C108.883 13.7995 108.982 14.4167 109.18 14.875V15H107.664ZM105.266 13.8984C105.719 13.8984 106.148 13.7812 106.555 13.5469C106.961 13.3125 107.255 13.0078 107.438 12.6328V10.8984H106.305C104.534 10.8984 103.648 11.4167 103.648 12.4531C103.648 12.9062 103.799 13.2604 104.102 13.5156C104.404 13.7708 104.792 13.8984 105.266 13.8984ZM113.109 4.5V6.54688H114.688V7.66406H113.109V12.9062C113.109 13.2448 113.18 13.5 113.32 13.6719C113.461 13.8385 113.701 13.9219 114.039 13.9219C114.206 13.9219 114.435 13.8906 114.727 13.8281V15C114.346 15.1042 113.977 15.1562 113.617 15.1562C112.971 15.1562 112.484 14.9609 112.156 14.5703C111.828 14.1797 111.664 13.625 111.664 12.9062V7.66406H110.125V6.54688H111.664V4.5H113.109ZM117.953 15H116.508V6.54688H117.953V15ZM116.391 4.30469C116.391 4.07031 116.461 3.8724 116.602 3.71094C116.747 3.54948 116.961 3.46875 117.242 3.46875C117.523 3.46875 117.737 3.54948 117.883 3.71094C118.029 3.8724 118.102 4.07031 118.102 4.30469C118.102 4.53906 118.029 4.73438 117.883 4.89062C117.737 5.04688 117.523 5.125 117.242 5.125C116.961 5.125 116.747 5.04688 116.602 4.89062C116.461 4.73438 116.391 4.53906 116.391 4.30469ZM119.891 10.6953C119.891 9.86719 120.052 9.1224 120.375 8.46094C120.703 7.79948 121.156 7.28906 121.734 6.92969C122.318 6.57031 122.982 6.39062 123.727 6.39062C124.878 6.39062 125.807 6.78906 126.516 7.58594C127.229 8.38281 127.586 9.44271 127.586 10.7656V10.8672C127.586 11.6901 127.427 12.4297 127.109 13.0859C126.797 13.737 126.346 14.2448 125.758 14.6094C125.174 14.974 124.503 15.1562 123.742 15.1562C122.596 15.1562 121.667 14.7578 120.953 13.9609C120.245 13.1641 119.891 12.1094 119.891 10.7969V10.6953ZM121.344 10.8672C121.344 11.8047 121.56 12.5573 121.992 13.125C122.43 13.6927 123.013 13.9766 123.742 13.9766C124.477 13.9766 125.06 13.6901 125.492 13.1172C125.924 12.5391 126.141 11.7318 126.141 10.6953C126.141 9.76823 125.919 9.01823 125.477 8.44531C125.039 7.86719 124.456 7.57812 123.727 7.57812C123.013 7.57812 122.438 7.86198 122 8.42969C121.562 8.9974 121.344 9.8099 121.344 10.8672ZM130.766 6.54688L130.812 7.60938C131.458 6.79688 132.302 6.39062 133.344 6.39062C135.13 6.39062 136.031 7.39844 136.047 9.41406V15H134.602V9.40625C134.596 8.79688 134.456 8.34635 134.18 8.05469C133.909 7.76302 133.484 7.61719 132.906 7.61719C132.438 7.61719 132.026 7.74219 131.672 7.99219C131.318 8.24219 131.042 8.57031 130.844 8.97656V15H129.398V6.54688H130.766ZM145.203 10.7578H141.391V9.57812H145.203V10.7578ZM157.781 4.4375L153.07 15H151.555L156.25 4.8125H150.094V3.625H157.781V4.4375ZM160.086 9.29688L160.664 3.625H166.492V4.96094H161.891L161.547 8.0625C162.104 7.73438 162.737 7.57031 163.445 7.57031C164.482 7.57031 165.305 7.91406 165.914 8.60156C166.523 9.28385 166.828 10.2083 166.828 11.375C166.828 12.5469 166.51 13.4714 165.875 14.1484C165.245 14.8203 164.362 15.1562 163.227 15.1562C162.221 15.1562 161.401 14.8776 160.766 14.3203C160.13 13.763 159.768 12.9922 159.68 12.0078H161.047C161.135 12.6589 161.367 13.151 161.742 13.4844C162.117 13.8125 162.612 13.9766 163.227 13.9766C163.898 13.9766 164.424 13.7474 164.805 13.2891C165.19 12.8307 165.383 12.1979 165.383 11.3906C165.383 10.6302 165.174 10.0208 164.758 9.5625C164.346 9.09896 163.797 8.86719 163.109 8.86719C162.479 8.86719 161.984 9.00521 161.625 9.28125L161.242 9.59375L160.086 9.29688ZM168.281 5.8125C168.281 5.13021 168.497 4.56771 168.93 4.125C169.367 3.68229 169.927 3.46094 170.609 3.46094C171.302 3.46094 171.862 3.6849 172.289 4.13281C172.721 4.57552 172.938 5.15104 172.938 5.85938V6.41406C172.938 7.10156 172.719 7.66406 172.281 8.10156C171.849 8.53385 171.297 8.75 170.625 8.75C169.948 8.75 169.388 8.53385 168.945 8.10156C168.503 7.66406 168.281 7.08333 168.281 6.35938V5.8125ZM169.359 6.41406C169.359 6.82031 169.474 7.15625 169.703 7.42188C169.932 7.68229 170.24 7.8125 170.625 7.8125C170.995 7.8125 171.292 7.6849 171.516 7.42969C171.745 7.17448 171.859 6.82552 171.859 6.38281V5.8125C171.859 5.40625 171.747 5.07031 171.523 4.80469C171.299 4.53906 170.995 4.40625 170.609 4.40625C170.224 4.40625 169.919 4.53906 169.695 4.80469C169.471 5.07031 169.359 5.41667 169.359 5.84375V6.41406ZM173.82 12.2109C173.82 11.5286 174.036 10.9688 174.469 10.5312C174.906 10.0885 175.466 9.86719 176.148 9.86719C176.831 9.86719 177.391 10.0859 177.828 10.5234C178.266 10.9609 178.484 11.5417 178.484 12.2656V12.8203C178.484 13.5026 178.266 14.0651 177.828 14.5078C177.396 14.9453 176.841 15.1641 176.164 15.1641C175.487 15.1641 174.927 14.9479 174.484 14.5156C174.042 14.0781 173.82 13.4974 173.82 12.7734V12.2109ZM174.898 12.8203C174.898 13.2318 175.013 13.5703 175.242 13.8359C175.471 14.0964 175.779 14.2266 176.164 14.2266C176.539 14.2266 176.839 14.099 177.062 13.8438C177.286 13.5833 177.398 13.2318 177.398 12.7891V12.2109C177.398 11.7995 177.284 11.4635 177.055 11.2031C176.831 10.9427 176.529 10.8125 176.148 10.8125C175.779 10.8125 175.477 10.9427 175.242 11.2031C175.013 11.4583 174.898 11.8047 174.898 12.2422V12.8203ZM170.953 14.1406L170.133 13.625L175.688 4.73438L176.508 5.25L170.953 14.1406Z" fill="black"/>
<path d="M35.5625 43.7422H30.6328V47.7734H36.3594V49H29.1328V37.625H36.2812V38.8594H30.6328V42.5156H35.5625V43.7422ZM39.3594 40.5469L39.3984 41.4844C40.0182 40.7552 40.8542 40.3906 41.9062 40.3906C43.0885 40.3906 43.8932 40.8438 44.3203 41.75C44.6016 41.3438 44.9661 41.0156 45.4141 40.7656C45.8672 40.5156 46.401 40.3906 47.0156 40.3906C48.8698 40.3906 49.8125 41.3724 49.8438 43.3359V49H48.3984V43.4219C48.3984 42.8177 48.2604 42.3672 47.9844 42.0703C47.7083 41.7682 47.2448 41.6172 46.5938 41.6172C46.0573 41.6172 45.612 41.7786 45.2578 42.1016C44.9036 42.4193 44.6979 42.849 44.6406 43.3906V49H43.1875V43.4609C43.1875 42.2318 42.5859 41.6172 41.3828 41.6172C40.4349 41.6172 39.7865 42.0208 39.4375 42.8281V49H37.9922V40.5469H39.3594ZM51.6484 44.6953C51.6484 43.8672 51.8099 43.1224 52.1328 42.4609C52.4609 41.7995 52.9141 41.2891 53.4922 40.9297C54.0755 40.5703 54.7396 40.3906 55.4844 40.3906C56.6354 40.3906 57.5651 40.7891 58.2734 41.5859C58.987 42.3828 59.3438 43.4427 59.3438 44.7656V44.8672C59.3438 45.6901 59.1849 46.4297 58.8672 47.0859C58.5547 47.737 58.1042 48.2448 57.5156 48.6094C56.9323 48.974 56.2604 49.1562 55.5 49.1562C54.3542 49.1562 53.4245 48.7578 52.7109 47.9609C52.0026 47.1641 51.6484 46.1094 51.6484 44.7969V44.6953ZM53.1016 44.8672C53.1016 45.8047 53.3177 46.5573 53.75 47.125C54.1875 47.6927 54.7708 47.9766 55.5 47.9766C56.2344 47.9766 56.8177 47.6901 57.25 47.1172C57.6823 46.5391 57.8984 45.7318 57.8984 44.6953C57.8984 43.7682 57.6771 43.0182 57.2344 42.4453C56.7969 41.8672 56.2135 41.5781 55.4844 41.5781C54.7708 41.5781 54.1953 41.862 53.7578 42.4297C53.3203 42.9974 53.1016 43.8099 53.1016 44.8672ZM63.1172 38.5V40.5469H64.6953V41.6641H63.1172V46.9062C63.1172 47.2448 63.1875 47.5 63.3281 47.6719C63.4688 47.8385 63.7083 47.9219 64.0469 47.9219C64.2135 47.9219 64.4427 47.8906 64.7344 47.8281V49C64.3542 49.1042 63.9844 49.1562 63.625 49.1562C62.9792 49.1562 62.4922 48.9609 62.1641 48.5703C61.8359 48.1797 61.6719 47.625 61.6719 46.9062V41.6641H60.1328V40.5469H61.6719V38.5H63.1172ZM67.9609 49H66.5156V40.5469H67.9609V49ZM66.3984 38.3047C66.3984 38.0703 66.4688 37.8724 66.6094 37.7109C66.7552 37.5495 66.9688 37.4688 67.25 37.4688C67.5312 37.4688 67.7448 37.5495 67.8906 37.7109C68.0365 37.8724 68.1094 38.0703 68.1094 38.3047C68.1094 38.5391 68.0365 38.7344 67.8906 38.8906C67.7448 39.0469 67.5312 39.125 67.25 39.125C66.9688 39.125 66.7552 39.0469 66.6094 38.8906C66.4688 38.7344 66.3984 38.5391 66.3984 38.3047ZM69.8984 44.6953C69.8984 43.8672 70.0599 43.1224 70.3828 42.4609C70.7109 41.7995 71.1641 41.2891 71.7422 40.9297C72.3255 40.5703 72.9896 40.3906 73.7344 40.3906C74.8854 40.3906 75.8151 40.7891 76.5234 41.5859C77.237 42.3828 77.5938 43.4427 77.5938 44.7656V44.8672C77.5938 45.6901 77.4349 46.4297 77.1172 47.0859C76.8047 47.737 76.3542 48.2448 75.7656 48.6094C75.1823 48.974 74.5104 49.1562 73.75 49.1562C72.6042 49.1562 71.6745 48.7578 70.9609 47.9609C70.2526 47.1641 69.8984 46.1094 69.8984 44.7969V44.6953ZM71.3516 44.8672C71.3516 45.8047 71.5677 46.5573 72 47.125C72.4375 47.6927 73.0208 47.9766 73.75 47.9766C74.4844 47.9766 75.0677 47.6901 75.5 47.1172C75.9323 46.5391 76.1484 45.7318 76.1484 44.6953C76.1484 43.7682 75.9271 43.0182 75.4844 42.4453C75.0469 41.8672 74.4635 41.5781 73.7344 41.5781C73.0208 41.5781 72.4453 41.862 72.0078 42.4297C71.5703 42.9974 71.3516 43.8099 71.3516 44.8672ZM80.7734 40.5469L80.8203 41.6094C81.4661 40.7969 82.3099 40.3906 83.3516 40.3906C85.138 40.3906 86.0391 41.3984 86.0547 43.4141V49H84.6094V43.4062C84.6042 42.7969 84.4635 42.3464 84.1875 42.0547C83.9167 41.763 83.4922 41.6172 82.9141 41.6172C82.4453 41.6172 82.0339 41.7422 81.6797 41.9922C81.3255 42.2422 81.0495 42.5703 80.8516 42.9766V49H79.4062V40.5469H80.7734ZM95.2109 44.7578H91.3984V43.5781H95.2109V44.7578ZM107.898 49H100.445V47.9609L104.383 43.5859C104.966 42.9245 105.367 42.388 105.586 41.9766C105.81 41.5599 105.922 41.1302 105.922 40.6875C105.922 40.0938 105.742 39.6068 105.383 39.2266C105.023 38.8464 104.544 38.6562 103.945 38.6562C103.227 38.6562 102.667 38.862 102.266 39.2734C101.87 39.6797 101.672 40.2474 101.672 40.9766H100.227C100.227 39.9297 100.562 39.0833 101.234 38.4375C101.911 37.7917 102.815 37.4688 103.945 37.4688C105.003 37.4688 105.839 37.7474 106.453 38.3047C107.068 38.8568 107.375 39.5938 107.375 40.5156C107.375 41.6354 106.661 42.9688 105.234 44.5156L102.188 47.8203H107.898V49ZM110.094 43.2969L110.672 37.625H116.5V38.9609H111.898L111.555 42.0625C112.112 41.7344 112.745 41.5703 113.453 41.5703C114.49 41.5703 115.312 41.9141 115.922 42.6016C116.531 43.2839 116.836 44.2083 116.836 45.375C116.836 46.5469 116.518 47.4714 115.883 48.1484C115.253 48.8203 114.37 49.1562 113.234 49.1562C112.229 49.1562 111.409 48.8776 110.773 48.3203C110.138 47.763 109.776 46.9922 109.688 46.0078H111.055C111.143 46.6589 111.375 47.151 111.75 47.4844C112.125 47.8125 112.62 47.9766 113.234 47.9766C113.906 47.9766 114.432 47.7474 114.812 47.2891C115.198 46.8307 115.391 46.1979 115.391 45.3906C115.391 44.6302 115.182 44.0208 114.766 43.5625C114.354 43.099 113.805 42.8672 113.117 42.8672C112.487 42.8672 111.992 43.0052 111.633 43.2812L111.25 43.5938L110.094 43.2969ZM118.289 39.8125C118.289 39.1302 118.505 38.5677 118.938 38.125C119.375 37.6823 119.935 37.4609 120.617 37.4609C121.31 37.4609 121.87 37.6849 122.297 38.1328C122.729 38.5755 122.945 39.151 122.945 39.8594V40.4141C122.945 41.1016 122.727 41.6641 122.289 42.1016C121.857 42.5339 121.305 42.75 120.633 42.75C119.956 42.75 119.396 42.5339 118.953 42.1016C118.51 41.6641 118.289 41.0833 118.289 40.3594V39.8125ZM119.367 40.4141C119.367 40.8203 119.482 41.1562 119.711 41.4219C119.94 41.6823 120.247 41.8125 120.633 41.8125C121.003 41.8125 121.299 41.6849 121.523 41.4297C121.753 41.1745 121.867 40.8255 121.867 40.3828V39.8125C121.867 39.4062 121.755 39.0703 121.531 38.8047C121.307 38.5391 121.003 38.4062 120.617 38.4062C120.232 38.4062 119.927 38.5391 119.703 38.8047C119.479 39.0703 119.367 39.4167 119.367 39.8438V40.4141ZM123.828 46.2109C123.828 45.5286 124.044 44.9688 124.477 44.5312C124.914 44.0885 125.474 43.8672 126.156 43.8672C126.839 43.8672 127.398 44.0859 127.836 44.5234C128.273 44.9609 128.492 45.5417 128.492 46.2656V46.8203C128.492 47.5026 128.273 48.0651 127.836 48.5078C127.404 48.9453 126.849 49.1641 126.172 49.1641C125.495 49.1641 124.935 48.9479 124.492 48.5156C124.049 48.0781 123.828 47.4974 123.828 46.7734V46.2109ZM124.906 46.8203C124.906 47.2318 125.021 47.5703 125.25 47.8359C125.479 48.0964 125.786 48.2266 126.172 48.2266C126.547 48.2266 126.846 48.099 127.07 47.8438C127.294 47.5833 127.406 47.2318 127.406 46.7891V46.2109C127.406 45.7995 127.292 45.4635 127.062 45.2031C126.839 44.9427 126.536 44.8125 126.156 44.8125C125.786 44.8125 125.484 44.9427 125.25 45.2031C125.021 45.4583 124.906 45.8047 124.906 46.2422V46.8203ZM120.961 48.1406L120.141 47.625L125.695 38.7344L126.516 39.25L120.961 48.1406Z" fill="black"/>
<path d="M34.5938 73.9766H29.8203V79H28.3203V67.625H35.3672V68.8594H29.8203V72.75H34.5938V73.9766ZM38.5078 79H37.0625V70.5469H38.5078V79ZM36.9453 68.3047C36.9453 68.0703 37.0156 67.8724 37.1562 67.7109C37.3021 67.5495 37.5156 67.4688 37.7969 67.4688C38.0781 67.4688 38.2917 67.5495 38.4375 67.7109C38.5833 67.8724 38.6562 68.0703 38.6562 68.3047C38.6562 68.5391 38.5833 68.7344 38.4375 68.8906C38.2917 69.0469 38.0781 69.125 37.7969 69.125C37.5156 69.125 37.3021 69.0469 37.1562 68.8906C37.0156 68.7344 36.9453 68.5391 36.9453 68.3047ZM42.1953 70.5469L42.2422 71.6094C42.888 70.7969 43.7318 70.3906 44.7734 70.3906C46.5599 70.3906 47.4609 71.3984 47.4766 73.4141V79H46.0312V73.4062C46.026 72.7969 45.8854 72.3464 45.6094 72.0547C45.3385 71.763 44.9141 71.6172 44.3359 71.6172C43.8672 71.6172 43.4557 71.7422 43.1016 71.9922C42.7474 72.2422 42.4714 72.5703 42.2734 72.9766V79H40.8281V70.5469H42.1953ZM54.875 79C54.7917 78.8333 54.724 78.5365 54.6719 78.1094C54 78.8073 53.1979 79.1562 52.2656 79.1562C51.4323 79.1562 50.7474 78.9219 50.2109 78.4531C49.6797 77.9792 49.4141 77.3802 49.4141 76.6562C49.4141 75.776 49.7474 75.0938 50.4141 74.6094C51.0859 74.1198 52.0286 73.875 53.2422 73.875H54.6484V73.2109C54.6484 72.7057 54.4974 72.3047 54.1953 72.0078C53.8932 71.7057 53.4479 71.5547 52.8594 71.5547C52.3438 71.5547 51.9115 71.6849 51.5625 71.9453C51.2135 72.2057 51.0391 72.5208 51.0391 72.8906H49.5859C49.5859 72.4688 49.7344 72.0625 50.0312 71.6719C50.3333 71.276 50.7396 70.9635 51.25 70.7344C51.7656 70.5052 52.3307 70.3906 52.9453 70.3906C53.9193 70.3906 54.6823 70.6354 55.2344 71.125C55.7865 71.6094 56.0729 72.2786 56.0938 73.1328V77.0234C56.0938 77.7995 56.1927 78.4167 56.3906 78.875V79H54.875ZM52.4766 77.8984C52.9297 77.8984 53.3594 77.7812 53.7656 77.5469C54.1719 77.3125 54.4661 77.0078 54.6484 76.6328V74.8984H53.5156C51.7448 74.8984 50.8594 75.4167 50.8594 76.4531C50.8594 76.9062 51.0104 77.2604 51.3125 77.5156C51.6146 77.7708 52.0026 77.8984 52.4766 77.8984ZM59.7266 70.5469L59.7734 71.6094C60.4193 70.7969 61.263 70.3906 62.3047 70.3906C64.0911 70.3906 64.9922 71.3984 65.0078 73.4141V79H63.5625V73.4062C63.5573 72.7969 63.4167 72.3464 63.1406 72.0547C62.8698 71.763 62.4453 71.6172 61.8672 71.6172C61.3984 71.6172 60.987 71.7422 60.6328 71.9922C60.2786 72.2422 60.0026 72.5703 59.8047 72.9766V79H58.3594V70.5469H59.7266ZM70.5781 77.9766C71.0938 77.9766 71.5443 77.8203 71.9297 77.5078C72.3151 77.1953 72.5286 76.8047 72.5703 76.3359H73.9375C73.9115 76.8203 73.7448 77.2812 73.4375 77.7188C73.1302 78.1562 72.7188 78.5052 72.2031 78.7656C71.6927 79.026 71.151 79.1562 70.5781 79.1562C69.4271 79.1562 68.5104 78.7734 67.8281 78.0078C67.151 77.237 66.8125 76.1849 66.8125 74.8516V74.6094C66.8125 73.7865 66.9635 73.0547 67.2656 72.4141C67.5677 71.7734 68 71.276 68.5625 70.9219C69.1302 70.5677 69.7995 70.3906 70.5703 70.3906C71.5182 70.3906 72.3047 70.6745 72.9297 71.2422C73.5599 71.8099 73.8958 72.5469 73.9375 73.4531H72.5703C72.5286 72.9062 72.3203 72.4583 71.9453 72.1094C71.5755 71.7552 71.1172 71.5781 70.5703 71.5781C69.8359 71.5781 69.2656 71.8438 68.8594 72.375C68.4583 72.901 68.2578 73.6641 68.2578 74.6641V74.9375C68.2578 75.9115 68.4583 76.6615 68.8594 77.1875C69.2604 77.7135 69.8333 77.9766 70.5781 77.9766ZM79.0703 79.1562C77.9245 79.1562 76.9922 78.7812 76.2734 78.0312C75.5547 77.276 75.1953 76.2682 75.1953 75.0078V74.7422C75.1953 73.9036 75.3542 73.1562 75.6719 72.5C75.9948 71.8385 76.4427 71.3229 77.0156 70.9531C77.5938 70.5781 78.2188 70.3906 78.8906 70.3906C79.9896 70.3906 80.8438 70.7526 81.4531 71.4766C82.0625 72.2005 82.3672 73.237 82.3672 74.5859V75.1875H76.6406C76.6615 76.0208 76.9036 76.6953 77.3672 77.2109C77.8359 77.7214 78.4297 77.9766 79.1484 77.9766C79.6589 77.9766 80.0911 77.8724 80.4453 77.6641C80.7995 77.4557 81.1094 77.1797 81.375 76.8359L82.2578 77.5234C81.5495 78.612 80.487 79.1562 79.0703 79.1562ZM78.8906 71.5781C78.3073 71.5781 77.8177 71.7917 77.4219 72.2188C77.026 72.6406 76.7812 73.2344 76.6875 74H80.9219V73.8906C80.8802 73.1562 80.6823 72.5885 80.3281 72.1875C79.974 71.7812 79.4948 71.5781 78.8906 71.5781ZM91.0234 74.7578H87.2109V73.5781H91.0234V74.7578ZM96.9219 73.2969L97.5 67.625H103.328V68.9609H98.7266L98.3828 72.0625C98.9401 71.7344 99.5729 71.5703 100.281 71.5703C101.318 71.5703 102.141 71.9141 102.75 72.6016C103.359 73.2839 103.664 74.2083 103.664 75.375C103.664 76.5469 103.346 77.4714 102.711 78.1484C102.081 78.8203 101.198 79.1562 100.062 79.1562C99.0573 79.1562 98.237 78.8776 97.6016 78.3203C96.9661 77.763 96.6042 76.9922 96.5156 76.0078H97.8828C97.9714 76.6589 98.2031 77.151 98.5781 77.4844C98.9531 77.8125 99.4479 77.9766 100.062 77.9766C100.734 77.9766 101.26 77.7474 101.641 77.2891C102.026 76.8307 102.219 76.1979 102.219 75.3906C102.219 74.6302 102.01 74.0208 101.594 73.5625C101.182 73.099 100.633 72.8672 99.9453 72.8672C99.3151 72.8672 98.8203 73.0052 98.4609 73.2812L98.0781 73.5938L96.9219 73.2969ZM112.375 74.1484C112.375 75.8411 112.086 77.099 111.508 77.9219C110.93 78.7448 110.026 79.1562 108.797 79.1562C107.583 79.1562 106.685 78.7552 106.102 77.9531C105.518 77.1458 105.216 75.9427 105.195 74.3438V72.4141C105.195 70.7422 105.484 69.5 106.062 68.6875C106.641 67.875 107.547 67.4688 108.781 67.4688C110.005 67.4688 110.906 67.862 111.484 68.6484C112.062 69.4297 112.359 70.638 112.375 72.2734V74.1484ZM110.93 72.1719C110.93 70.9479 110.758 70.0573 110.414 69.5C110.07 68.9375 109.526 68.6562 108.781 68.6562C108.042 68.6562 107.503 68.9349 107.164 69.4922C106.826 70.0495 106.651 70.9062 106.641 72.0625V74.375C106.641 75.6042 106.818 76.513 107.172 77.1016C107.531 77.6849 108.073 77.9766 108.797 77.9766C109.51 77.9766 110.039 77.7005 110.383 77.1484C110.732 76.5964 110.914 75.7266 110.93 74.5391V72.1719ZM114.102 69.8125C114.102 69.1302 114.318 68.5677 114.75 68.125C115.188 67.6823 115.747 67.4609 116.43 67.4609C117.122 67.4609 117.682 67.6849 118.109 68.1328C118.542 68.5755 118.758 69.151 118.758 69.8594V70.4141C118.758 71.1016 118.539 71.6641 118.102 72.1016C117.669 72.5339 117.117 72.75 116.445 72.75C115.768 72.75 115.208 72.5339 114.766 72.1016C114.323 71.6641 114.102 71.0833 114.102 70.3594V69.8125ZM115.18 70.4141C115.18 70.8203 115.294 71.1562 115.523 71.4219C115.753 71.6823 116.06 71.8125 116.445 71.8125C116.815 71.8125 117.112 71.6849 117.336 71.4297C117.565 71.1745 117.68 70.8255 117.68 70.3828V69.8125C117.68 69.4062 117.568 69.0703 117.344 68.8047C117.12 68.5391 116.815 68.4062 116.43 68.4062C116.044 68.4062 115.74 68.5391 115.516 68.8047C115.292 69.0703 115.18 69.4167 115.18 69.8438V70.4141ZM119.641 76.2109C119.641 75.5286 119.857 74.9688 120.289 74.5312C120.727 74.0885 121.286 73.8672 121.969 73.8672C122.651 73.8672 123.211 74.0859 123.648 74.5234C124.086 74.9609 124.305 75.5417 124.305 76.2656V76.8203C124.305 77.5026 124.086 78.0651 123.648 78.5078C123.216 78.9453 122.661 79.1641 121.984 79.1641C121.307 79.1641 120.747 78.9479 120.305 78.5156C119.862 78.0781 119.641 77.4974 119.641 76.7734V76.2109ZM120.719 76.8203C120.719 77.2318 120.833 77.5703 121.062 77.8359C121.292 78.0964 121.599 78.2266 121.984 78.2266C122.359 78.2266 122.659 78.099 122.883 77.8438C123.107 77.5833 123.219 77.2318 123.219 76.7891V76.2109C123.219 75.7995 123.104 75.4635 122.875 75.2031C122.651 74.9427 122.349 74.8125 121.969 74.8125C121.599 74.8125 121.297 74.9427 121.062 75.2031C120.833 75.4583 120.719 75.8047 120.719 76.2422V76.8203ZM116.773 78.1406L115.953 77.625L121.508 68.7344L122.328 69.25L116.773 78.1406Z" fill="black"/>
<path d="M36.3125 110H34.8047V104.742H29.0703V110H27.5703V98.625H29.0703V103.516H34.8047V98.625H36.3125V110ZM43.9688 110C43.8854 109.833 43.8177 109.536 43.7656 109.109C43.0938 109.807 42.2917 110.156 41.3594 110.156C40.526 110.156 39.8411 109.922 39.3047 109.453C38.7734 108.979 38.5078 108.38 38.5078 107.656C38.5078 106.776 38.8411 106.094 39.5078 105.609C40.1797 105.12 41.1224 104.875 42.3359 104.875H43.7422V104.211C43.7422 103.706 43.5911 103.305 43.2891 103.008C42.987 102.706 42.5417 102.555 41.9531 102.555C41.4375 102.555 41.0052 102.685 40.6562 102.945C40.3073 103.206 40.1328 103.521 40.1328 103.891H38.6797C38.6797 103.469 38.8281 103.062 39.125 102.672C39.4271 102.276 39.8333 101.964 40.3438 101.734C40.8594 101.505 41.4245 101.391 42.0391 101.391C43.013 101.391 43.776 101.635 44.3281 102.125C44.8802 102.609 45.1667 103.279 45.1875 104.133V108.023C45.1875 108.799 45.2865 109.417 45.4844 109.875V110H43.9688ZM41.5703 108.898C42.0234 108.898 42.4531 108.781 42.8594 108.547C43.2656 108.312 43.5599 108.008 43.7422 107.633V105.898H42.6094C40.8385 105.898 39.9531 106.417 39.9531 107.453C39.9531 107.906 40.1042 108.26 40.4062 108.516C40.7083 108.771 41.0964 108.898 41.5703 108.898ZM54.6094 105.867C54.6094 107.159 54.3125 108.198 53.7188 108.984C53.125 109.766 52.3281 110.156 51.3281 110.156C50.2604 110.156 49.4349 109.779 48.8516 109.023L48.7812 110H47.4531V98H48.8984V102.477C49.4818 101.753 50.2865 101.391 51.3125 101.391C52.3385 101.391 53.1432 101.779 53.7266 102.555C54.3151 103.331 54.6094 104.393 54.6094 105.742V105.867ZM53.1641 105.703C53.1641 104.719 52.974 103.958 52.5938 103.422C52.2135 102.885 51.6667 102.617 50.9531 102.617C50 102.617 49.3151 103.06 48.8984 103.945V107.602C49.3411 108.487 50.0312 108.93 50.9688 108.93C51.6615 108.93 52.2005 108.661 52.5859 108.125C52.9714 107.589 53.1641 106.781 53.1641 105.703ZM58.0078 110H56.5625V101.547H58.0078V110ZM56.4453 99.3047C56.4453 99.0703 56.5156 98.8724 56.6562 98.7109C56.8021 98.5495 57.0156 98.4688 57.2969 98.4688C57.5781 98.4688 57.7917 98.5495 57.9375 98.7109C58.0833 98.8724 58.1562 99.0703 58.1562 99.3047C58.1562 99.5391 58.0833 99.7344 57.9375 99.8906C57.7917 100.047 57.5781 100.125 57.2969 100.125C57.0156 100.125 56.8021 100.047 56.6562 99.8906C56.5156 99.7344 56.4453 99.5391 56.4453 99.3047ZM62.2891 99.5V101.547H63.8672V102.664H62.2891V107.906C62.2891 108.245 62.3594 108.5 62.5 108.672C62.6406 108.839 62.8802 108.922 63.2188 108.922C63.3854 108.922 63.6146 108.891 63.9062 108.828V110C63.526 110.104 63.1562 110.156 62.7969 110.156C62.151 110.156 61.6641 109.961 61.3359 109.57C61.0078 109.18 60.8438 108.625 60.8438 107.906V102.664H59.3047V101.547H60.8438V99.5H62.2891ZM70.4844 107.758C70.4844 107.367 70.3359 107.065 70.0391 106.852C69.7474 106.633 69.2344 106.445 68.5 106.289C67.7708 106.133 67.1901 105.945 66.7578 105.727C66.3307 105.508 66.013 105.247 65.8047 104.945C65.6016 104.643 65.5 104.284 65.5 103.867C65.5 103.174 65.7917 102.589 66.375 102.109C66.9635 101.63 67.7135 101.391 68.625 101.391C69.5833 101.391 70.3594 101.638 70.9531 102.133C71.5521 102.628 71.8516 103.26 71.8516 104.031H70.3984C70.3984 103.635 70.2292 103.294 69.8906 103.008C69.5573 102.721 69.1354 102.578 68.625 102.578C68.099 102.578 67.6875 102.693 67.3906 102.922C67.0938 103.151 66.9453 103.451 66.9453 103.82C66.9453 104.169 67.0833 104.432 67.3594 104.609C67.6354 104.786 68.1328 104.956 68.8516 105.117C69.5755 105.279 70.1615 105.471 70.6094 105.695C71.0573 105.919 71.388 106.19 71.6016 106.508C71.8203 106.82 71.9297 107.203 71.9297 107.656C71.9297 108.411 71.6276 109.018 71.0234 109.477C70.4193 109.93 69.6354 110.156 68.6719 110.156C67.9948 110.156 67.3958 110.036 66.875 109.797C66.3542 109.557 65.9453 109.224 65.6484 108.797C65.3568 108.365 65.2109 107.898 65.2109 107.398H66.6562C66.6823 107.883 66.875 108.268 67.2344 108.555C67.599 108.836 68.0781 108.977 68.6719 108.977C69.2188 108.977 69.6562 108.867 69.9844 108.648C70.3177 108.424 70.4844 108.128 70.4844 107.758ZM80.7891 105.758H76.9766V104.578H80.7891V105.758ZM90.7734 110H89.3203V100.367L86.4062 101.438V100.125L90.5469 98.5703H90.7734V110ZM102.141 105.148C102.141 106.841 101.852 108.099 101.273 108.922C100.695 109.745 99.7917 110.156 98.5625 110.156C97.349 110.156 96.4505 109.755 95.8672 108.953C95.2839 108.146 94.9818 106.943 94.9609 105.344V103.414C94.9609 101.742 95.25 100.5 95.8281 99.6875C96.4062 98.875 97.3125 98.4688 98.5469 98.4688C99.7708 98.4688 100.672 98.862 101.25 99.6484C101.828 100.43 102.125 101.638 102.141 103.273V105.148ZM100.695 103.172C100.695 101.948 100.523 101.057 100.18 100.5C99.8359 99.9375 99.2917 99.6562 98.5469 99.6562C97.8073 99.6562 97.2682 99.9349 96.9297 100.492C96.5911 101.049 96.4167 101.906 96.4062 103.062V105.375C96.4062 106.604 96.5833 107.513 96.9375 108.102C97.2969 108.685 97.8385 108.977 98.5625 108.977C99.276 108.977 99.8047 108.701 100.148 108.148C100.497 107.596 100.68 106.727 100.695 105.539V103.172ZM111.125 105.148C111.125 106.841 110.836 108.099 110.258 108.922C109.68 109.745 108.776 110.156 107.547 110.156C106.333 110.156 105.435 109.755 104.852 108.953C104.268 108.146 103.966 106.943 103.945 105.344V103.414C103.945 101.742 104.234 100.5 104.812 99.6875C105.391 98.875 106.297 98.4688 107.531 98.4688C108.755 98.4688 109.656 98.862 110.234 99.6484C110.812 100.43 111.109 101.638 111.125 103.273V105.148ZM109.68 103.172C109.68 101.948 109.508 101.057 109.164 100.5C108.82 99.9375 108.276 99.6562 107.531 99.6562C106.792 99.6562 106.253 99.9349 105.914 100.492C105.576 101.049 105.401 101.906 105.391 103.062V105.375C105.391 106.604 105.568 107.513 105.922 108.102C106.281 108.685 106.823 108.977 107.547 108.977C108.26 108.977 108.789 108.701 109.133 108.148C109.482 107.596 109.664 106.727 109.68 105.539V103.172ZM112.852 100.812C112.852 100.13 113.068 99.5677 113.5 99.125C113.938 98.6823 114.497 98.4609 115.18 98.4609C115.872 98.4609 116.432 98.6849 116.859 99.1328C117.292 99.5755 117.508 100.151 117.508 100.859V101.414C117.508 102.102 117.289 102.664 116.852 103.102C116.419 103.534 115.867 103.75 115.195 103.75C114.518 103.75 113.958 103.534 113.516 103.102C113.073 102.664 112.852 102.083 112.852 101.359V100.812ZM113.93 101.414C113.93 101.82 114.044 102.156 114.273 102.422C114.503 102.682 114.81 102.812 115.195 102.812C115.565 102.812 115.862 102.685 116.086 102.43C116.315 102.174 116.43 101.826 116.43 101.383V100.812C116.43 100.406 116.318 100.07 116.094 99.8047C115.87 99.5391 115.565 99.4062 115.18 99.4062C114.794 99.4062 114.49 99.5391 114.266 99.8047C114.042 100.07 113.93 100.417 113.93 100.844V101.414ZM118.391 107.211C118.391 106.529 118.607 105.969 119.039 105.531C119.477 105.089 120.036 104.867 120.719 104.867C121.401 104.867 121.961 105.086 122.398 105.523C122.836 105.961 123.055 106.542 123.055 107.266V107.82C123.055 108.503 122.836 109.065 122.398 109.508C121.966 109.945 121.411 110.164 120.734 110.164C120.057 110.164 119.497 109.948 119.055 109.516C118.612 109.078 118.391 108.497 118.391 107.773V107.211ZM119.469 107.82C119.469 108.232 119.583 108.57 119.812 108.836C120.042 109.096 120.349 109.227 120.734 109.227C121.109 109.227 121.409 109.099 121.633 108.844C121.857 108.583 121.969 108.232 121.969 107.789V107.211C121.969 106.799 121.854 106.464 121.625 106.203C121.401 105.943 121.099 105.812 120.719 105.812C120.349 105.812 120.047 105.943 119.812 106.203C119.583 106.458 119.469 106.805 119.469 107.242V107.82ZM115.523 109.141L114.703 108.625L120.258 99.7344L121.078 100.25L115.523 109.141Z" fill="black"/>
<path d="M28.6094 137.547V142H27.1094V130.625H31.3047C32.5495 130.625 33.5234 130.943 34.2266 131.578C34.9349 132.214 35.2891 133.055 35.2891 134.102C35.2891 135.206 34.9427 136.057 34.25 136.656C33.5625 137.25 32.5755 137.547 31.2891 137.547H28.6094ZM28.6094 136.32H31.3047C32.1068 136.32 32.7214 136.133 33.1484 135.758C33.5755 135.378 33.7891 134.831 33.7891 134.117C33.7891 133.44 33.5755 132.898 33.1484 132.492C32.7214 132.086 32.1354 131.875 31.3906 131.859H28.6094V136.32ZM40.375 142.156C39.2292 142.156 38.2969 141.781 37.5781 141.031C36.8594 140.276 36.5 139.268 36.5 138.008V137.742C36.5 136.904 36.6589 136.156 36.9766 135.5C37.2995 134.839 37.7474 134.323 38.3203 133.953C38.8984 133.578 39.5234 133.391 40.1953 133.391C41.2943 133.391 42.1484 133.753 42.7578 134.477C43.3672 135.201 43.6719 136.237 43.6719 137.586V138.188H37.9453C37.9661 139.021 38.2083 139.695 38.6719 140.211C39.1406 140.721 39.7344 140.977 40.4531 140.977C40.9635 140.977 41.3958 140.872 41.75 140.664C42.1042 140.456 42.4141 140.18 42.6797 139.836L43.5625 140.523C42.8542 141.612 41.7917 142.156 40.375 142.156ZM40.1953 134.578C39.612 134.578 39.1224 134.792 38.7266 135.219C38.3307 135.641 38.0859 136.234 37.9922 137H42.2266V136.891C42.1849 136.156 41.987 135.589 41.6328 135.188C41.2786 134.781 40.7995 134.578 40.1953 134.578ZM49.4375 134.844C49.2188 134.807 48.9818 134.789 48.7266 134.789C47.7786 134.789 47.1354 135.193 46.7969 136V142H45.3516V133.547H46.7578L46.7812 134.523C47.2552 133.768 47.9271 133.391 48.7969 133.391C49.0781 133.391 49.2917 133.427 49.4375 133.5V134.844ZM55.6953 139.758C55.6953 139.367 55.5469 139.065 55.25 138.852C54.9583 138.633 54.4453 138.445 53.7109 138.289C52.9818 138.133 52.401 137.945 51.9688 137.727C51.5417 137.508 51.224 137.247 51.0156 136.945C50.8125 136.643 50.7109 136.284 50.7109 135.867C50.7109 135.174 51.0026 134.589 51.5859 134.109C52.1745 133.63 52.9245 133.391 53.8359 133.391C54.7943 133.391 55.5703 133.638 56.1641 134.133C56.763 134.628 57.0625 135.26 57.0625 136.031H55.6094C55.6094 135.635 55.4401 135.294 55.1016 135.008C54.7682 134.721 54.3464 134.578 53.8359 134.578C53.3099 134.578 52.8984 134.693 52.6016 134.922C52.3047 135.151 52.1562 135.451 52.1562 135.82C52.1562 136.169 52.2943 136.432 52.5703 136.609C52.8464 136.786 53.3438 136.956 54.0625 137.117C54.7865 137.279 55.3724 137.471 55.8203 137.695C56.2682 137.919 56.599 138.19 56.8125 138.508C57.0312 138.82 57.1406 139.203 57.1406 139.656C57.1406 140.411 56.8385 141.018 56.2344 141.477C55.6302 141.93 54.8464 142.156 53.8828 142.156C53.2057 142.156 52.6068 142.036 52.0859 141.797C51.5651 141.557 51.1562 141.224 50.8594 140.797C50.5677 140.365 50.4219 139.898 50.4219 139.398H51.8672C51.8932 139.883 52.0859 140.268 52.4453 140.555C52.8099 140.836 53.2891 140.977 53.8828 140.977C54.4297 140.977 54.8672 140.867 55.1953 140.648C55.5286 140.424 55.6953 140.128 55.6953 139.758ZM58.6406 137.695C58.6406 136.867 58.8021 136.122 59.125 135.461C59.4531 134.799 59.9062 134.289 60.4844 133.93C61.0677 133.57 61.7318 133.391 62.4766 133.391C63.6276 133.391 64.5573 133.789 65.2656 134.586C65.9792 135.383 66.3359 136.443 66.3359 137.766V137.867C66.3359 138.69 66.1771 139.43 65.8594 140.086C65.5469 140.737 65.0964 141.245 64.5078 141.609C63.9245 141.974 63.2526 142.156 62.4922 142.156C61.3464 142.156 60.4167 141.758 59.7031 140.961C58.9948 140.164 58.6406 139.109 58.6406 137.797V137.695ZM60.0938 137.867C60.0938 138.805 60.3099 139.557 60.7422 140.125C61.1797 140.693 61.763 140.977 62.4922 140.977C63.2266 140.977 63.8099 140.69 64.2422 140.117C64.6745 139.539 64.8906 138.732 64.8906 137.695C64.8906 136.768 64.6693 136.018 64.2266 135.445C63.7891 134.867 63.2057 134.578 62.4766 134.578C61.763 134.578 61.1875 134.862 60.75 135.43C60.3125 135.997 60.0938 136.81 60.0938 137.867ZM69.5156 133.547L69.5625 134.609C70.2083 133.797 71.0521 133.391 72.0938 133.391C73.8802 133.391 74.7812 134.398 74.7969 136.414V142H73.3516V136.406C73.3464 135.797 73.2057 135.346 72.9297 135.055C72.6589 134.763 72.2344 134.617 71.6562 134.617C71.1875 134.617 70.776 134.742 70.4219 134.992C70.0677 135.242 69.7917 135.57 69.5938 135.977V142H68.1484V133.547H69.5156ZM82.1953 142C82.112 141.833 82.0443 141.536 81.9922 141.109C81.3203 141.807 80.5182 142.156 79.5859 142.156C78.7526 142.156 78.0677 141.922 77.5312 141.453C77 140.979 76.7344 140.38 76.7344 139.656C76.7344 138.776 77.0677 138.094 77.7344 137.609C78.4062 137.12 79.349 136.875 80.5625 136.875H81.9688V136.211C81.9688 135.706 81.8177 135.305 81.5156 135.008C81.2135 134.706 80.7682 134.555 80.1797 134.555C79.6641 134.555 79.2318 134.685 78.8828 134.945C78.5339 135.206 78.3594 135.521 78.3594 135.891H76.9062C76.9062 135.469 77.0547 135.062 77.3516 134.672C77.6536 134.276 78.0599 133.964 78.5703 133.734C79.0859 133.505 79.651 133.391 80.2656 133.391C81.2396 133.391 82.0026 133.635 82.5547 134.125C83.1068 134.609 83.3932 135.279 83.4141 136.133V140.023C83.4141 140.799 83.513 141.417 83.7109 141.875V142H82.1953ZM79.7969 140.898C80.25 140.898 80.6797 140.781 81.0859 140.547C81.4922 140.312 81.7865 140.008 81.9688 139.633V137.898H80.8359C79.0651 137.898 78.1797 138.417 78.1797 139.453C78.1797 139.906 78.3307 140.26 78.6328 140.516C78.9349 140.771 79.3229 140.898 79.7969 140.898ZM87.25 142H85.8047V130H87.25V142ZM91.1406 142H89.6953V133.547H91.1406V142ZM89.5781 131.305C89.5781 131.07 89.6484 130.872 89.7891 130.711C89.9349 130.549 90.1484 130.469 90.4297 130.469C90.7109 130.469 90.9245 130.549 91.0703 130.711C91.2161 130.872 91.2891 131.07 91.2891 131.305C91.2891 131.539 91.2161 131.734 91.0703 131.891C90.9245 132.047 90.7109 132.125 90.4297 132.125C90.1484 132.125 89.9349 132.047 89.7891 131.891C89.6484 131.734 89.5781 131.539 89.5781 131.305ZM95.4219 131.5V133.547H97V134.664H95.4219V139.906C95.4219 140.245 95.4922 140.5 95.6328 140.672C95.7734 140.839 96.013 140.922 96.3516 140.922C96.5182 140.922 96.7474 140.891 97.0391 140.828V142C96.6589 142.104 96.2891 142.156 95.9297 142.156C95.2839 142.156 94.7969 141.961 94.4688 141.57C94.1406 141.18 93.9766 140.625 93.9766 139.906V134.664H92.4375V133.547H93.9766V131.5H95.4219ZM101.461 139.883L103.43 133.547H104.977L101.578 143.305C101.052 144.711 100.216 145.414 99.0703 145.414L98.7969 145.391L98.2578 145.289V144.117L98.6484 144.148C99.138 144.148 99.5182 144.049 99.7891 143.852C100.065 143.654 100.292 143.292 100.469 142.766L100.789 141.906L97.7734 133.547H99.3516L101.461 139.883ZM113.25 137.758H109.438V136.578H113.25V137.758ZM123.234 142H121.781V132.367L118.867 133.438V132.125L123.008 130.57H123.234V142ZM134.602 137.148C134.602 138.841 134.312 140.099 133.734 140.922C133.156 141.745 132.253 142.156 131.023 142.156C129.81 142.156 128.911 141.755 128.328 140.953C127.745 140.146 127.443 138.943 127.422 137.344V135.414C127.422 133.742 127.711 132.5 128.289 131.688C128.867 130.875 129.773 130.469 131.008 130.469C132.232 130.469 133.133 130.862 133.711 131.648C134.289 132.43 134.586 133.638 134.602 135.273V137.148ZM133.156 135.172C133.156 133.948 132.984 133.057 132.641 132.5C132.297 131.938 131.753 131.656 131.008 131.656C130.268 131.656 129.729 131.935 129.391 132.492C129.052 133.049 128.878 133.906 128.867 135.062V137.375C128.867 138.604 129.044 139.513 129.398 140.102C129.758 140.685 130.299 140.977 131.023 140.977C131.737 140.977 132.266 140.701 132.609 140.148C132.958 139.596 133.141 138.727 133.156 137.539V135.172ZM143.586 137.148C143.586 138.841 143.297 140.099 142.719 140.922C142.141 141.745 141.237 142.156 140.008 142.156C138.794 142.156 137.896 141.755 137.312 140.953C136.729 140.146 136.427 138.943 136.406 137.344V135.414C136.406 133.742 136.695 132.5 137.273 131.688C137.852 130.875 138.758 130.469 139.992 130.469C141.216 130.469 142.117 130.862 142.695 131.648C143.273 132.43 143.57 133.638 143.586 135.273V137.148ZM142.141 135.172C142.141 133.948 141.969 133.057 141.625 132.5C141.281 131.938 140.737 131.656 139.992 131.656C139.253 131.656 138.714 131.935 138.375 132.492C138.036 133.049 137.862 133.906 137.852 135.062V137.375C137.852 138.604 138.029 139.513 138.383 140.102C138.742 140.685 139.284 140.977 140.008 140.977C140.721 140.977 141.25 140.701 141.594 140.148C141.943 139.596 142.125 138.727 142.141 137.539V135.172ZM145.312 132.812C145.312 132.13 145.529 131.568 145.961 131.125C146.398 130.682 146.958 130.461 147.641 130.461C148.333 130.461 148.893 130.685 149.32 131.133C149.753 131.576 149.969 132.151 149.969 132.859V133.414C149.969 134.102 149.75 134.664 149.312 135.102C148.88 135.534 148.328 135.75 147.656 135.75C146.979 135.75 146.419 135.534 145.977 135.102C145.534 134.664 145.312 134.083 145.312 133.359V132.812ZM146.391 133.414C146.391 133.82 146.505 134.156 146.734 134.422C146.964 134.682 147.271 134.812 147.656 134.812C148.026 134.812 148.323 134.685 148.547 134.43C148.776 134.174 148.891 133.826 148.891 133.383V132.812C148.891 132.406 148.779 132.07 148.555 131.805C148.331 131.539 148.026 131.406 147.641 131.406C147.255 131.406 146.951 131.539 146.727 131.805C146.503 132.07 146.391 132.417 146.391 132.844V133.414ZM150.852 139.211C150.852 138.529 151.068 137.969 151.5 137.531C151.938 137.089 152.497 136.867 153.18 136.867C153.862 136.867 154.422 137.086 154.859 137.523C155.297 137.961 155.516 138.542 155.516 139.266V139.82C155.516 140.503 155.297 141.065 154.859 141.508C154.427 141.945 153.872 142.164 153.195 142.164C152.518 142.164 151.958 141.948 151.516 141.516C151.073 141.078 150.852 140.497 150.852 139.773V139.211ZM151.93 139.82C151.93 140.232 152.044 140.57 152.273 140.836C152.503 141.096 152.81 141.227 153.195 141.227C153.57 141.227 153.87 141.099 154.094 140.844C154.318 140.583 154.43 140.232 154.43 139.789V139.211C154.43 138.799 154.315 138.464 154.086 138.203C153.862 137.943 153.56 137.812 153.18 137.812C152.81 137.812 152.508 137.943 152.273 138.203C152.044 138.458 151.93 138.805 151.93 139.242V139.82ZM147.984 141.141L147.164 140.625L152.719 131.734L153.539 132.25L147.984 141.141Z" fill="black"/>
<path d="M31.3359 170H29.8359V158.625H31.3359V170ZM35.2266 161.547L35.2734 162.609C35.9193 161.797 36.763 161.391 37.8047 161.391C39.5911 161.391 40.4922 162.398 40.5078 164.414V170H39.0625V164.406C39.0573 163.797 38.9167 163.346 38.6406 163.055C38.3698 162.763 37.9453 162.617 37.3672 162.617C36.8984 162.617 36.487 162.742 36.1328 162.992C35.7786 163.242 35.5026 163.57 35.3047 163.977V170H33.8594V161.547H35.2266ZM44.6484 159.5V161.547H46.2266V162.664H44.6484V167.906C44.6484 168.245 44.7188 168.5 44.8594 168.672C45 168.839 45.2396 168.922 45.5781 168.922C45.7448 168.922 45.974 168.891 46.2656 168.828V170C45.8854 170.104 45.5156 170.156 45.1562 170.156C44.5104 170.156 44.0234 169.961 43.6953 169.57C43.3672 169.18 43.2031 168.625 43.2031 167.906V162.664H41.6641V161.547H43.2031V159.5H44.6484ZM51.4297 170.156C50.2839 170.156 49.3516 169.781 48.6328 169.031C47.9141 168.276 47.5547 167.268 47.5547 166.008V165.742C47.5547 164.904 47.7135 164.156 48.0312 163.5C48.3542 162.839 48.8021 162.323 49.375 161.953C49.9531 161.578 50.5781 161.391 51.25 161.391C52.349 161.391 53.2031 161.753 53.8125 162.477C54.4219 163.201 54.7266 164.237 54.7266 165.586V166.188H49C49.0208 167.021 49.263 167.695 49.7266 168.211C50.1953 168.721 50.7891 168.977 51.5078 168.977C52.0182 168.977 52.4505 168.872 52.8047 168.664C53.1589 168.456 53.4688 168.18 53.7344 167.836L54.6172 168.523C53.9089 169.612 52.8464 170.156 51.4297 170.156ZM51.25 162.578C50.6667 162.578 50.1771 162.792 49.7812 163.219C49.3854 163.641 49.1406 164.234 49.0469 165H53.2812V164.891C53.2396 164.156 53.0417 163.589 52.6875 163.188C52.3333 162.781 51.8542 162.578 51.25 162.578ZM60.4922 162.844C60.2734 162.807 60.0365 162.789 59.7812 162.789C58.8333 162.789 58.1901 163.193 57.8516 164V170H56.4062V161.547H57.8125L57.8359 162.523C58.3099 161.768 58.9818 161.391 59.8516 161.391C60.1328 161.391 60.3464 161.427 60.4922 161.5V162.844ZM65.1797 170.156C64.0339 170.156 63.1016 169.781 62.3828 169.031C61.6641 168.276 61.3047 167.268 61.3047 166.008V165.742C61.3047 164.904 61.4635 164.156 61.7812 163.5C62.1042 162.839 62.5521 162.323 63.125 161.953C63.7031 161.578 64.3281 161.391 65 161.391C66.099 161.391 66.9531 161.753 67.5625 162.477C68.1719 163.201 68.4766 164.237 68.4766 165.586V166.188H62.75C62.7708 167.021 63.013 167.695 63.4766 168.211C63.9453 168.721 64.5391 168.977 65.2578 168.977C65.7682 168.977 66.2005 168.872 66.5547 168.664C66.9089 168.456 67.2188 168.18 67.4844 167.836L68.3672 168.523C67.6589 169.612 66.5964 170.156 65.1797 170.156ZM65 162.578C64.4167 162.578 63.9271 162.792 63.5312 163.219C63.1354 163.641 62.8906 164.234 62.7969 165H67.0312V164.891C66.9896 164.156 66.7917 163.589 66.4375 163.188C66.0833 162.781 65.6042 162.578 65 162.578ZM75.0781 167.758C75.0781 167.367 74.9297 167.065 74.6328 166.852C74.3411 166.633 73.8281 166.445 73.0938 166.289C72.3646 166.133 71.7839 165.945 71.3516 165.727C70.9245 165.508 70.6068 165.247 70.3984 164.945C70.1953 164.643 70.0938 164.284 70.0938 163.867C70.0938 163.174 70.3854 162.589 70.9688 162.109C71.5573 161.63 72.3073 161.391 73.2188 161.391C74.1771 161.391 74.9531 161.638 75.5469 162.133C76.1458 162.628 76.4453 163.26 76.4453 164.031H74.9922C74.9922 163.635 74.8229 163.294 74.4844 163.008C74.151 162.721 73.7292 162.578 73.2188 162.578C72.6927 162.578 72.2812 162.693 71.9844 162.922C71.6875 163.151 71.5391 163.451 71.5391 163.82C71.5391 164.169 71.6771 164.432 71.9531 164.609C72.2292 164.786 72.7266 164.956 73.4453 165.117C74.1693 165.279 74.7552 165.471 75.2031 165.695C75.651 165.919 75.9818 166.19 76.1953 166.508C76.4141 166.82 76.5234 167.203 76.5234 167.656C76.5234 168.411 76.2214 169.018 75.6172 169.477C75.013 169.93 74.2292 170.156 73.2656 170.156C72.5885 170.156 71.9896 170.036 71.4688 169.797C70.9479 169.557 70.5391 169.224 70.2422 168.797C69.9505 168.365 69.8047 167.898 69.8047 167.398H71.25C71.276 167.883 71.4688 168.268 71.8281 168.555C72.1927 168.836 72.6719 168.977 73.2656 168.977C73.8125 168.977 74.25 168.867 74.5781 168.648C74.9115 168.424 75.0781 168.128 75.0781 167.758ZM80.3672 159.5V161.547H81.9453V162.664H80.3672V167.906C80.3672 168.245 80.4375 168.5 80.5781 168.672C80.7188 168.839 80.9583 168.922 81.2969 168.922C81.4635 168.922 81.6927 168.891 81.9844 168.828V170C81.6042 170.104 81.2344 170.156 80.875 170.156C80.2292 170.156 79.7422 169.961 79.4141 169.57C79.0859 169.18 78.9219 168.625 78.9219 167.906V162.664H77.3828V161.547H78.9219V159.5H80.3672ZM90.6172 165.758H86.8047V164.578H90.6172V165.758ZM96.5156 164.297L97.0938 158.625H102.922V159.961H98.3203L97.9766 163.062C98.5339 162.734 99.1667 162.57 99.875 162.57C100.911 162.57 101.734 162.914 102.344 163.602C102.953 164.284 103.258 165.208 103.258 166.375C103.258 167.547 102.94 168.471 102.305 169.148C101.674 169.82 100.792 170.156 99.6562 170.156C98.651 170.156 97.8307 169.878 97.1953 169.32C96.5599 168.763 96.1979 167.992 96.1094 167.008H97.4766C97.5651 167.659 97.7969 168.151 98.1719 168.484C98.5469 168.812 99.0417 168.977 99.6562 168.977C100.328 168.977 100.854 168.747 101.234 168.289C101.62 167.831 101.812 167.198 101.812 166.391C101.812 165.63 101.604 165.021 101.188 164.562C100.776 164.099 100.227 163.867 99.5391 163.867C98.9089 163.867 98.4141 164.005 98.0547 164.281L97.6719 164.594L96.5156 164.297ZM111.969 165.148C111.969 166.841 111.68 168.099 111.102 168.922C110.523 169.745 109.62 170.156 108.391 170.156C107.177 170.156 106.279 169.755 105.695 168.953C105.112 168.146 104.81 166.943 104.789 165.344V163.414C104.789 161.742 105.078 160.5 105.656 159.688C106.234 158.875 107.141 158.469 108.375 158.469C109.599 158.469 110.5 158.862 111.078 159.648C111.656 160.43 111.953 161.638 111.969 163.273V165.148ZM110.523 163.172C110.523 161.948 110.352 161.057 110.008 160.5C109.664 159.938 109.12 159.656 108.375 159.656C107.635 159.656 107.096 159.935 106.758 160.492C106.419 161.049 106.245 161.906 106.234 163.062V165.375C106.234 166.604 106.411 167.513 106.766 168.102C107.125 168.685 107.667 168.977 108.391 168.977C109.104 168.977 109.633 168.701 109.977 168.148C110.326 167.596 110.508 166.727 110.523 165.539V163.172ZM113.695 160.812C113.695 160.13 113.911 159.568 114.344 159.125C114.781 158.682 115.341 158.461 116.023 158.461C116.716 158.461 117.276 158.685 117.703 159.133C118.135 159.576 118.352 160.151 118.352 160.859V161.414C118.352 162.102 118.133 162.664 117.695 163.102C117.263 163.534 116.711 163.75 116.039 163.75C115.362 163.75 114.802 163.534 114.359 163.102C113.917 162.664 113.695 162.083 113.695 161.359V160.812ZM114.773 161.414C114.773 161.82 114.888 162.156 115.117 162.422C115.346 162.682 115.654 162.812 116.039 162.812C116.409 162.812 116.706 162.685 116.93 162.43C117.159 162.174 117.273 161.826 117.273 161.383V160.812C117.273 160.406 117.161 160.07 116.938 159.805C116.714 159.539 116.409 159.406 116.023 159.406C115.638 159.406 115.333 159.539 115.109 159.805C114.885 160.07 114.773 160.417 114.773 160.844V161.414ZM119.234 167.211C119.234 166.529 119.451 165.969 119.883 165.531C120.32 165.089 120.88 164.867 121.562 164.867C122.245 164.867 122.805 165.086 123.242 165.523C123.68 165.961 123.898 166.542 123.898 167.266V167.82C123.898 168.503 123.68 169.065 123.242 169.508C122.81 169.945 122.255 170.164 121.578 170.164C120.901 170.164 120.341 169.948 119.898 169.516C119.456 169.078 119.234 168.497 119.234 167.773V167.211ZM120.312 167.82C120.312 168.232 120.427 168.57 120.656 168.836C120.885 169.096 121.193 169.227 121.578 169.227C121.953 169.227 122.253 169.099 122.477 168.844C122.701 168.583 122.812 168.232 122.812 167.789V167.211C122.812 166.799 122.698 166.464 122.469 166.203C122.245 165.943 121.943 165.812 121.562 165.812C121.193 165.812 120.891 165.943 120.656 166.203C120.427 166.458 120.312 166.805 120.312 167.242V167.82ZM116.367 169.141L115.547 168.625L121.102 159.734L121.922 160.25L116.367 169.141Z" fill="black"/>
<path d="M34.2344 192.977H29.4609V198H27.9609V186.625H35.0078V187.859H29.4609V191.75H34.2344V192.977ZM41.5312 198C41.4479 197.833 41.3802 197.536 41.3281 197.109C40.6562 197.807 39.8542 198.156 38.9219 198.156C38.0885 198.156 37.4036 197.922 36.8672 197.453C36.3359 196.979 36.0703 196.38 36.0703 195.656C36.0703 194.776 36.4036 194.094 37.0703 193.609C37.7422 193.12 38.6849 192.875 39.8984 192.875H41.3047V192.211C41.3047 191.706 41.1536 191.305 40.8516 191.008C40.5495 190.706 40.1042 190.555 39.5156 190.555C39 190.555 38.5677 190.685 38.2188 190.945C37.8698 191.206 37.6953 191.521 37.6953 191.891H36.2422C36.2422 191.469 36.3906 191.062 36.6875 190.672C36.9896 190.276 37.3958 189.964 37.9062 189.734C38.4219 189.505 38.987 189.391 39.6016 189.391C40.5755 189.391 41.3385 189.635 41.8906 190.125C42.4427 190.609 42.7292 191.279 42.75 192.133V196.023C42.75 196.799 42.849 197.417 43.0469 197.875V198H41.5312ZM39.1328 196.898C39.5859 196.898 40.0156 196.781 40.4219 196.547C40.8281 196.312 41.1224 196.008 41.3047 195.633V193.898H40.1719C38.401 193.898 37.5156 194.417 37.5156 195.453C37.5156 195.906 37.6667 196.26 37.9688 196.516C38.2708 196.771 38.6589 196.898 39.1328 196.898ZM46.375 189.547L46.4141 190.484C47.0339 189.755 47.8698 189.391 48.9219 189.391C50.1042 189.391 50.9089 189.844 51.3359 190.75C51.6172 190.344 51.9818 190.016 52.4297 189.766C52.8828 189.516 53.4167 189.391 54.0312 189.391C55.8854 189.391 56.8281 190.372 56.8594 192.336V198H55.4141V192.422C55.4141 191.818 55.276 191.367 55 191.07C54.724 190.768 54.2604 190.617 53.6094 190.617C53.0729 190.617 52.6276 190.779 52.2734 191.102C51.9193 191.419 51.7135 191.849 51.6562 192.391V198H50.2031V192.461C50.2031 191.232 49.6016 190.617 48.3984 190.617C47.4505 190.617 46.8021 191.021 46.4531 191.828V198H45.0078V189.547H46.375ZM60.6172 198H59.1719V189.547H60.6172V198ZM59.0547 187.305C59.0547 187.07 59.125 186.872 59.2656 186.711C59.4115 186.549 59.625 186.469 59.9062 186.469C60.1875 186.469 60.401 186.549 60.5469 186.711C60.6927 186.872 60.7656 187.07 60.7656 187.305C60.7656 187.539 60.6927 187.734 60.5469 187.891C60.401 188.047 60.1875 188.125 59.9062 188.125C59.625 188.125 59.4115 188.047 59.2656 187.891C59.125 187.734 59.0547 187.539 59.0547 187.305ZM64.5078 198H63.0625V186H64.5078V198ZM69.5938 195.883L71.5625 189.547H73.1094L69.7109 199.305C69.1849 200.711 68.349 201.414 67.2031 201.414L66.9297 201.391L66.3906 201.289V200.117L66.7812 200.148C67.2708 200.148 67.651 200.049 67.9219 199.852C68.1979 199.654 68.4245 199.292 68.6016 198.766L68.9219 197.906L65.9062 189.547H67.4844L69.5938 195.883ZM81.3828 193.758H77.5703V192.578H81.3828V193.758ZM87.2812 192.297L87.8594 186.625H93.6875V187.961H89.0859L88.7422 191.062C89.2995 190.734 89.9323 190.57 90.6406 190.57C91.6771 190.57 92.5 190.914 93.1094 191.602C93.7188 192.284 94.0234 193.208 94.0234 194.375C94.0234 195.547 93.7057 196.471 93.0703 197.148C92.4401 197.82 91.5573 198.156 90.4219 198.156C89.4167 198.156 88.5964 197.878 87.9609 197.32C87.3255 196.763 86.9635 195.992 86.875 195.008H88.2422C88.3307 195.659 88.5625 196.151 88.9375 196.484C89.3125 196.812 89.8073 196.977 90.4219 196.977C91.0938 196.977 91.6198 196.747 92 196.289C92.3854 195.831 92.5781 195.198 92.5781 194.391C92.5781 193.63 92.3698 193.021 91.9531 192.562C91.5417 192.099 90.9922 191.867 90.3047 191.867C89.6745 191.867 89.1797 192.005 88.8203 192.281L88.4375 192.594L87.2812 192.297ZM102.734 193.148C102.734 194.841 102.445 196.099 101.867 196.922C101.289 197.745 100.385 198.156 99.1562 198.156C97.9427 198.156 97.0443 197.755 96.4609 196.953C95.8776 196.146 95.5755 194.943 95.5547 193.344V191.414C95.5547 189.742 95.8438 188.5 96.4219 187.688C97 186.875 97.9062 186.469 99.1406 186.469C100.365 186.469 101.266 186.862 101.844 187.648C102.422 188.43 102.719 189.638 102.734 191.273V193.148ZM101.289 191.172C101.289 189.948 101.117 189.057 100.773 188.5C100.43 187.938 99.8854 187.656 99.1406 187.656C98.401 187.656 97.862 187.935 97.5234 188.492C97.1849 189.049 97.0104 189.906 97 191.062V193.375C97 194.604 97.1771 195.513 97.5312 196.102C97.8906 196.685 98.4323 196.977 99.1562 196.977C99.8698 196.977 100.398 196.701 100.742 196.148C101.091 195.596 101.273 194.727 101.289 193.539V191.172ZM104.461 188.812C104.461 188.13 104.677 187.568 105.109 187.125C105.547 186.682 106.107 186.461 106.789 186.461C107.482 186.461 108.042 186.685 108.469 187.133C108.901 187.576 109.117 188.151 109.117 188.859V189.414C109.117 190.102 108.898 190.664 108.461 191.102C108.029 191.534 107.477 191.75 106.805 191.75C106.128 191.75 105.568 191.534 105.125 191.102C104.682 190.664 104.461 190.083 104.461 189.359V188.812ZM105.539 189.414C105.539 189.82 105.654 190.156 105.883 190.422C106.112 190.682 106.419 190.812 106.805 190.812C107.174 190.812 107.471 190.685 107.695 190.43C107.924 190.174 108.039 189.826 108.039 189.383V188.812C108.039 188.406 107.927 188.07 107.703 187.805C107.479 187.539 107.174 187.406 106.789 187.406C106.404 187.406 106.099 187.539 105.875 187.805C105.651 188.07 105.539 188.417 105.539 188.844V189.414ZM110 195.211C110 194.529 110.216 193.969 110.648 193.531C111.086 193.089 111.646 192.867 112.328 192.867C113.01 192.867 113.57 193.086 114.008 193.523C114.445 193.961 114.664 194.542 114.664 195.266V195.82C114.664 196.503 114.445 197.065 114.008 197.508C113.576 197.945 113.021 198.164 112.344 198.164C111.667 198.164 111.107 197.948 110.664 197.516C110.221 197.078 110 196.497 110 195.773V195.211ZM111.078 195.82C111.078 196.232 111.193 196.57 111.422 196.836C111.651 197.096 111.958 197.227 112.344 197.227C112.719 197.227 113.018 197.099 113.242 196.844C113.466 196.583 113.578 196.232 113.578 195.789V195.211C113.578 194.799 113.464 194.464 113.234 194.203C113.01 193.943 112.708 193.812 112.328 193.812C111.958 193.812 111.656 193.943 111.422 194.203C111.193 194.458 111.078 194.805 111.078 195.242V195.82ZM107.133 197.141L106.312 196.625L111.867 187.734L112.688 188.25L107.133 197.141Z" fill="black"/>
<path d="M30.0703 220.93C28.7839 220.56 27.8464 220.107 27.2578 219.57C26.6745 219.029 26.3828 218.362 26.3828 217.57C26.3828 216.674 26.7396 215.935 27.4531 215.352C28.1719 214.763 29.1042 214.469 30.25 214.469C31.0312 214.469 31.7266 214.62 32.3359 214.922C32.9505 215.224 33.4245 215.641 33.7578 216.172C34.0964 216.703 34.2656 217.284 34.2656 217.914H32.7578C32.7578 217.227 32.5391 216.688 32.1016 216.297C31.6641 215.901 31.0469 215.703 30.25 215.703C29.5104 215.703 28.9323 215.867 28.5156 216.195C28.1042 216.518 27.8984 216.969 27.8984 217.547C27.8984 218.01 28.0938 218.404 28.4844 218.727C28.8802 219.044 29.5495 219.336 30.4922 219.602C31.4401 219.867 32.1797 220.161 32.7109 220.484C33.2474 220.802 33.6432 221.174 33.8984 221.602C34.1589 222.029 34.2891 222.531 34.2891 223.109C34.2891 224.031 33.9297 224.771 33.2109 225.328C32.4922 225.88 31.5312 226.156 30.3281 226.156C29.5469 226.156 28.8177 226.008 28.1406 225.711C27.4635 225.409 26.9401 224.997 26.5703 224.477C26.2057 223.956 26.0234 223.365 26.0234 222.703H27.5312C27.5312 223.391 27.7839 223.935 28.2891 224.336C28.7995 224.732 29.4792 224.93 30.3281 224.93C31.1198 224.93 31.7266 224.768 32.1484 224.445C32.5703 224.122 32.7812 223.682 32.7812 223.125C32.7812 222.568 32.5859 222.138 32.1953 221.836C31.8047 221.529 31.0964 221.227 30.0703 220.93ZM43.1328 221.867C43.1328 223.154 42.8385 224.19 42.25 224.977C41.6615 225.763 40.8646 226.156 39.8594 226.156C38.8333 226.156 38.026 225.831 37.4375 225.18V229.25H35.9922V217.547H37.3125L37.3828 218.484C37.9714 217.755 38.7891 217.391 39.8359 217.391C40.8516 217.391 41.6536 217.773 42.2422 218.539C42.8359 219.305 43.1328 220.37 43.1328 221.734V221.867ZM41.6875 221.703C41.6875 220.75 41.4844 219.997 41.0781 219.445C40.6719 218.893 40.1146 218.617 39.4062 218.617C38.5312 218.617 37.875 219.005 37.4375 219.781V223.82C37.8698 224.591 38.5312 224.977 39.4219 224.977C40.1146 224.977 40.6641 224.703 41.0703 224.156C41.4818 223.604 41.6875 222.786 41.6875 221.703ZM49.0625 218.844C48.8438 218.807 48.6068 218.789 48.3516 218.789C47.4036 218.789 46.7604 219.193 46.4219 220V226H44.9766V217.547H46.3828L46.4062 218.523C46.8802 217.768 47.5521 217.391 48.4219 217.391C48.7031 217.391 48.9167 217.427 49.0625 217.5V218.844ZM51.9688 226H50.5234V217.547H51.9688V226ZM50.4062 215.305C50.4062 215.07 50.4766 214.872 50.6172 214.711C50.763 214.549 50.9766 214.469 51.2578 214.469C51.5391 214.469 51.7526 214.549 51.8984 214.711C52.0443 214.872 52.1172 215.07 52.1172 215.305C52.1172 215.539 52.0443 215.734 51.8984 215.891C51.7526 216.047 51.5391 216.125 51.2578 216.125C50.9766 216.125 50.763 216.047 50.6172 215.891C50.4766 215.734 50.4062 215.539 50.4062 215.305ZM56.25 215.5V217.547H57.8281V218.664H56.25V223.906C56.25 224.245 56.3203 224.5 56.4609 224.672C56.6016 224.839 56.8411 224.922 57.1797 224.922C57.3464 224.922 57.5755 224.891 57.8672 224.828V226C57.487 226.104 57.1172 226.156 56.7578 226.156C56.112 226.156 55.625 225.961 55.2969 225.57C54.9688 225.18 54.8047 224.625 54.8047 223.906V218.664H53.2656V217.547H54.8047V215.5H56.25ZM64.7422 225.164C64.1797 225.826 63.3542 226.156 62.2656 226.156C61.3646 226.156 60.6771 225.896 60.2031 225.375C59.7344 224.849 59.4974 224.073 59.4922 223.047V217.547H60.9375V223.008C60.9375 224.289 61.4583 224.93 62.5 224.93C63.6042 224.93 64.3385 224.518 64.7031 223.695V217.547H66.1484V226H64.7734L64.7422 225.164ZM73.5703 226C73.487 225.833 73.4193 225.536 73.3672 225.109C72.6953 225.807 71.8932 226.156 70.9609 226.156C70.1276 226.156 69.4427 225.922 68.9062 225.453C68.375 224.979 68.1094 224.38 68.1094 223.656C68.1094 222.776 68.4427 222.094 69.1094 221.609C69.7812 221.12 70.724 220.875 71.9375 220.875H73.3438V220.211C73.3438 219.706 73.1927 219.305 72.8906 219.008C72.5885 218.706 72.1432 218.555 71.5547 218.555C71.0391 218.555 70.6068 218.685 70.2578 218.945C69.9089 219.206 69.7344 219.521 69.7344 219.891H68.2812C68.2812 219.469 68.4297 219.062 68.7266 218.672C69.0286 218.276 69.4349 217.964 69.9453 217.734C70.4609 217.505 71.026 217.391 71.6406 217.391C72.6146 217.391 73.3776 217.635 73.9297 218.125C74.4818 218.609 74.7682 219.279 74.7891 220.133V224.023C74.7891 224.799 74.888 225.417 75.0859 225.875V226H73.5703ZM71.1719 224.898C71.625 224.898 72.0547 224.781 72.4609 224.547C72.8672 224.312 73.1615 224.008 73.3438 223.633V221.898H72.2109C70.4401 221.898 69.5547 222.417 69.5547 223.453C69.5547 223.906 69.7057 224.26 70.0078 224.516C70.3099 224.771 70.6979 224.898 71.1719 224.898ZM78.625 226H77.1797V214H78.625V226ZM82.5156 226H81.0703V217.547H82.5156V226ZM80.9531 215.305C80.9531 215.07 81.0234 214.872 81.1641 214.711C81.3099 214.549 81.5234 214.469 81.8047 214.469C82.0859 214.469 82.2995 214.549 82.4453 214.711C82.5911 214.872 82.6641 215.07 82.6641 215.305C82.6641 215.539 82.5911 215.734 82.4453 215.891C82.2995 216.047 82.0859 216.125 81.8047 216.125C81.5234 216.125 81.3099 216.047 81.1641 215.891C81.0234 215.734 80.9531 215.539 80.9531 215.305ZM86.7969 215.5V217.547H88.375V218.664H86.7969V223.906C86.7969 224.245 86.8672 224.5 87.0078 224.672C87.1484 224.839 87.388 224.922 87.7266 224.922C87.8932 224.922 88.1224 224.891 88.4141 224.828V226C88.0339 226.104 87.6641 226.156 87.3047 226.156C86.6589 226.156 86.1719 225.961 85.8438 225.57C85.5156 225.18 85.3516 224.625 85.3516 223.906V218.664H83.8125V217.547H85.3516V215.5H86.7969ZM92.8359 223.883L94.8047 217.547H96.3516L92.9531 227.305C92.4271 228.711 91.5911 229.414 90.4453 229.414L90.1719 229.391L89.6328 229.289V228.117L90.0234 228.148C90.513 228.148 90.8932 228.049 91.1641 227.852C91.4401 227.654 91.6667 227.292 91.8438 226.766L92.1641 225.906L89.1484 217.547H90.7266L92.8359 223.883ZM104.625 221.758H100.812V220.578H104.625V221.758ZM117.203 215.438L112.492 226H110.977L115.672 215.812H109.516V214.625H117.203V215.438ZM119.508 220.297L120.086 214.625H125.914V215.961H121.312L120.969 219.062C121.526 218.734 122.159 218.57 122.867 218.57C123.904 218.57 124.727 218.914 125.336 219.602C125.945 220.284 126.25 221.208 126.25 222.375C126.25 223.547 125.932 224.471 125.297 225.148C124.667 225.82 123.784 226.156 122.648 226.156C121.643 226.156 120.823 225.878 120.188 225.32C119.552 224.763 119.19 223.992 119.102 223.008H120.469C120.557 223.659 120.789 224.151 121.164 224.484C121.539 224.812 122.034 224.977 122.648 224.977C123.32 224.977 123.846 224.747 124.227 224.289C124.612 223.831 124.805 223.198 124.805 222.391C124.805 221.63 124.596 221.021 124.18 220.562C123.768 220.099 123.219 219.867 122.531 219.867C121.901 219.867 121.406 220.005 121.047 220.281L120.664 220.594L119.508 220.297ZM127.703 216.812C127.703 216.13 127.919 215.568 128.352 215.125C128.789 214.682 129.349 214.461 130.031 214.461C130.724 214.461 131.284 214.685 131.711 215.133C132.143 215.576 132.359 216.151 132.359 216.859V217.414C132.359 218.102 132.141 218.664 131.703 219.102C131.271 219.534 130.719 219.75 130.047 219.75C129.37 219.75 128.81 219.534 128.367 219.102C127.924 218.664 127.703 218.083 127.703 217.359V216.812ZM128.781 217.414C128.781 217.82 128.896 218.156 129.125 218.422C129.354 218.682 129.661 218.812 130.047 218.812C130.417 218.812 130.714 218.685 130.938 218.43C131.167 218.174 131.281 217.826 131.281 217.383V216.812C131.281 216.406 131.169 216.07 130.945 215.805C130.721 215.539 130.417 215.406 130.031 215.406C129.646 215.406 129.341 215.539 129.117 215.805C128.893 216.07 128.781 216.417 128.781 216.844V217.414ZM133.242 223.211C133.242 222.529 133.458 221.969 133.891 221.531C134.328 221.089 134.888 220.867 135.57 220.867C136.253 220.867 136.812 221.086 137.25 221.523C137.688 221.961 137.906 222.542 137.906 223.266V223.82C137.906 224.503 137.688 225.065 137.25 225.508C136.818 225.945 136.263 226.164 135.586 226.164C134.909 226.164 134.349 225.948 133.906 225.516C133.464 225.078 133.242 224.497 133.242 223.773V223.211ZM134.32 223.82C134.32 224.232 134.435 224.57 134.664 224.836C134.893 225.096 135.201 225.227 135.586 225.227C135.961 225.227 136.26 225.099 136.484 224.844C136.708 224.583 136.82 224.232 136.82 223.789V223.211C136.82 222.799 136.706 222.464 136.477 222.203C136.253 221.943 135.951 221.812 135.57 221.812C135.201 221.812 134.898 221.943 134.664 222.203C134.435 222.458 134.32 222.805 134.32 223.242V223.82ZM130.375 225.141L129.555 224.625L135.109 215.734L135.93 216.25L130.375 225.141Z" fill="black"/>
<path d="M0 5C0 3.89543 0.89543 3 2 3H13C14.1046 3 15 3.89543 15 5V16C15 17.1046 14.1046 18 13 18H2C0.89543 18 0 17.1046 0 16V5Z" fill="#4073FF"/>
<path d="M0 37C0 35.8954 0.89543 35 2 35H13C14.1046 35 15 35.8954 15 37V48C15 49.1046 14.1046 50 13 50H2C0.89543 50 0 49.1046 0 48V37Z" fill="#B8255F"/>
<path d="M0 69C0 67.8954 0.89543 67 2 67H13C14.1046 67 15 67.8954 15 69V80C15 81.1046 14.1046 82 13 82H2C0.89543 82 0 81.1046 0 80V69Z" fill="#FF9933"/>
<path d="M0 100C0 98.8954 0.89543 98 2 98H13C14.1046 98 15 98.8954 15 100V111C15 112.105 14.1046 113 13 113H2C0.89543 113 0 112.105 0 111V100Z" fill="#FAD000"/>
<path d="M0 131C0 129.895 0.89543 129 2 129H13C14.1046 129 15 129.895 15 131V142C15 143.105 14.1046 144 13 144H2C0.89543 144 0 143.105 0 142V131Z" fill="#7ECC49"/>
<path d="M0 159C0 157.895 0.89543 157 2 157H13C14.1046 157 15 157.895 15 159V170C15 171.105 14.1046 172 13 172H2C0.89543 172 0 171.105 0 170V159Z" fill="#299438"/>
<path d="M0 188C0 186.895 0.89543 186 2 186H13C14.1046 186 15 186.895 15 188V199C15 200.105 14.1046 201 13 201H2C0.89543 201 0 200.105 0 199V188Z" fill="#FF8D82"/>
<path d="M0 215C0 213.895 0.89543 213 2 213H13C14.1046 213 15 213.895 15 215V226C15 227.105 14.1046 228 13 228H2C0.89543 228 0 227.105 0 226V215Z" fill="#96C3EB"/>
</svg>
