<svg width="52" height="52" viewBox="0 0 52 52" fill="none" xmlns="http://www.w3.org/2000/svg">
<g clip-path="url(#clip0)">
<path d="M38.3333 8.33333C38.3333 5.92833 40.2617 4 42.6667 4C45.0717 4 47 5.92833 47 8.33333C47 10.7383 45.0717 12.6667 42.6667 12.6667C40.2617 12.6667 38.3333 10.7383 38.3333 8.33333ZM47 47.3333V34.3333H52.4167L46.9133 17.8017C46.6235 16.9387 46.0705 16.1883 45.3321 15.6559C44.5937 15.1234 43.707 14.8358 42.7967 14.8333H42.5367C41.6255 14.8325 40.7373 15.1189 39.9983 15.6518C39.2593 16.1847 38.707 16.9369 38.42 17.8017L36.5567 23.3917C38.8967 24.6917 40.5 27.14 40.5 30V47.3333H47ZM30.75 24.5833C32.5483 24.5833 34 23.1317 34 21.3333C34 19.535 32.5483 18.0833 30.75 18.0833C28.9517 18.0833 27.5 19.535 27.5 21.3333C27.5 23.1317 28.9517 24.5833 30.75 24.5833ZM15.5833 12.6667C17.9883 12.6667 19.9167 10.7383 19.9167 8.33333C19.9167 5.92833 17.9883 4 15.5833 4C13.1783 4 11.25 5.92833 11.25 8.33333C11.25 10.7383 13.1783 12.6667 15.5833 12.6667ZM19.9167 47.3333V32.1667H23.1667V19.1667C23.1667 16.7833 21.2167 14.8333 18.8333 14.8333H12.3333C9.95 14.8333 8 16.7833 8 19.1667V32.1667H11.25V47.3333H19.9167ZM34 47.3333V38.6667H36.1667V30C36.1667 28.2233 34.6933 26.75 32.9167 26.75H28.5833C26.8067 26.75 25.3333 28.2233 25.3333 30V38.6667H27.5V47.3333H34Z" fill="#EE2E3D"/>
</g>
<defs>
<clipPath id="clip0">
<rect width="52" height="52" fill="white"/>
</clipPath>
</defs>
</svg>
