<svg width="44" height="44" viewBox="0 0 44 44" fill="none" xmlns="http://www.w3.org/2000/svg">
<path d="M15.3333 13.1111H28.6667H15.3333ZM17.5556 13.1111C18.431 13.1111 19.2979 13.2835 20.1068 13.6186C20.9156 13.9536 21.6505 14.4447 22.2696 15.0637C22.8887 15.6828 23.3797 16.4177 23.7148 17.2266C24.0498 18.0354 24.2222 18.9023 24.2222 19.7778C24.2222 20.6533 24.0498 21.5202 23.7148 22.329C23.3797 23.1378 22.8887 23.8728 22.2696 24.4918C21.6505 25.1109 20.9156 25.6019 20.1068 25.937C19.2979 26.272 18.431 26.4444 17.5556 26.4444H15.3333L22 33.1111L17.5556 13.1111ZM15.3333 19.7778H28.6667H15.3333ZM42 22C42 24.6264 41.4827 27.2272 40.4776 29.6537C39.4725 32.0802 37.9993 34.285 36.1421 36.1421C34.285 37.9993 32.0802 39.4725 29.6537 40.4776C27.2272 41.4827 24.6264 42 22 42C19.3736 42 16.7728 41.4827 14.3463 40.4776C11.9198 39.4725 9.71504 37.9993 7.85786 36.1421C6.00069 34.285 4.5275 32.0802 3.52241 29.6537C2.51732 27.2272 2 24.6264 2 22C2 16.6957 4.10714 11.6086 7.85786 7.85786C11.6086 4.10714 16.6957 2 22 2C27.3043 2 32.3914 4.10714 36.1421 7.85786C39.8929 11.6086 42 16.6957 42 22Z" stroke="#EE2E3D" stroke-width="4" stroke-linecap="round" stroke-linejoin="round"/>
</svg>
