<svg width="52" height="52" viewBox="0 0 52 52" fill="none" xmlns="http://www.w3.org/2000/svg">
<path d="M50.375 30.472C50.375 28.9469 49.6494 27.4121 48.2519 26.598C48.5696 25.0144 48.8028 23.1823 48.8028 21.1266C48.802 12.1883 42.4166 1.625 26 1.625C9.58181 1.625 3.198 12.1883 3.198 21.1266C3.198 23.1814 3.43119 25.0128 3.74887 26.5964C2.34894 27.4105 1.625 28.9469 1.625 30.472C1.625 32.1799 2.53906 33.8934 4.28756 34.5979C2.38063 38.1908 1.57544 43.3509 3.56769 46.9917C4.42975 48.5672 12.2606 53.5884 14.8614 47.2696C17.8352 48.6801 21.5312 49.5674 26 49.5674C30.4688 49.5674 34.1632 48.6801 37.1369 47.2696C39.7394 53.5884 47.5694 48.568 48.4323 46.9917C50.4221 43.3517 49.6178 38.1924 47.71 34.5979C49.4593 33.8934 50.375 32.1807 50.375 30.472ZM26.0081 4.875C38.0323 4.875 46.0509 11.3758 46.0509 19.5016C46.0509 19.5016 43.6451 7.31331 26.0081 7.31331C8.37119 7.31331 5.16263 19.5016 5.16263 19.5016C5.16263 11.3758 13.9823 4.875 26.0081 4.875ZM45.1352 33.3158V34.1283C45.1352 39.8653 39.1982 47.9424 26 47.9424C12.8001 47.9424 6.86319 39.8653 6.86319 34.1283V33.3158H6.0775C4.08769 33.3158 3.19719 31.8874 3.19719 30.472C3.19719 29.0566 4.08769 27.6283 6.0775 27.6283H6.227L6.36675 27.5714C6.4415 27.5413 13.2129 24.6732 13.1398 16.2638C20.8382 23.7177 40.8761 24.9762 45.1352 25.1623V27.6291H45.9225C47.9107 27.6291 48.8028 29.0574 48.8028 30.4728C48.8028 31.8882 47.9107 33.3166 45.9225 33.3166H45.1352V33.3158Z" fill="#EE2E3D"/>
<path d="M36.1562 33.722C38.3999 33.722 40.2188 31.9031 40.2188 29.6595C40.2188 27.4158 38.3999 25.597 36.1562 25.597C33.9126 25.597 32.0938 27.4158 32.0938 29.6595C32.0938 31.9031 33.9126 33.722 36.1562 33.722Z" fill="#EE2E3D"/>
<path d="M15.8438 33.722C18.0874 33.722 19.9062 31.9031 19.9062 29.6595C19.9062 27.4158 18.0874 25.597 15.8438 25.597C13.6001 25.597 11.7812 27.4158 11.7812 29.6595C11.7812 31.9031 13.6001 33.722 15.8438 33.722Z" fill="#EE2E3D"/>
<path d="M32.5735 43.7745C28.3363 40.8495 23.636 40.8673 19.4256 43.7745C18.9211 44.1255 18.4636 43.5194 18.8065 42.9571C20.087 40.8673 22.6805 39.0027 25.9987 39.0027C29.3186 39.0027 31.9113 40.8673 33.1926 42.9571C33.5379 43.5194 33.0813 44.1255 32.5735 43.7745Z" fill="#EE2E3D"/>
</svg>
