<svg width="52" height="52" viewBox="0 0 52 52" fill="none" xmlns="http://www.w3.org/2000/svg">
<path d="M30.875 4.875V8.125H36.7152L29.5539 15.2848C27.5964 13.8004 25.2066 12.9979 22.75 13C16.4856 13 11.375 18.1106 11.375 24.375C11.375 30.0885 15.6276 34.8043 21.125 35.5973V40.625H16.25V43.875H21.125V48.75H24.375V43.875H29.25V40.625H24.375V35.5973C29.8724 34.8043 34.125 30.0885 34.125 24.375C34.1274 21.9178 33.3249 19.5274 31.8402 17.5695L39 10.4114V16.25H42.25V4.875H30.875ZM22.75 16.25C27.2561 16.25 30.875 19.8689 30.875 24.375C30.875 28.8811 27.2561 32.5 22.75 32.5C18.2439 32.5 14.625 28.8811 14.625 24.375C14.625 19.8689 18.2439 16.25 22.75 16.25Z" fill="#EE2E3D"/>
</svg>
