<svg width="35" height="24" viewBox="0 0 35 24" fill="none" xmlns="http://www.w3.org/2000/svg">
<path d="M35 21V3C35 1.34 33.6214 0 31.9136 0H3.08642C1.3786 0 0 1.34 0 3V21C0 22.66 1.3786 24 3.08642 24H31.9136C33.6214 24 35 22.66 35 21ZM32.3045 2.78C32.9835 3.44 32.6132 4.12 32.2428 4.46L23.8889 11.9L31.9136 20.02C32.1605 20.3 32.3251 20.74 32.037 21.04C31.7695 21.36 31.1523 21.34 30.8848 21.14L21.893 13.68L17.4897 17.58L13.107 13.68L4.11523 21.14C3.84774 21.34 3.23045 21.36 2.96296 21.04C2.6749 20.74 2.83951 20.3 3.08642 20.02L11.1111 11.9L2.7572 4.46C2.38683 4.12 2.01646 3.44 2.69547 2.78C3.37449 2.12 4.07407 2.44 4.65021 2.92L17.4897 13L30.3498 2.92C30.9259 2.44 31.6255 2.12 32.3045 2.78V2.78Z" fill="#EE2E3D"/>
</svg>
