<svg width="39" height="39" viewBox="0 0 39 39" fill="none" xmlns="http://www.w3.org/2000/svg">
<path d="M24.8449 23.85C24.6064 23.772 23.0989 23.0925 24.0409 20.229H24.0274C26.4829 17.7 28.3594 13.6305 28.3594 9.62404C28.3594 3.46354 24.2629 0.234039 19.5019 0.234039C14.7379 0.234039 10.6639 3.46204 10.6639 9.62404C10.6639 13.647 12.5299 17.733 15.0004 20.256C15.9634 22.782 14.2414 23.7195 13.8814 23.8515C8.89541 25.6545 3.04541 28.941 3.04541 32.1855V33.402C3.04541 37.8225 11.6164 38.8275 19.5484 38.8275C27.4924 38.8275 35.9554 37.8225 35.9554 33.402V32.1855C35.9554 28.8435 30.0769 25.5825 24.8449 23.85Z" fill="#EE2E3D"/>
</svg>
