<svg width="110" height="110" viewBox="0 0 110 110" fill="none" xmlns="http://www.w3.org/2000/svg">
<path fill-rule="evenodd" clip-rule="evenodd" d="M55.0001 13.75C49.3169 13.7443 43.8344 15.8505 39.6169 19.6596C35.3993 23.4688 32.7475 28.7092 32.1764 34.3636C31.6052 40.0179 33.1554 45.6828 36.5261 50.2584C39.8967 54.8341 44.8473 57.9941 50.4167 59.125V68.75H36.6667V77.9167H50.4167V96.25H59.5834V77.9167H73.3334V68.75H59.5834V59.125C65.1354 57.975 70.0643 54.8083 73.4181 50.2367C76.772 45.6651 78.3128 40.0129 77.7429 34.3717C77.1731 28.7306 74.5331 23.5006 70.3328 19.6921C66.1325 15.8835 60.6699 13.7665 55.0001 13.75V13.75ZM41.2501 36.6667C41.2501 40.3134 42.6987 43.8108 45.2773 46.3894C47.856 48.968 51.3533 50.4167 55.0001 50.4167C58.6468 50.4167 62.1441 48.968 64.7228 46.3894C67.3014 43.8108 68.7501 40.3134 68.7501 36.6667C68.7501 33.02 67.3014 29.5226 64.7228 26.944C62.1441 24.3653 58.6468 22.9167 55.0001 22.9167C51.3533 22.9167 47.856 24.3653 45.2773 26.944C42.6987 29.5226 41.2501 33.02 41.2501 36.6667V36.6667Z" fill="#EE2E3D"/>
</svg>
