<svg width="321" height="212" viewBox="0 0 321 212" fill="none" xmlns="http://www.w3.org/2000/svg">
<line x1="28" y1="7.5" x2="320" y2="7.47603" stroke="#E5E5E5"/>
<line x1="28.0051" y1="46.5" x2="320.005" y2="49.5" stroke="#E5E5E5"/>
<line x1="28.0017" y1="87.5" x2="320.002" y2="88.5" stroke="#E5E5E5"/>
<line x1="27.9983" y1="127.5" x2="319.998" y2="126.5" stroke="#E5E5E5"/>
<line x1="27.9964" y1="167.5" x2="319.995" y2="165.389" stroke="#E5E5E5"/>
<line x1="27.9983" y1="208.5" x2="319.998" y2="207.51" stroke="#E5E5E5"/>
<rect x="48" y="56" width="14" height="153" fill="#4073FF"/>
<rect x="82" y="154" width="14" height="55" fill="#B8255F"/>
<rect x="116" y="108" width="14" height="100" fill="#FF9933"/>
<rect x="150" y="7" width="14" height="201" fill="#FAD000"/>
<rect x="184" y="7" width="14" height="201" fill="#7ECC49"/>
<rect x="218" y="108" width="14" height="100" fill="#299438"/>
<rect x="252" y="108" width="14" height="101" fill="#FF8D82"/>
<rect x="286" y="56" width="14" height="152" fill="#96C3EB"/>
<path d="M14.2949 207.361C14.2949 208.631 14.0781 209.574 13.6445 210.191C13.2109 210.809 12.5332 211.117 11.6113 211.117C10.7012 211.117 10.0273 210.816 9.58984 210.215C9.15234 209.609 8.92578 208.707 8.91016 207.508V206.061C8.91016 204.807 9.12695 203.875 9.56055 203.266C9.99414 202.656 10.6738 202.352 11.5996 202.352C12.5176 202.352 13.1934 202.646 13.627 203.236C14.0605 203.822 14.2832 204.729 14.2949 205.955V207.361ZM13.2109 205.879C13.2109 204.961 13.082 204.293 12.8242 203.875C12.5664 203.453 12.1582 203.242 11.5996 203.242C11.0449 203.242 10.6406 203.451 10.3867 203.869C10.1328 204.287 10.002 204.93 9.99414 205.797V207.531C9.99414 208.453 10.127 209.135 10.3926 209.576C10.6621 210.014 11.0684 210.232 11.6113 210.232C12.1465 210.232 12.543 210.025 12.8008 209.611C13.0625 209.197 13.1992 208.545 13.2109 207.654V205.879ZM15.5898 204.109C15.5898 203.598 15.752 203.176 16.0762 202.844C16.4043 202.512 16.8242 202.346 17.3359 202.346C17.8555 202.346 18.2754 202.514 18.5957 202.85C18.9199 203.182 19.082 203.613 19.082 204.145V204.561C19.082 205.076 18.918 205.498 18.5898 205.826C18.2656 206.15 17.8516 206.312 17.3477 206.312C16.8398 206.312 16.4199 206.15 16.0879 205.826C15.7559 205.498 15.5898 205.062 15.5898 204.52V204.109ZM16.3984 204.561C16.3984 204.865 16.4844 205.117 16.6562 205.316C16.8281 205.512 17.0586 205.609 17.3477 205.609C17.625 205.609 17.8477 205.514 18.0156 205.322C18.1875 205.131 18.2734 204.869 18.2734 204.537V204.109C18.2734 203.805 18.1895 203.553 18.0215 203.354C17.8535 203.154 17.625 203.055 17.3359 203.055C17.0469 203.055 16.8184 203.154 16.6504 203.354C16.4824 203.553 16.3984 203.812 16.3984 204.133V204.561ZM19.7441 208.908C19.7441 208.396 19.9062 207.977 20.2305 207.648C20.5586 207.316 20.9785 207.15 21.4902 207.15C22.002 207.15 22.4219 207.314 22.75 207.643C23.0781 207.971 23.2422 208.406 23.2422 208.949V209.365C23.2422 209.877 23.0781 210.299 22.75 210.631C22.4258 210.959 22.0098 211.123 21.502 211.123C20.9941 211.123 20.5742 210.961 20.2422 210.637C19.9102 210.309 19.7441 209.873 19.7441 209.33V208.908ZM20.5527 209.365C20.5527 209.674 20.6387 209.928 20.8105 210.127C20.9824 210.322 21.2129 210.42 21.502 210.42C21.7832 210.42 22.0078 210.324 22.1758 210.133C22.3438 209.938 22.4277 209.674 22.4277 209.342V208.908C22.4277 208.6 22.3418 208.348 22.1699 208.152C22.002 207.957 21.7754 207.859 21.4902 207.859C21.2129 207.859 20.9863 207.957 20.8105 208.152C20.6387 208.344 20.5527 208.604 20.5527 208.932V209.365ZM17.5938 210.355L16.9785 209.969L21.1445 203.301L21.7598 203.688L17.5938 210.355Z" fill="black"/>
<path d="M9.66602 171H4.07617V170.221L7.0293 166.939C7.4668 166.443 7.76758 166.041 7.93164 165.732C8.09961 165.42 8.18359 165.098 8.18359 164.766C8.18359 164.32 8.04883 163.955 7.7793 163.67C7.50977 163.385 7.15039 163.242 6.70117 163.242C6.16211 163.242 5.74219 163.396 5.44141 163.705C5.14453 164.01 4.99609 164.436 4.99609 164.982H3.91211C3.91211 164.197 4.16406 163.562 4.66797 163.078C5.17578 162.594 5.85352 162.352 6.70117 162.352C7.49414 162.352 8.12109 162.561 8.58203 162.979C9.04297 163.393 9.27344 163.945 9.27344 164.637C9.27344 165.477 8.73828 166.477 7.66797 167.637L5.38281 170.115H9.66602V171ZM16.1641 167.361C16.1641 168.631 15.9473 169.574 15.5137 170.191C15.0801 170.809 14.4023 171.117 13.4805 171.117C12.5703 171.117 11.8965 170.816 11.459 170.215C11.0215 169.609 10.7949 168.707 10.7793 167.508V166.061C10.7793 164.807 10.9961 163.875 11.4297 163.266C11.8633 162.656 12.543 162.352 13.4688 162.352C14.3867 162.352 15.0625 162.646 15.4961 163.236C15.9297 163.822 16.1523 164.729 16.1641 165.955V167.361ZM15.0801 165.879C15.0801 164.961 14.9512 164.293 14.6934 163.875C14.4355 163.453 14.0273 163.242 13.4688 163.242C12.9141 163.242 12.5098 163.451 12.2559 163.869C12.002 164.287 11.8711 164.93 11.8633 165.797V167.531C11.8633 168.453 11.9961 169.135 12.2617 169.576C12.5312 170.014 12.9375 170.232 13.4805 170.232C14.0156 170.232 14.4121 170.025 14.6699 169.611C14.9316 169.197 15.0684 168.545 15.0801 167.654V165.879ZM17.459 164.109C17.459 163.598 17.6211 163.176 17.9453 162.844C18.2734 162.512 18.6934 162.346 19.2051 162.346C19.7246 162.346 20.1445 162.514 20.4648 162.85C20.7891 163.182 20.9512 163.613 20.9512 164.145V164.561C20.9512 165.076 20.7871 165.498 20.459 165.826C20.1348 166.15 19.7207 166.312 19.2168 166.312C18.709 166.312 18.2891 166.15 17.957 165.826C17.625 165.498 17.459 165.062 17.459 164.52V164.109ZM18.2676 164.561C18.2676 164.865 18.3535 165.117 18.5254 165.316C18.6973 165.512 18.9277 165.609 19.2168 165.609C19.4941 165.609 19.7168 165.514 19.8848 165.322C20.0566 165.131 20.1426 164.869 20.1426 164.537V164.109C20.1426 163.805 20.0586 163.553 19.8906 163.354C19.7227 163.154 19.4941 163.055 19.2051 163.055C18.916 163.055 18.6875 163.154 18.5195 163.354C18.3516 163.553 18.2676 163.812 18.2676 164.133V164.561ZM21.6133 168.908C21.6133 168.396 21.7754 167.977 22.0996 167.648C22.4277 167.316 22.8477 167.15 23.3594 167.15C23.8711 167.15 24.291 167.314 24.6191 167.643C24.9473 167.971 25.1113 168.406 25.1113 168.949V169.365C25.1113 169.877 24.9473 170.299 24.6191 170.631C24.2949 170.959 23.8789 171.123 23.3711 171.123C22.8633 171.123 22.4434 170.961 22.1113 170.637C21.7793 170.309 21.6133 169.873 21.6133 169.33V168.908ZM22.4219 169.365C22.4219 169.674 22.5078 169.928 22.6797 170.127C22.8516 170.322 23.082 170.42 23.3711 170.42C23.6523 170.42 23.877 170.324 24.0449 170.133C24.2129 169.938 24.2969 169.674 24.2969 169.342V168.908C24.2969 168.6 24.2109 168.348 24.0391 168.152C23.8711 167.957 23.6445 167.859 23.3594 167.859C23.082 167.859 22.8555 167.957 22.6797 168.152C22.5078 168.344 22.4219 168.604 22.4219 168.932V169.365ZM19.4629 170.355L18.8477 169.969L23.0137 163.301L23.6289 163.688L19.4629 170.355Z" fill="black"/>
<path d="M8.15234 129.135H9.33594V130.02H8.15234V132H7.0625V130.02H3.17773V129.381L6.99805 123.469H8.15234V129.135ZM4.4082 129.135H7.0625V124.951L6.93359 125.186L4.4082 129.135ZM15.6641 128.361C15.6641 129.631 15.4473 130.574 15.0137 131.191C14.5801 131.809 13.9023 132.117 12.9805 132.117C12.0703 132.117 11.3965 131.816 10.959 131.215C10.5215 130.609 10.2949 129.707 10.2793 128.508V127.061C10.2793 125.807 10.4961 124.875 10.9297 124.266C11.3633 123.656 12.043 123.352 12.9688 123.352C13.8867 123.352 14.5625 123.646 14.9961 124.236C15.4297 124.822 15.6523 125.729 15.6641 126.955V128.361ZM14.5801 126.879C14.5801 125.961 14.4512 125.293 14.1934 124.875C13.9355 124.453 13.5273 124.242 12.9688 124.242C12.4141 124.242 12.0098 124.451 11.7559 124.869C11.502 125.287 11.3711 125.93 11.3633 126.797V128.531C11.3633 129.453 11.4961 130.135 11.7617 130.576C12.0312 131.014 12.4375 131.232 12.9805 131.232C13.5156 131.232 13.9121 131.025 14.1699 130.611C14.4316 130.197 14.5684 129.545 14.5801 128.654V126.879ZM16.959 125.109C16.959 124.598 17.1211 124.176 17.4453 123.844C17.7734 123.512 18.1934 123.346 18.7051 123.346C19.2246 123.346 19.6445 123.514 19.9648 123.85C20.2891 124.182 20.4512 124.613 20.4512 125.145V125.561C20.4512 126.076 20.2871 126.498 19.959 126.826C19.6348 127.15 19.2207 127.312 18.7168 127.312C18.209 127.312 17.7891 127.15 17.457 126.826C17.125 126.498 16.959 126.062 16.959 125.52V125.109ZM17.7676 125.561C17.7676 125.865 17.8535 126.117 18.0254 126.316C18.1973 126.512 18.4277 126.609 18.7168 126.609C18.9941 126.609 19.2168 126.514 19.3848 126.322C19.5566 126.131 19.6426 125.869 19.6426 125.537V125.109C19.6426 124.805 19.5586 124.553 19.3906 124.354C19.2227 124.154 18.9941 124.055 18.7051 124.055C18.416 124.055 18.1875 124.154 18.0195 124.354C17.8516 124.553 17.7676 124.812 17.7676 125.133V125.561ZM21.1133 129.908C21.1133 129.396 21.2754 128.977 21.5996 128.648C21.9277 128.316 22.3477 128.15 22.8594 128.15C23.3711 128.15 23.791 128.314 24.1191 128.643C24.4473 128.971 24.6113 129.406 24.6113 129.949V130.365C24.6113 130.877 24.4473 131.299 24.1191 131.631C23.7949 131.959 23.3789 132.123 22.8711 132.123C22.3633 132.123 21.9434 131.961 21.6113 131.637C21.2793 131.309 21.1133 130.873 21.1133 130.33V129.908ZM21.9219 130.365C21.9219 130.674 22.0078 130.928 22.1797 131.127C22.3516 131.322 22.582 131.42 22.8711 131.42C23.1523 131.42 23.377 131.324 23.5449 131.133C23.7129 130.938 23.7969 130.674 23.7969 130.342V129.908C23.7969 129.6 23.7109 129.348 23.5391 129.152C23.3711 128.957 23.1445 128.859 22.8594 128.859C22.582 128.859 22.3555 128.957 22.1797 129.152C22.0078 129.344 21.9219 129.604 21.9219 129.932V130.365ZM18.9629 131.355L18.3477 130.969L22.5137 124.301L23.1289 124.688L18.9629 131.355Z" fill="black"/>
<path d="M6.83008 82.4629V83.3828H6.63086C5.78711 83.3984 5.11523 83.6484 4.61523 84.1328C4.11523 84.6172 3.82617 85.2988 3.74805 86.1777C4.19727 85.6621 4.81055 85.4043 5.58789 85.4043C6.33008 85.4043 6.92188 85.666 7.36328 86.1895C7.80859 86.7129 8.03125 87.3887 8.03125 88.2168C8.03125 89.0957 7.79102 89.7988 7.31055 90.3262C6.83398 90.8535 6.19336 91.1172 5.38867 91.1172C4.57227 91.1172 3.91016 90.8047 3.40234 90.1797C2.89453 89.5508 2.64062 88.7422 2.64062 87.7539V87.3379C2.64062 85.7676 2.97461 84.5684 3.64258 83.7402C4.31445 82.9082 5.3125 82.4824 6.63672 82.4629H6.83008ZM5.40625 86.3066C5.03516 86.3066 4.69336 86.418 4.38086 86.6406C4.06836 86.8633 3.85156 87.1426 3.73047 87.4785V87.877C3.73047 88.5801 3.88867 89.1465 4.20508 89.5762C4.52148 90.0059 4.91602 90.2207 5.38867 90.2207C5.87695 90.2207 6.25977 90.041 6.53711 89.6816C6.81836 89.3223 6.95898 88.8516 6.95898 88.2695C6.95898 87.6836 6.81641 87.2109 6.53125 86.8516C6.25 86.4883 5.875 86.3066 5.40625 86.3066ZM14.6641 87.3613C14.6641 88.6309 14.4473 89.5742 14.0137 90.1914C13.5801 90.8086 12.9023 91.1172 11.9805 91.1172C11.0703 91.1172 10.3965 90.8164 9.95898 90.2148C9.52148 89.6094 9.29492 88.707 9.2793 87.5078V86.0605C9.2793 84.8066 9.49609 83.875 9.92969 83.2656C10.3633 82.6562 11.043 82.3516 11.9688 82.3516C12.8867 82.3516 13.5625 82.6465 13.9961 83.2363C14.4297 83.8223 14.6523 84.7285 14.6641 85.9551V87.3613ZM13.5801 85.8789C13.5801 84.9609 13.4512 84.293 13.1934 83.875C12.9355 83.4531 12.5273 83.2422 11.9688 83.2422C11.4141 83.2422 11.0098 83.4512 10.7559 83.8691C10.502 84.2871 10.3711 84.9297 10.3633 85.7969V87.5312C10.3633 88.4531 10.4961 89.1348 10.7617 89.5762C11.0312 90.0137 11.4375 90.2324 11.9805 90.2324C12.5156 90.2324 12.9121 90.0254 13.1699 89.6113C13.4316 89.1973 13.5684 88.5449 13.5801 87.6543V85.8789ZM15.959 84.1094C15.959 83.5977 16.1211 83.1758 16.4453 82.8438C16.7734 82.5117 17.1934 82.3457 17.7051 82.3457C18.2246 82.3457 18.6445 82.5137 18.9648 82.8496C19.2891 83.1816 19.4512 83.6133 19.4512 84.1445V84.5605C19.4512 85.0762 19.2871 85.498 18.959 85.8262C18.6348 86.1504 18.2207 86.3125 17.7168 86.3125C17.209 86.3125 16.7891 86.1504 16.457 85.8262C16.125 85.498 15.959 85.0625 15.959 84.5195V84.1094ZM16.7676 84.5605C16.7676 84.8652 16.8535 85.1172 17.0254 85.3164C17.1973 85.5117 17.4277 85.6094 17.7168 85.6094C17.9941 85.6094 18.2168 85.5137 18.3848 85.3223C18.5566 85.1309 18.6426 84.8691 18.6426 84.5371V84.1094C18.6426 83.8047 18.5586 83.5527 18.3906 83.3535C18.2227 83.1543 17.9941 83.0547 17.7051 83.0547C17.416 83.0547 17.1875 83.1543 17.0195 83.3535C16.8516 83.5527 16.7676 83.8125 16.7676 84.1328V84.5605ZM20.1133 88.9082C20.1133 88.3965 20.2754 87.9766 20.5996 87.6484C20.9277 87.3164 21.3477 87.1504 21.8594 87.1504C22.3711 87.1504 22.791 87.3145 23.1191 87.6426C23.4473 87.9707 23.6113 88.4062 23.6113 88.9492V89.3652C23.6113 89.877 23.4473 90.2988 23.1191 90.6309C22.7949 90.959 22.3789 91.123 21.8711 91.123C21.3633 91.123 20.9434 90.9609 20.6113 90.6367C20.2793 90.3086 20.1133 89.873 20.1133 89.3301V88.9082ZM20.9219 89.3652C20.9219 89.6738 21.0078 89.9277 21.1797 90.127C21.3516 90.3223 21.582 90.4199 21.8711 90.4199C22.1523 90.4199 22.377 90.3242 22.5449 90.1328C22.7129 89.9375 22.7969 89.6738 22.7969 89.3418V88.9082C22.7969 88.5996 22.7109 88.3477 22.5391 88.1523C22.3711 87.957 22.1445 87.8594 21.8594 87.8594C21.582 87.8594 21.3555 87.957 21.1797 88.1523C21.0078 88.3438 20.9219 88.6035 20.9219 88.9316V89.3652ZM17.9629 90.3555L17.3477 89.9688L21.5137 83.3008L22.1289 83.6875L17.9629 90.3555Z" fill="black"/>
<path d="M8.25 43.6953C8.25 44.1211 8.13672 44.5 7.91016 44.832C7.6875 45.1641 7.38477 45.4238 7.00195 45.6113C7.44727 45.8027 7.79883 46.082 8.05664 46.4492C8.31836 46.8164 8.44922 47.2324 8.44922 47.6973C8.44922 48.4355 8.19922 49.0234 7.69922 49.4609C7.20312 49.8984 6.54883 50.1172 5.73633 50.1172C4.91602 50.1172 4.25781 49.8984 3.76172 49.4609C3.26953 49.0195 3.02344 48.4316 3.02344 47.6973C3.02344 47.2363 3.14844 46.8203 3.39844 46.4492C3.65234 46.0781 4.00195 45.7969 4.44727 45.6055C4.06836 45.418 3.76953 45.1582 3.55078 44.8262C3.33203 44.4941 3.22266 44.1172 3.22266 43.6953C3.22266 42.9766 3.45312 42.4062 3.91406 41.9844C4.375 41.5625 4.98242 41.3516 5.73633 41.3516C6.48633 41.3516 7.0918 41.5625 7.55273 41.9844C8.01758 42.4062 8.25 42.9766 8.25 43.6953ZM7.36523 47.6738C7.36523 47.1973 7.21289 46.8086 6.9082 46.5078C6.60742 46.207 6.21289 46.0566 5.72461 46.0566C5.23633 46.0566 4.84375 46.2051 4.54688 46.502C4.25391 46.7988 4.10742 47.1895 4.10742 47.6738C4.10742 48.1582 4.25 48.5391 4.53516 48.8164C4.82422 49.0938 5.22461 49.2324 5.73633 49.2324C6.24414 49.2324 6.64258 49.0938 6.93164 48.8164C7.2207 48.5352 7.36523 48.1543 7.36523 47.6738ZM5.73633 42.2422C5.31055 42.2422 4.96484 42.375 4.69922 42.6406C4.4375 42.9023 4.30664 43.2598 4.30664 43.7129C4.30664 44.1465 4.43555 44.498 4.69336 44.7676C4.95508 45.0332 5.30273 45.166 5.73633 45.166C6.16992 45.166 6.51562 45.0332 6.77344 44.7676C7.03516 44.498 7.16602 44.1465 7.16602 43.7129C7.16602 43.2793 7.03125 42.9258 6.76172 42.6523C6.49219 42.3789 6.15039 42.2422 5.73633 42.2422ZM15.1641 46.3613C15.1641 47.6309 14.9473 48.5742 14.5137 49.1914C14.0801 49.8086 13.4023 50.1172 12.4805 50.1172C11.5703 50.1172 10.8965 49.8164 10.459 49.2148C10.0215 48.6094 9.79492 47.707 9.7793 46.5078V45.0605C9.7793 43.8066 9.99609 42.875 10.4297 42.2656C10.8633 41.6562 11.543 41.3516 12.4688 41.3516C13.3867 41.3516 14.0625 41.6465 14.4961 42.2363C14.9297 42.8223 15.1523 43.7285 15.1641 44.9551V46.3613ZM14.0801 44.8789C14.0801 43.9609 13.9512 43.293 13.6934 42.875C13.4355 42.4531 13.0273 42.2422 12.4688 42.2422C11.9141 42.2422 11.5098 42.4512 11.2559 42.8691C11.002 43.2871 10.8711 43.9297 10.8633 44.7969V46.5312C10.8633 47.4531 10.9961 48.1348 11.2617 48.5762C11.5312 49.0137 11.9375 49.2324 12.4805 49.2324C13.0156 49.2324 13.4121 49.0254 13.6699 48.6113C13.9316 48.1973 14.0684 47.5449 14.0801 46.6543V44.8789ZM16.459 43.1094C16.459 42.5977 16.6211 42.1758 16.9453 41.8438C17.2734 41.5117 17.6934 41.3457 18.2051 41.3457C18.7246 41.3457 19.1445 41.5137 19.4648 41.8496C19.7891 42.1816 19.9512 42.6133 19.9512 43.1445V43.5605C19.9512 44.0762 19.7871 44.498 19.459 44.8262C19.1348 45.1504 18.7207 45.3125 18.2168 45.3125C17.709 45.3125 17.2891 45.1504 16.957 44.8262C16.625 44.498 16.459 44.0625 16.459 43.5195V43.1094ZM17.2676 43.5605C17.2676 43.8652 17.3535 44.1172 17.5254 44.3164C17.6973 44.5117 17.9277 44.6094 18.2168 44.6094C18.4941 44.6094 18.7168 44.5137 18.8848 44.3223C19.0566 44.1309 19.1426 43.8691 19.1426 43.5371V43.1094C19.1426 42.8047 19.0586 42.5527 18.8906 42.3535C18.7227 42.1543 18.4941 42.0547 18.2051 42.0547C17.916 42.0547 17.6875 42.1543 17.5195 42.3535C17.3516 42.5527 17.2676 42.8125 17.2676 43.1328V43.5605ZM20.6133 47.9082C20.6133 47.3965 20.7754 46.9766 21.0996 46.6484C21.4277 46.3164 21.8477 46.1504 22.3594 46.1504C22.8711 46.1504 23.291 46.3145 23.6191 46.6426C23.9473 46.9707 24.1113 47.4062 24.1113 47.9492V48.3652C24.1113 48.877 23.9473 49.2988 23.6191 49.6309C23.2949 49.959 22.8789 50.123 22.3711 50.123C21.8633 50.123 21.4434 49.9609 21.1113 49.6367C20.7793 49.3086 20.6133 48.873 20.6133 48.3301V47.9082ZM21.4219 48.3652C21.4219 48.6738 21.5078 48.9277 21.6797 49.127C21.8516 49.3223 22.082 49.4199 22.3711 49.4199C22.6523 49.4199 22.877 49.3242 23.0449 49.1328C23.2129 48.9375 23.2969 48.6738 23.2969 48.3418V47.9082C23.2969 47.5996 23.2109 47.3477 23.0391 47.1523C22.8711 46.957 22.6445 46.8594 22.3594 46.8594C22.082 46.8594 21.8555 46.957 21.6797 47.1523C21.5078 47.3438 21.4219 47.6035 21.4219 47.9316V48.3652ZM18.4629 49.3555L17.8477 48.9688L22.0137 42.3008L22.6289 42.6875L18.4629 49.3555Z" fill="black"/>
<path d="M6.26953 11H5.17969V3.77539L2.99414 4.57812V3.59375L6.09961 2.42773H6.26953V11ZM14.7949 7.36133C14.7949 8.63086 14.5781 9.57422 14.1445 10.1914C13.7109 10.8086 13.0332 11.1172 12.1113 11.1172C11.2012 11.1172 10.5273 10.8164 10.0898 10.2148C9.65234 9.60938 9.42578 8.70703 9.41016 7.50781V6.06055C9.41016 4.80664 9.62695 3.875 10.0605 3.26562C10.4941 2.65625 11.1738 2.35156 12.0996 2.35156C13.0176 2.35156 13.6934 2.64648 14.127 3.23633C14.5605 3.82227 14.7832 4.72852 14.7949 5.95508V7.36133ZM13.7109 5.87891C13.7109 4.96094 13.582 4.29297 13.3242 3.875C13.0664 3.45312 12.6582 3.24219 12.0996 3.24219C11.5449 3.24219 11.1406 3.45117 10.8867 3.86914C10.6328 4.28711 10.502 4.92969 10.4941 5.79688V7.53125C10.4941 8.45312 10.627 9.13477 10.8926 9.57617C11.1621 10.0137 11.5684 10.2324 12.1113 10.2324C12.6465 10.2324 13.043 10.0254 13.3008 9.61133C13.5625 9.19727 13.6992 8.54492 13.7109 7.6543V5.87891ZM21.5332 7.36133C21.5332 8.63086 21.3164 9.57422 20.8828 10.1914C20.4492 10.8086 19.7715 11.1172 18.8496 11.1172C17.9395 11.1172 17.2656 10.8164 16.8281 10.2148C16.3906 9.60938 16.1641 8.70703 16.1484 7.50781V6.06055C16.1484 4.80664 16.3652 3.875 16.7988 3.26562C17.2324 2.65625 17.9121 2.35156 18.8379 2.35156C19.7559 2.35156 20.4316 2.64648 20.8652 3.23633C21.2988 3.82227 21.5215 4.72852 21.5332 5.95508V7.36133ZM20.4492 5.87891C20.4492 4.96094 20.3203 4.29297 20.0625 3.875C19.8047 3.45312 19.3965 3.24219 18.8379 3.24219C18.2832 3.24219 17.8789 3.45117 17.625 3.86914C17.3711 4.28711 17.2402 4.92969 17.2324 5.79688V7.53125C17.2324 8.45312 17.3652 9.13477 17.6309 9.57617C17.9004 10.0137 18.3066 10.2324 18.8496 10.2324C19.3848 10.2324 19.7812 10.0254 20.0391 9.61133C20.3008 9.19727 20.4375 8.54492 20.4492 7.6543V5.87891ZM22.8281 4.10938C22.8281 3.59766 22.9902 3.17578 23.3145 2.84375C23.6426 2.51172 24.0625 2.3457 24.5742 2.3457C25.0938 2.3457 25.5137 2.51367 25.834 2.84961C26.1582 3.18164 26.3203 3.61328 26.3203 4.14453V4.56055C26.3203 5.07617 26.1562 5.49805 25.8281 5.82617C25.5039 6.15039 25.0898 6.3125 24.5859 6.3125C24.0781 6.3125 23.6582 6.15039 23.3262 5.82617C22.9941 5.49805 22.8281 5.0625 22.8281 4.51953V4.10938ZM23.6367 4.56055C23.6367 4.86523 23.7227 5.11719 23.8945 5.31641C24.0664 5.51172 24.2969 5.60938 24.5859 5.60938C24.8633 5.60938 25.0859 5.51367 25.2539 5.32227C25.4258 5.13086 25.5117 4.86914 25.5117 4.53711V4.10938C25.5117 3.80469 25.4277 3.55273 25.2598 3.35352C25.0918 3.1543 24.8633 3.05469 24.5742 3.05469C24.2852 3.05469 24.0566 3.1543 23.8887 3.35352C23.7207 3.55273 23.6367 3.8125 23.6367 4.13281V4.56055ZM26.9824 8.9082C26.9824 8.39648 27.1445 7.97656 27.4688 7.64844C27.7969 7.31641 28.2168 7.15039 28.7285 7.15039C29.2402 7.15039 29.6602 7.31445 29.9883 7.64258C30.3164 7.9707 30.4805 8.40625 30.4805 8.94922V9.36523C30.4805 9.87695 30.3164 10.2988 29.9883 10.6309C29.6641 10.959 29.248 11.123 28.7402 11.123C28.2324 11.123 27.8125 10.9609 27.4805 10.6367C27.1484 10.3086 26.9824 9.87305 26.9824 9.33008V8.9082ZM27.791 9.36523C27.791 9.67383 27.877 9.92773 28.0488 10.127C28.2207 10.3223 28.4512 10.4199 28.7402 10.4199C29.0215 10.4199 29.2461 10.3242 29.4141 10.1328C29.582 9.9375 29.666 9.67383 29.666 9.3418V8.9082C29.666 8.59961 29.5801 8.34766 29.4082 8.15234C29.2402 7.95703 29.0137 7.85938 28.7285 7.85938C28.4512 7.85938 28.2246 7.95703 28.0488 8.15234C27.877 8.34375 27.791 8.60352 27.791 8.93164V9.36523ZM24.832 10.3555L24.2168 9.96875L28.3828 3.30078L28.998 3.6875L24.832 10.3555Z" fill="black"/>
</svg>
