<svg width="41" height="37" viewBox="0 0 41 37" fill="none" xmlns="http://www.w3.org/2000/svg">
<path d="M17.167 18.685C17.8457 17.1373 18.8115 15.7434 20.0094 14.5831C21.2072 13.4229 22.6136 12.5188 24.1482 11.9227C25.6827 11.3266 27.3154 11.05 28.953 11.1088C30.5906 11.1677 32.201 11.5607 33.6922 12.2655C35.1836 12.9698 36.5266 13.9722 37.6447 15.2153C38.7627 16.4584 39.6339 17.9179 40.2083 19.5104C40.7827 21.103 41.0492 22.7974 40.9925 24.4968C40.9359 26.1963 40.5571 27.8675 39.878 29.415C38.8896 31.6795 37.2923 33.5998 35.278 34.9453C33.2637 36.2907 30.918 37.0042 28.5225 37C23.7093 37 19.3061 34.114 17.2383 29.6H0V25.9C0.106959 23.791 1.49743 22.0705 4.17141 20.683C6.84539 19.2955 10.1968 18.574 14.2612 18.5C15.2773 18.5 16.24 18.5925 17.167 18.685V18.685ZM14.2612 0C16.2578 0.0555 17.9335 0.777 19.2705 2.1645C20.6075 3.552 21.2671 5.291 21.2671 7.4C21.2671 9.509 20.6075 11.248 19.2705 12.6355C17.9335 14.023 16.2578 14.7075 14.2612 14.7075C12.2647 14.7075 10.589 14.023 9.25198 12.6355C7.91499 11.248 7.2554 9.509 7.2554 7.4C7.2554 5.291 7.91499 3.552 9.25198 2.1645C10.589 0.777 12.2647 0.0555 14.2612 0ZM28.5225 33.3C30.8864 33.3 33.1535 32.3254 34.8251 30.5907C36.4967 28.856 37.4357 26.5032 37.4357 24.05C37.4357 21.5967 36.4967 19.244 34.8251 17.5093C33.1535 15.7745 30.8864 14.8 28.5225 14.8C26.1585 14.8 23.8914 15.7745 22.2198 17.5093C20.5483 19.244 19.6092 21.5967 19.6092 24.05C19.6092 26.5032 20.5483 28.856 22.2198 30.5907C23.8914 32.3254 26.1585 33.3 28.5225 33.3ZM26.7398 18.5H29.4138V23.717L33.7635 26.3255L32.4265 28.7305L26.7398 25.3265V18.5Z" fill="white"/>
</svg>
