<svg width="114" height="105" viewBox="0 0 114 105" fill="none" xmlns="http://www.w3.org/2000/svg">
<path d="M56.6998 95.622C79.9656 86.196 96.8036 70.1044 105.886 53.8109C114.829 37.5846 116.087 21.4257 108.122 11.7304C100.926 3.04494 91.5636 -0.254167 82.0616 0.015148C72.5597 0.284463 63.3372 4.25686 56.6998 9.84515C50.0624 4.25686 40.8399 0.284463 31.338 0.015148C21.836 -0.254167 12.4738 3.04494 5.27749 11.7304C-2.68738 21.4257 -1.42977 37.5846 7.65298 53.8109C16.596 70.1044 33.434 86.196 56.6998 95.622Z" fill="#EE2E3D"/>
<path d="M91.8978 60.432C92.4809 59.5106 92.82 58.4559 92.883 57.3673C92.946 56.2787 92.7309 55.1919 92.2579 54.2094C91.785 53.2268 91.0698 52.3808 90.1796 51.751C89.2894 51.1212 88.2536 50.7283 87.1697 50.6094C87.6964 49.6437 87.973 48.5615 87.9743 47.4614C87.9756 46.3614 87.7015 45.2786 87.177 44.3116C86.6525 43.3447 85.8943 42.5244 84.9716 41.9256C84.0488 41.3267 82.9909 40.9684 81.8941 40.8833C82.6375 39.4857 82.8697 37.8725 82.5507 36.322C82.2317 34.7715 81.3816 33.381 80.1469 32.3903C78.9123 31.3996 77.3706 30.871 75.7878 30.8956C74.205 30.9201 72.6804 31.4964 71.4771 32.5249C70.9276 31.449 70.0964 30.5425 69.072 29.902C68.3167 29.4334 67.4763 29.1184 66.599 28.9751C65.7217 28.8319 64.8248 28.8632 63.9597 29.0673C63.0945 29.2713 62.2781 29.6441 61.5573 30.1643C60.8365 30.6844 60.2254 31.3417 59.7591 32.0985L45.9026 54.2808C45.411 50.0763 44.9502 45.9398 44.9128 45.2588C44.9087 44.1376 44.6186 43.036 44.07 42.0582C43.5214 41.0805 42.7324 40.2588 41.7777 39.671C40.9864 39.1428 40.0953 38.7824 39.1592 38.612C38.2232 38.4416 37.2622 38.4649 36.3356 38.6804C35.4089 38.8959 34.5362 39.299 33.7714 39.8649C33.0066 40.4308 32.3659 41.1474 31.8889 41.9705C30.0764 45.2229 29.2128 60.1755 29.5259 68.7991C29.9933 81.855 35.0837 86.8861 35.3465 87.0503L53.7792 98.5645C54.1304 98.7786 54.5415 98.873 54.9509 98.8336C59.9085 97.8994 64.5074 95.6013 68.2308 92.1973C73.365 87.8776 79.1533 80.6782 85.8408 70.1674L91.8978 60.432ZM65.8475 89.3445C62.7805 92.0648 59.1082 94.0132 55.1361 95.0275L37.7722 84.181C37.1019 83.4212 33.5971 78.8934 33.2333 68.5574C32.8694 58.2213 34.1562 45.5548 35.1412 43.783C35.3562 43.4074 35.6475 43.081 35.9963 42.8248C36.3452 42.5686 36.7438 42.3883 37.1665 42.2956C37.5911 42.191 38.033 42.1763 38.4636 42.2523C38.8943 42.3284 39.3043 42.4936 39.6674 42.7373C40.1471 42.9995 40.5447 43.3897 40.8158 43.8644C41.0869 44.3391 41.221 44.8797 41.2032 45.4261C41.2407 46.4969 42.0547 53.2656 42.5002 57.2708L48.553 57.0569L62.9129 34.0686C63.1067 33.6929 63.3762 33.3615 63.7045 33.0953C64.0328 32.829 64.4127 32.6337 64.8203 32.5217C65.2279 32.4098 65.6543 32.3835 66.0725 32.4446C66.4908 32.5057 66.8918 32.6529 67.2503 32.8768C67.6088 33.1008 67.917 33.3966 68.1553 33.7457C68.3937 34.0947 68.5571 34.4894 68.6353 34.9048C68.7134 35.3202 68.7046 35.7473 68.6093 36.1591C68.514 36.5709 68.3344 36.9585 68.0818 37.2974L55.889 56.8164L59.0428 58.7865L73.2715 36.0085C73.7488 35.4103 74.4294 35.0085 75.1837 34.8794C75.938 34.7504 76.7135 34.9031 77.3625 35.3085C78.0116 35.714 78.489 36.3438 78.7038 37.0783C78.9187 37.8128 78.8561 38.6007 78.5279 39.2921L64.157 62.2978L67.3109 64.268L78.7485 45.9579C78.9354 45.5944 79.1956 45.2735 79.5128 45.0157C79.83 44.7579 80.1973 44.5687 80.5914 44.4602C80.9854 44.3516 81.3978 44.326 81.8023 44.3849C82.2067 44.4439 82.5946 44.5861 82.9413 44.8027C83.288 45.0193 83.5859 45.3054 83.8163 45.643C84.0467 45.9807 84.2046 46.3625 84.2798 46.7642C84.3551 47.166 84.3462 47.579 84.2537 47.9772C84.1611 48.3753 83.9869 48.7499 83.7422 49.0773L71.221 69.122L74.3749 71.0921L84.116 55.4979C84.5294 54.9485 85.1337 54.5741 85.8097 54.4486C86.4856 54.323 87.1841 54.4554 87.7672 54.8196C88.3503 55.1839 88.7757 55.7535 88.9593 56.416C89.143 57.0786 89.0716 57.7859 88.7592 58.3983L82.6847 68.1228C76.1635 78.4452 70.7146 85.2964 65.8475 89.3445Z" fill="white"/>
</svg>
