<svg width="39" height="39" viewBox="0 0 39 39" fill="none" xmlns="http://www.w3.org/2000/svg">
<g clip-path="url(#clip0)">
<path opacity="0.15" d="M19.1176 38.9999C29.676 38.9999 38.2353 30.4407 38.2353 19.8823C38.2353 9.32391 29.676 0.764648 19.1176 0.764648C8.55926 0.764648 0 9.32391 0 19.8823C0 30.4407 8.55926 38.9999 19.1176 38.9999Z" fill="#EE2E3D"/>
<path d="M19.8823 38.2353C30.4407 38.2353 38.9999 29.676 38.9999 19.1176C38.9999 8.55926 30.4407 0 19.8823 0C9.32391 0 0.764648 8.55926 0.764648 19.1176C0.764648 29.676 9.32391 38.2353 19.8823 38.2353Z" fill="#EE2E3D"/>
<path d="M19.8825 3.82349C28.3291 3.82349 35.1766 10.671 35.1766 19.1176C35.1766 27.5642 28.3291 34.4117 19.8825 34.4117C11.4359 34.4117 4.58838 27.5642 4.58838 19.1176C4.58838 10.671 11.4359 3.82349 19.8825 3.82349Z" fill="white"/>
<path fill-rule="evenodd" clip-rule="evenodd" d="M19.8822 7.64697C26.2174 7.64697 31.3528 12.7824 31.3528 19.1176C31.3528 25.4524 26.2174 30.5881 19.8822 30.5881C13.547 30.5881 8.41162 25.4524 8.41162 19.1176C8.41162 12.7824 13.547 7.64697 19.8822 7.64697Z" fill="#EE2E3D"/>
<path d="M19.8824 11.4707C24.1059 11.4707 27.5295 14.8947 27.5295 19.1178C27.5295 23.3409 24.1059 26.7648 19.8824 26.7648C15.6589 26.7648 12.2354 23.3409 12.2354 19.1178C12.2354 14.8947 15.6589 11.4707 19.8824 11.4707Z" fill="white"/>
<path fill-rule="evenodd" clip-rule="evenodd" d="M19.8821 15.2942C21.9939 15.2942 23.7057 17.006 23.7057 19.1177C23.7057 21.2291 21.9939 22.9412 19.8821 22.9412C17.7704 22.9412 16.0586 21.2291 16.0586 19.1177C16.0586 17.006 17.7704 15.2942 19.8821 15.2942Z" fill="#E64C3C"/>
<path fill-rule="evenodd" clip-rule="evenodd" d="M34.0292 28.2942H29.0586L34.0292 33.2648H38.9998L34.0292 28.2942Z" fill="#EE2E3D"/>
<path fill-rule="evenodd" clip-rule="evenodd" d="M34.0292 38.2354V33.2648L29.0586 28.2942V33.2648L34.0292 38.2354Z" fill="#F29C1F"/>
<path fill-rule="evenodd" clip-rule="evenodd" d="M34.0292 28.2942H29.0586L34.0292 33.2648H38.9998L34.0292 28.2942Z" fill="#FF9933"/>
<path opacity="0.15" d="M19.2857 18.5208L5.78174 32.0247C6.04082 32.306 6.30821 32.5795 6.58353 32.8449L20.0966 19.3318C20.1514 19.2789 20.1951 19.2156 20.2252 19.1456C20.2552 19.0756 20.2711 19.0004 20.2717 18.9242C20.2724 18.8481 20.2579 18.7725 20.229 18.7021C20.2002 18.6316 20.1576 18.5675 20.1038 18.5137C20.0499 18.4598 19.9859 18.4172 19.9154 18.3884C19.8449 18.3596 19.7694 18.3451 19.6932 18.3457C19.6171 18.3464 19.5418 18.3622 19.4718 18.3923C19.4019 18.4223 19.3386 18.466 19.2857 18.5208Z" fill="#EE2E3D"/>
<path d="M34.5506 34.3721C34.4038 34.3721 34.2566 34.3163 34.1445 34.2042L19.4767 19.5234C19.3738 19.4148 19.3174 19.2704 19.3194 19.1208C19.3214 18.9712 19.3818 18.8283 19.4876 18.7226C19.5935 18.6169 19.7364 18.5566 19.886 18.5547C20.0356 18.5528 20.18 18.6094 20.2884 18.7124L34.9567 33.3929C35.0368 33.4732 35.0913 33.5754 35.1133 33.6867C35.1353 33.7979 35.1239 33.9132 35.0805 34.018C35.037 34.1228 34.9635 34.2123 34.8692 34.2754C34.7749 34.3384 34.664 34.372 34.5506 34.3721Z" fill="#F29C1F"/>
</g>
<defs>
<clipPath id="clip0">
<rect width="39" height="39" fill="white"/>
</clipPath>
</defs>
</svg>
