<svg width="110" height="110" viewBox="0 0 110 110" fill="none" xmlns="http://www.w3.org/2000/svg">
<path d="M94.961 10.3125H75.6251C74.3715 10.3125 73.1693 10.8105 72.2829 11.6969C71.3965 12.5833 70.8985 13.7855 70.8985 15.0391C70.8985 16.2926 71.3965 17.4948 72.2829 18.3812C73.1693 19.2677 74.3715 19.7656 75.6251 19.7656H83.5506L70.5762 32.74C55.926 21.3834 34.6973 22.4275 21.261 35.8703C6.68599 50.4475 6.68599 74.1619 21.2696 88.7305C28.2854 95.7253 37.7883 99.6532 47.6954 99.6532C57.6024 99.6532 67.1053 95.7253 74.1211 88.7305C87.5639 75.2856 88.6081 54.0654 77.2514 39.4152L90.2344 26.4494V34.375C90.2344 35.6286 90.7324 36.8308 91.6188 37.7172C92.5052 38.6036 93.7074 39.1016 94.961 39.1016C96.2146 39.1016 97.4168 38.6036 98.3032 37.7172C99.1896 36.8308 99.6876 35.6286 99.6876 34.375V15.0391C99.6876 14.4184 99.5653 13.8037 99.3278 13.2303C99.0902 12.6568 98.7421 12.1358 98.3032 11.6969C97.8643 11.258 97.3432 10.9098 96.7698 10.6723C96.1963 10.4348 95.5817 10.3125 94.961 10.3125ZM67.4438 82.0531C62.2024 87.2836 55.1001 90.2212 47.6954 90.2212C40.2906 90.2212 33.1883 87.2836 27.9469 82.0531C17.0565 71.1649 17.0565 53.4445 27.9469 42.5563C38.8374 31.668 56.5555 31.6658 67.4438 42.5563C78.3321 53.4467 78.3342 71.1649 67.4438 82.0531Z" fill="#EE2E3D"/>
</svg>
