<svg width="214" height="114" viewBox="0 0 214 114" fill="none" xmlns="http://www.w3.org/2000/svg">
<path fill-rule="evenodd" clip-rule="evenodd" d="M107 20.4809C106.836 20.4802 106.671 20.4798 106.507 20.4798C52.9928 20.4798 8.56941 59.401 0 110.48H107V20.4809Z" fill="#EE404E"/>
<path fill-rule="evenodd" clip-rule="evenodd" d="M107 20.4809C107.164 20.4802 107.329 20.4798 107.493 20.4798C161.007 20.4798 205.431 59.401 214 110.48H107V20.4809Z" fill="#0EE624"/>
<path fill-rule="evenodd" clip-rule="evenodd" d="M106.581 110.678L107.102 110.686L108.385 20.696C108.22 20.6929 108.056 20.6902 107.891 20.6878C83.6734 20.3426 61.2038 27.9959 42.999 41.2022L106.581 110.678Z" fill="#FFB367"/>
<path fill-rule="evenodd" clip-rule="evenodd" d="M107.485 110.633L106.962 110.636L105.288 20.1879C105.454 20.186 105.619 20.1845 105.785 20.1834C130.171 20.0203 152.83 27.8821 171.219 41.2919L107.485 110.633Z" fill="#F9F250"/>
<path fill-rule="evenodd" clip-rule="evenodd" d="M160.507 111H54C58.2847 85.4602 80.4964 65.9996 107.253 65.9996C134.01 65.9996 156.222 85.4602 160.507 111Z" fill="white"/>
<path fill-rule="evenodd" clip-rule="evenodd" d="M114.809 97.9463L128.169 45.8533L105.574 94.6553C103.007 95.3746 100.816 97.2872 99.8535 99.9895C98.2776 104.412 100.585 109.274 105.007 110.85C109.429 112.425 114.291 110.118 115.867 105.696C116.83 102.994 116.343 100.127 114.809 97.9463Z" fill="black"/>
</svg>
