<svg width="74" height="74" viewBox="0 0 74 74" fill="none" xmlns="http://www.w3.org/2000/svg">
<path d="M15.5 31C12.4344 31 9.43763 30.0909 6.88867 28.3878C4.33971 26.6846 2.35303 24.2638 1.17987 21.4316C0.0067159 18.5993 -0.300236 15.4828 0.297835 12.4761C0.895906 9.4694 2.37214 6.70756 4.53985 4.53985C6.70756 2.37214 9.4694 0.895906 12.4761 0.297835C15.4828 -0.300236 18.5993 0.0067159 21.4316 1.17987C24.2638 2.35303 26.6846 4.33971 28.3878 6.88867C30.0909 9.43763 31 12.4344 31 15.5C30.9959 19.6096 29.3615 23.5497 26.4556 26.4556C23.5497 29.3615 19.6096 30.9959 15.5 31V31Z" fill="#EE2E3D"/>
<path d="M0 69.6402L69.6371 0L74 4.36292L4.35983 74L0 69.6402Z" fill="#EE2E3D"/>
<path d="M58.5 74C55.4344 74 52.4376 73.0909 49.8887 71.3878C47.3397 69.6846 45.353 67.2639 44.1799 64.4316C43.0067 61.5993 42.6998 58.4828 43.2978 55.4761C43.8959 52.4694 45.3721 49.7076 47.5399 47.5399C49.7076 45.3721 52.4694 43.8959 55.4761 43.2978C58.4828 42.6998 61.5993 43.0067 64.4316 44.1799C67.2639 45.353 69.6846 47.3397 71.3878 49.8887C73.0909 52.4376 74 55.4344 74 58.5C73.9959 62.6096 72.3616 66.5497 69.4556 69.4556C66.5497 72.3616 62.6096 73.9959 58.5 74V74Z" fill="#EE2E3D"/>
</svg>
