<svg width="27" height="37" viewBox="0 0 27 37" fill="none" xmlns="http://www.w3.org/2000/svg">
<path fill-rule="evenodd" clip-rule="evenodd" d="M4.5 0H22.5C23.6935 0 24.8381 0.556475 25.682 1.54701C26.5259 2.53754 27 3.88099 27 5.28181V31.6908C27 33.0917 26.5259 34.4351 25.682 35.4256C24.8381 36.4162 23.6935 36.9727 22.5 36.9727H4.5C3.30653 36.9727 2.16193 36.4162 1.31802 35.4256C0.474106 34.4351 0 33.0917 0 31.6908V5.28181C0 3.88099 0.474106 2.53754 1.31802 1.54701C2.16193 0.556475 3.30653 0 4.5 0V0ZM4.5 2.6409C3.90326 2.6409 3.33097 2.91914 2.90901 3.41441C2.48705 3.90967 2.25 4.5814 2.25 5.28181V31.6908C2.25 32.3913 2.48705 33.063 2.90901 33.5582C3.33097 34.0535 3.90326 34.3318 4.5 34.3318H22.5C23.0967 34.3318 23.669 34.0535 24.091 33.5582C24.5129 33.063 24.75 32.3913 24.75 31.6908V5.28181C24.75 4.5814 24.5129 3.90967 24.091 3.41441C23.669 2.91914 23.0967 2.6409 22.5 2.6409H4.5Z" fill="white"/>
<path d="M26.5153 34.332C25.397 30.978 22.0423 26.4092 13.5013 26.4092C4.9603 26.4092 1.60555 30.978 0.487305 34.332H26.5153V34.332Z" fill="white"/>
<path fill-rule="evenodd" clip-rule="evenodd" d="M13.5 23.7681C14.3864 23.7681 15.2642 23.5631 16.0831 23.165C16.9021 22.7668 17.6462 22.1833 18.273 21.4476C18.8998 20.7119 19.397 19.8385 19.7362 18.8773C20.0754 17.9161 20.25 16.8859 20.25 15.8455C20.25 14.805 20.0754 13.7748 19.7362 12.8136C19.397 11.8524 18.8998 10.979 18.273 10.2433C17.6462 9.50765 16.9021 8.92407 16.0831 8.52592C15.2642 8.12778 14.3864 7.92285 13.5 7.92285C11.7098 7.92285 9.9929 8.75755 8.72703 10.2433C7.46116 11.7291 6.75 13.7443 6.75 15.8455C6.75 17.9467 7.46116 19.9618 8.72703 21.4476C9.9929 22.9334 11.7098 23.7681 13.5 23.7681V23.7681Z" fill="white"/>
</svg>
