<svg width="1176" height="586" viewBox="0 0 1176 586" fill="none" xmlns="http://www.w3.org/2000/svg">
<g clip-path="url(#clip0)">
<path fill-rule="evenodd" clip-rule="evenodd" d="M282.467 276.061C332.085 237.071 426.414 333.124 261.484 412.671C128.029 287.303 246.838 223.977 282.467 276.061Z" fill="black"/>
<g clip-path="url(#clip1)">
<path fill-rule="evenodd" clip-rule="evenodd" d="M281.027 285.444C322.787 253.91 402.996 332.635 263.943 396.665C150.516 293.863 250.655 242.83 281.027 285.444Z" fill="#D90404"/>
<g clip-path="url(#clip2)">
<path fill-rule="evenodd" clip-rule="evenodd" d="M307.909 303.703C312.828 294.931 332.584 303.3 313.175 325.092C285.868 314.801 299.481 298.216 307.909 303.703Z" fill="black"/>
<g clip-path="url(#clip3)">
<path fill-rule="evenodd" clip-rule="evenodd" d="M308.272 305.172C312.49 297.978 329.108 304.66 312.558 322.586C289.579 314.392 301.196 300.758 308.272 305.172Z" fill="white"/>
</g>
</g>
</g>
</g>
<g clip-path="url(#clip4)">
<path fill-rule="evenodd" clip-rule="evenodd" d="M186.284 313.828C217.145 258.785 341.108 311.295 219.321 448.034C47.9783 383.463 133.398 279.4 186.284 313.828Z" fill="black"/>
<g clip-path="url(#clip5)">
<path fill-rule="evenodd" clip-rule="evenodd" d="M188.554 323.045C215.019 277.902 319.294 319.828 215.45 432.309C71.2614 380.894 144.157 295.346 188.554 323.045Z" fill="white"/>
<g clip-path="url(#clip6)">
<path fill-rule="evenodd" clip-rule="evenodd" d="M231.224 330.537C239.077 324.366 254.006 339.568 227.903 352.158C206.782 332.316 225.585 322.294 231.224 330.537Z" fill="black"/>
<g clip-path="url(#clip7)">
<path fill-rule="evenodd" clip-rule="evenodd" d="M230.996 332.022C237.606 327.031 250.3 339.491 228.293 349.624C210.341 333.354 226.19 325.277 230.996 332.022Z" fill="#D90404"/>
</g>
</g>
</g>
</g>
<path d="M245.115 540.797C211.056 553.426 179.292 559.74 149.825 559.74C116.53 559.74 89.5504 550.938 68.8849 533.335C48.2194 515.731 37.8867 487.603 37.8867 448.951V264.683C37.8867 235.599 41.905 213.594 49.9415 198.669C58.3608 183.744 70.9897 171.115 87.8282 160.782C104.667 151.215 125.332 146.431 149.825 146.431C179.675 146.431 206.655 152.745 230.764 165.374L215.839 210.15C197.47 203.261 177.761 199.817 156.713 199.817C138.344 199.817 122.653 204.792 109.642 214.742C96.6302 224.309 90.1244 239.234 90.1244 259.517V447.802C90.1244 487.22 112.512 506.929 157.287 506.929C180.249 506.929 206.655 502.145 236.505 492.578L245.115 540.797Z" fill="#D90404"/>
<path d="M538.131 329.238C538.131 308.955 530.573 298.814 515.457 298.814C509.334 298.814 502.541 300.249 495.078 303.119L488.19 305.989C488.955 307.52 489.529 309.625 489.912 312.304C490.486 314.791 490.773 317.183 490.773 319.479V420.51H464.654V329.812C464.654 319.479 462.071 311.729 456.905 306.563C451.738 301.397 445.041 298.814 436.813 298.814C428.203 298.814 419.688 301.301 411.268 306.276V420.51H385.15V276.713H408.972L410.694 281.305C419.496 276.713 428.777 274.417 438.535 274.417C445.232 274.417 451.547 275.565 457.479 277.861C463.602 280.157 468.864 283.601 473.265 288.194C475.944 286.663 479.962 284.558 485.32 281.879C496.609 276.713 507.516 274.13 518.04 274.13C531.626 274.13 542.724 278.339 551.334 286.759C559.945 294.987 564.25 306.467 564.25 321.201V420.51H538.131V329.238ZM597.332 276.713H622.302L622.876 283.027C625.747 280.54 629.861 278.531 635.218 277C640.576 275.278 645.838 274.417 651.004 274.417C668.8 274.417 682.29 279.583 691.474 289.916C700.85 300.249 705.538 313.643 705.538 330.099V369.995C705.538 387.407 700.659 400.801 690.9 410.177C681.142 419.362 668.226 423.954 652.153 423.954C645.073 423.954 639.524 423.285 635.505 421.945C631.487 420.797 627.469 418.788 623.45 415.918V474.47L597.332 480.784V276.713ZM679.419 328.951C679.419 319.192 677.028 311.921 672.244 307.137C667.46 302.162 660.763 299.675 652.153 299.675C643.542 299.675 636.653 302.066 631.487 306.85C626.321 311.634 623.642 318.522 623.45 327.516V368.847C623.45 378.031 625.747 385.302 630.339 390.66C635.123 395.826 642.394 398.41 652.153 398.41C661.529 398.41 668.417 395.826 672.818 390.66C677.219 385.302 679.419 377.17 679.419 366.263V328.951ZM837.334 420.51C816.669 422.615 801.744 423.667 792.559 423.667C772.468 423.667 756.49 419.936 744.627 412.474C732.763 405.011 726.832 391.521 726.832 372.004V348.181C726.832 329.238 733.433 316.513 746.636 310.007C752.95 306.946 760.413 305.415 769.024 305.415C776.678 305.415 784.427 306.563 792.272 308.859C800.118 311.155 806.432 313.834 811.216 316.896C811.216 308.859 808.154 302.832 802.031 298.814C795.908 294.795 787.106 292.786 775.625 292.786L777.634 274.417C796.004 274.417 809.494 277.383 818.104 283.314C826.906 289.055 832.264 295.943 834.177 303.98C836.282 312.016 837.334 322.349 837.334 334.978V420.51ZM811.216 343.015C806.241 340.144 800.213 337.561 793.133 335.265C786.054 332.969 779.452 331.821 773.329 331.821C759.743 331.821 752.95 338.231 752.95 351.051V369.995C752.95 389.703 765.579 399.558 790.837 399.558C796.96 399.558 803.753 398.984 811.216 397.836V343.015ZM900.454 424.241C886.295 423.093 876.249 418.884 870.317 411.613C864.385 404.341 861.42 394.678 861.42 382.624V219.596H887.825V276.713H917.676L910.787 301.397H887.825V382.624C887.825 389.321 889.548 394.296 892.992 397.549C896.436 400.61 901.507 402.619 908.204 403.576L900.454 424.241ZM1030.39 410.464C1023.5 414.865 1015.65 418.214 1006.85 420.51C998.049 422.806 989.248 423.954 980.446 423.954C966.286 423.954 954.996 420.51 946.577 413.622C938.349 406.542 934.235 396.018 934.235 382.049V323.21C934.235 307.711 939.019 295.656 948.586 287.046C958.345 278.435 971.165 274.13 987.047 274.13C1002.93 274.13 1015.27 278.435 1024.07 287.046C1033.07 295.465 1037.56 307.233 1037.56 322.349V363.68L960.641 367.985V379.179C960.641 385.876 962.555 391.043 966.382 394.678C970.4 398.123 975.949 399.845 983.029 399.845C993.553 399.845 1006.09 396.018 1020.63 388.364L1030.39 410.464ZM1011.16 322.062C1011.16 314.217 1008.67 308.477 1003.69 304.841C998.719 301.014 993.074 299.101 986.76 299.101C978.532 299.101 972.122 301.397 967.53 305.989C962.937 310.39 960.641 316.226 960.641 323.497V343.589L1011.16 340.719V322.062ZM1154.84 410.464C1147.95 414.865 1140.1 418.214 1131.3 420.51C1122.5 422.806 1113.7 423.954 1104.9 423.954C1090.74 423.954 1079.45 420.51 1071.03 413.622C1062.8 406.542 1058.69 396.018 1058.69 382.049V323.21C1058.69 307.711 1063.47 295.656 1073.04 287.046C1082.8 278.435 1095.62 274.13 1111.5 274.13C1127.38 274.13 1139.72 278.435 1148.52 287.046C1157.52 295.465 1162.01 307.233 1162.01 322.349V363.68L1085.09 367.985V379.179C1085.09 385.876 1087 391.043 1090.83 394.678C1094.85 398.123 1100.4 399.845 1107.48 399.845C1118 399.845 1130.54 396.018 1145.08 388.364L1154.84 410.464ZM1135.61 322.062C1135.61 314.217 1133.12 308.477 1128.14 304.841C1123.17 301.014 1117.52 299.101 1111.21 299.101C1102.98 299.101 1096.57 301.397 1091.98 305.989C1087.39 310.39 1085.09 316.226 1085.09 323.497V343.589L1135.61 340.719V322.062Z" fill="#D90404"/>
<path d="M984.129 463.532H1004.79C1010.02 463.532 1014.2 464.903 1017.33 467.646C1020.52 470.389 1022.11 474.503 1022.11 479.988C1022.11 482.475 1021.7 484.867 1020.87 487.163C1020.04 489.396 1018.35 491.373 1015.8 493.095L1015.7 493.286V493.382C1018.51 494.658 1020.84 496.731 1022.69 499.601C1024.6 502.407 1025.56 506.075 1025.56 510.603C1025.56 516.025 1024.03 520.713 1020.96 524.667C1017.9 528.558 1012.86 530.503 1005.85 530.503H984.129V463.532ZM1003.36 490.99C1006.93 490.99 1009.67 490.129 1011.59 488.407C1013.56 486.685 1014.55 484.038 1014.55 480.466C1014.55 476.639 1013.53 473.992 1011.49 472.525C1009.45 470.995 1006.68 470.229 1003.17 470.229H991.018V490.99H1003.36ZM1004.32 524.093C1008.59 524.093 1011.91 523.105 1014.27 521.127C1016.69 519.15 1017.9 515.546 1017.9 510.316C1017.9 506.107 1016.69 502.949 1014.27 500.845C1011.91 498.74 1009.04 497.687 1005.66 497.687H991.018V524.093H1004.32ZM1036.36 463.532H1068.31V470.133H1043.25V490.99H1059.99L1057.79 497.687H1043.25V524.285H1068.12V530.503H1036.36V463.532ZM1088.87 470.038H1073.37V463.532H1111.83V470.038H1095.76V530.503H1088.87V470.038ZM1138.38 508.881H1118.48L1112.16 530.503H1104.7L1124.41 463.532H1132.35L1152.73 530.503H1144.98L1138.38 508.881ZM1120.3 501.801H1136.66L1128.33 474.63L1120.3 501.801Z" fill="black"/>
<defs>
<clipPath id="clip0">
<rect width="155.469" height="155.469" fill="white" transform="translate(207.651 251.143) rotate(8.73233)"/>
</clipPath>
<clipPath id="clip1">
<rect width="131.551" height="131.551" fill="white" transform="translate(217.656 264.779) rotate(8.73233)"/>
</clipPath>
<clipPath id="clip2">
<rect width="24.7773" height="24.7773" fill="white" transform="translate(295.375 304.611) rotate(-13.8292)"/>
</clipPath>
<clipPath id="clip3">
<rect width="20.9654" height="20.9654" fill="white" transform="translate(297.681 306.006) rotate(-13.8292)"/>
</clipPath>
<clipPath id="clip4">
<rect width="155.469" height="155.469" fill="white" transform="translate(107.633 319.522) rotate(-13.8292)"/>
</clipPath>
<clipPath id="clip5">
<rect width="131.551" height="131.551" fill="white" transform="translate(122.104 328.276) rotate(-13.8292)"/>
</clipPath>
<clipPath id="clip6">
<rect width="24.6057" height="24.6057" fill="white" transform="translate(219.383 326.593) rotate(8.73233)"/>
</clipPath>
<clipPath id="clip7">
<rect width="20.8202" height="20.8202" fill="white" transform="translate(220.967 328.751) rotate(8.73233)"/>
</clipPath>
</defs>
</svg>
