<svg width="29" height="34" viewBox="0 0 29 34" fill="none" xmlns="http://www.w3.org/2000/svg">
<path d="M13.3846 0.000245578C11.5498 0.000245578 10.0385 1.77216 10.0385 3.92329L10.0563 3.70883L8.95765 11.4372L6.84958 18.2006C6.80942 18.262 6.76146 18.3078 6.69231 18.3078H5.57692V17.0001H0V34H5.57692V30.077H9.95592C11.7896 30.077 13.4415 29.0347 14.5 27.4158C15.5596 29.0347 17.2104 30.077 19.0441 30.077H23.4231V34H29V17.0001H23.4231V18.3078H22.3077C22.2374 18.3078 22.1906 18.262 22.1515 18.2006L20.0423 11.4372L18.9437 3.70883L18.9615 3.92329C18.9615 1.77216 17.4502 0.000245578 15.6154 0.000245578C15.2362 0.000245578 14.848 0.0865527 14.5 0.29709C14.1535 0.0960468 13.7712 -0.00568997 13.3846 0.000245578V0.000245578ZM13.3456 2.63653C13.3679 2.82484 13.3846 3.25376 13.3846 3.92329V24.1113C13.2385 25.0522 12.8152 25.9031 12.1885 26.5155C11.5619 27.1278 10.7717 27.4626 9.95592 27.4616H5.57692V20.9232H6.69231C7.56788 20.9232 8.38323 20.3661 8.81377 19.4716L8.85838 19.3749L11.1193 12.1015L12.2692 4.03052V3.92329C12.2692 3.20407 12.7399 2.66138 13.3456 2.63653ZM15.6544 2.63653C16.2601 2.66269 16.7308 3.20276 16.7308 3.92329V4.03052L17.8807 12.1015L20.1427 19.3749L20.1862 19.473C20.3992 19.9127 20.7077 20.2785 21.0803 20.5332C21.4529 20.7879 21.8764 20.9224 22.3077 20.9232H23.4231V27.4616H19.0441C18.2282 27.4626 17.4378 27.1276 16.8112 26.515C16.1845 25.9024 15.7613 25.0512 15.6154 24.11V3.92329C15.6154 3.25376 15.6332 2.82484 15.6544 2.63653ZM2.23077 19.6155H3.34615V31.3846H2.23077V19.6155ZM25.6538 19.6155H26.7692V31.3846H25.6538V19.6155Z" fill="white"/>
</svg>
