<svg width="105" height="123" viewBox="0 0 105 123" fill="none" xmlns="http://www.w3.org/2000/svg">
<path d="M70.0044 0H35.0022V11.7143H70.0044V0ZM46.6696 76.1429H58.337V41H46.6696V76.1429ZM93.5142 37.4271L101.798 29.11C99.2896 26.1229 96.5478 23.3114 93.5726 20.8514L85.2887 29.1686C75.9975 21.6616 64.4293 17.5696 52.5033 17.5714C23.5098 17.5714 0 41.1757 0 70.2857C0 99.3957 23.4515 123 52.5033 123C62.3874 123.005 72.072 120.207 80.4417 114.929C88.8113 109.65 95.5256 102.105 99.8113 93.1622C104.097 84.2197 105.78 74.2438 104.666 64.3832C103.552 54.5226 99.686 45.1785 93.5142 37.4271V37.4271ZM52.5033 111.286C29.9269 111.286 11.6674 92.9528 11.6674 70.2857C11.6674 47.6186 29.9269 29.2857 52.5033 29.2857C75.0797 29.2857 93.3392 47.6186 93.3392 70.2857C93.3392 92.9528 75.0797 111.286 52.5033 111.286Z" fill="#EE2E3D"/>
</svg>
