<svg width="90" height="90" viewBox="0 0 90 90" fill="none" xmlns="http://www.w3.org/2000/svg">
<path d="M84.6302 0H65.2942C64.0407 0 62.8385 0.497975 61.9521 1.38438C61.0657 2.27078 60.5677 3.473 60.5677 4.72656C60.5677 5.98013 61.0657 7.18235 61.9521 8.06875C62.8385 8.95515 64.0407 9.45313 65.2942 9.45313H73.2198L60.2454 22.4275C45.5952 11.0709 24.3665 12.115 10.9302 25.5578C-3.64482 40.135 -3.64482 63.8494 10.9388 78.418C17.9546 85.4128 27.4575 89.3407 37.3645 89.3407C47.2716 89.3407 56.7745 85.4128 63.7903 78.418C77.2331 64.9731 78.2772 43.7529 66.9206 29.1027L79.9036 16.1369V24.0625C79.9036 25.3161 80.4016 26.5183 81.288 27.4047C82.1744 28.2911 83.3766 28.7891 84.6302 28.7891C85.8837 28.7891 87.086 28.2911 87.9724 27.4047C88.8588 26.5183 89.3567 25.3161 89.3567 24.0625V4.72656C89.3567 4.10586 89.2345 3.49124 88.9969 2.91779C88.7594 2.34433 88.4113 1.82328 87.9724 1.38438C87.5335 0.945476 87.0124 0.597321 86.439 0.359789C85.8655 0.122257 85.2509 0 84.6302 0ZM57.113 71.7406C51.8716 76.9711 44.7693 79.9087 37.3645 79.9087C29.9598 79.9087 22.8575 76.9711 17.6161 71.7406C6.72568 60.8524 6.72568 43.132 17.6161 32.2438C28.5065 21.3555 46.2247 21.3533 57.113 32.2438C68.0013 43.1342 68.0034 60.8524 57.113 71.7406Z" fill="white"/>
</svg>
