<svg width="46" height="83" viewBox="0 0 46 83" fill="none" xmlns="http://www.w3.org/2000/svg">
<path fill-rule="evenodd" clip-rule="evenodd" d="M22.9397 1.1586e-05C17.2566 -0.00569994 11.7741 2.10047 7.55655 5.90964C3.33897 9.71881 0.68722 14.9592 0.116075 20.6136C-0.455071 26.2679 1.09514 31.9328 4.46577 36.5084C7.8364 41.0841 12.787 44.2441 18.3564 45.375V55H4.60642V64.1667H18.3564V82.5H27.5231V64.1667H41.2731V55H27.5231V45.375C33.0751 44.225 38.004 41.0583 41.3578 36.4867C44.7117 31.9151 46.2525 26.2629 45.6826 20.6217C45.1128 14.9806 42.4728 9.75063 38.2725 5.94208C34.0722 2.13353 28.6096 0.016549 22.9397 1.1586e-05ZM9.18975 22.9167C9.18975 26.5634 10.6384 30.0608 13.217 32.6394C15.7957 35.218 19.293 36.6667 22.9397 36.6667C26.5865 36.6667 30.0838 35.218 32.6625 32.6394C35.2411 30.0608 36.6897 26.5634 36.6897 22.9167C36.6897 19.27 35.2411 15.7726 32.6625 13.194C30.0838 10.6153 26.5865 9.16668 22.9397 9.16668C19.293 9.16668 15.7957 10.6153 13.217 13.194C10.6384 15.7726 9.18975 19.27 9.18975 22.9167Z" fill="white"/>
</svg>
